<?xml version="1.0" encoding="UTF-8"?>
<svg xmlns="http://www.w3.org/2000/svg" xmlns:xlink="http://www.w3.org/1999/xlink" viewBox="70 20 110 50" version="1.1" width="288" height="152">
<g xmlns="http://www.w3.org/2000/svg" id="surface1">
<path style=" stroke:none;fill-rule:evenodd;fill:rgb(7.058716%,12.548828%,31.764221%);fill-opacity:1;" d="M 132.015625 17.074219 C 152.753906 17.074219 169.5625 29.683594 169.5625 45.238281 C 169.5625 60.796875 152.753906 73.40625 132.015625 73.40625 C 111.28125 73.40625 94.472656 60.796875 94.472656 45.238281 C 94.472656 29.683594 111.28125 17.074219 132.015625 17.074219 Z M 166.34375 40.828125 C 167.300781 40.839844 168.050781 41.15625 168.59375 41.785156 C 169.128906 42.414063 169.402344 43.300781 169.414063 44.453125 C 169.148438 48.546875 167.148438 52.652344 163.40625 56.78125 C 159.6875 60.894531 155.894531 63.109375 152.027344 63.429688 C 151.265625 63.421875 150.539063 63.265625 149.855469 62.960938 C 149.167969 62.660156 148.5625 62.234375 148.042969 61.6875 C 147.515625 61.132813 147.09375 60.46875 146.78125 59.683594 C 146.460938 58.90625 146.292969 58.023438 146.273438 57.039063 C 146.359375 55.53125 146.695313 54.046875 147.289063 52.605469 L 146.667969 52.605469 C 146.164063 52.605469 145.574219 52.597656 144.910156 52.585938 C 144.382813 52.578125 143.902344 52.570313 143.46875 52.570313 C 143.207031 53.148438 142.933594 53.730469 142.660156 54.296875 C 142.3125 55.015625 141.945313 55.714844 141.5625 56.390625 C 141.175781 57.066406 140.765625 57.710938 140.339844 58.316406 C 139.910156 58.921875 139.457031 59.484375 138.96875 60.003906 C 137.882813 61.089844 136.5625 61.925781 135.011719 62.496094 C 133.457031 63.078125 131.652344 63.375 129.589844 63.394531 C 128.070313 63.363281 126.734375 63.179688 125.582031 62.839844 C 124.433594 62.496094 123.464844 62.042969 122.691406 61.46875 C 121.914063 60.902344 121.335938 60.226563 120.941406 59.445313 C 120.550781 58.667969 120.351563 57.824219 120.339844 56.914063 C 120.359375 55.972656 120.566406 55.125 120.960938 54.363281 C 121.355469 53.605469 121.886719 52.957031 122.558594 52.414063 C 123.226563 51.875 124.019531 51.457031 124.925781 51.164063 C 125.835938 50.867188 126.820313 50.710938 127.875 50.6875 C 128.835938 50.710938 129.679688 50.839844 130.410156 51.089844 C 131.136719 51.339844 131.75 51.65625 132.230469 52.050781 C 132.714844 52.441406 133.085938 52.890625 133.332031 53.398438 C 133.582031 53.902344 133.710938 54.425781 133.722656 54.96875 C 133.710938 55.492188 133.59375 56.011719 133.371094 56.519531 C 133.148438 57.027344 132.835938 57.488281 132.425781 57.898438 C 132.011719 58.3125 131.515625 58.644531 130.941406 58.910156 C 130.363281 59.175781 129.726563 59.324219 129.015625 59.34375 C 128.507813 59.332031 128.039063 59.261719 127.605469 59.132813 C 127.171875 59.007813 126.792969 58.832031 126.472656 58.601563 C 126.148438 58.375 125.902344 58.109375 125.714844 57.8125 C 125.539063 57.511719 125.453125 57.179688 125.453125 56.816406 C 125.453125 56.617188 125.476563 56.421875 125.542969 56.234375 C 125.609375 56.042969 125.707031 55.875 125.832031 55.734375 C 125.953125 55.589844 126.117188 55.476563 126.304688 55.382813 C 126.496094 55.296875 126.71875 55.25 126.972656 55.25 C 127.296875 55.25 127.464844 55.332031 127.464844 55.488281 C 127.453125 55.585938 127.40625 55.644531 127.328125 55.671875 C 127.246094 55.699219 127.171875 55.707031 127.097656 55.707031 L 126.734375 55.675781 C 126.425781 55.6875 126.175781 55.804688 125.980469 56.023438 C 125.785156 56.238281 125.683594 56.503906 125.671875 56.816406 C 125.683594 57.070313 125.753906 57.316406 125.894531 57.542969 C 126.03125 57.769531 126.214844 57.96875 126.445313 58.144531 C 126.679688 58.316406 126.957031 58.457031 127.273438 58.554688 C 127.589844 58.65625 127.933594 58.710938 128.300781 58.722656 C 128.933594 58.699219 129.546875 58.570313 130.128906 58.328125 C 130.71875 58.082031 131.238281 57.769531 131.699219 57.390625 C 132.160156 57.011719 132.539063 56.578125 132.824219 56.09375 C 133.117188 55.613281 133.273438 55.113281 133.296875 54.605469 C 133.273438 54.128906 133.148438 53.710938 132.925781 53.355469 C 132.707031 53 132.40625 52.695313 132.035156 52.445313 C 131.660156 52.199219 131.230469 52.007813 130.738281 51.875 C 130.246094 51.742188 129.726563 51.671875 129.171875 51.664063 C 128.140625 51.695313 127.15625 51.882813 126.21875 52.242188 C 125.285156 52.59375 124.460938 53.058594 123.746094 53.640625 C 123.035156 54.222656 122.460938 54.882813 122.027344 55.628906 C 121.59375 56.375 121.355469 57.140625 121.3125 57.949219 C 121.410156 59.636719 122.222656 60.914063 123.753906 61.777344 C 124.542969 62.234375 125.359375 62.5625 126.199219 62.773438 C 127.042969 62.980469 127.933594 63.082031 128.886719 63.082031 C 130.007813 63.082031 131.210938 62.847656 132.511719 62.382813 C 133.851563 61.90625 135.117188 61.089844 136.3125 59.929688 C 136.980469 59.21875 137.613281 58.46875 138.210938 57.679688 C 138.816406 56.886719 139.390625 56.039063 139.945313 55.144531 C 140.003906 55.039063 140.121094 54.847656 140.289063 54.574219 C 140.457031 54.300781 140.652344 53.984375 140.875 53.625 C 141.085938 53.273438 141.308594 52.90625 141.539063 52.515625 C 141.359375 52.507813 141.210938 52.5 141.078125 52.5 C 140.878906 52.488281 140.769531 52.484375 140.75 52.484375 C 139.964844 52.484375 139.328125 52.527344 138.828125 52.621094 C 138.335938 52.710938 137.949219 52.824219 137.667969 52.964844 C 137.386719 53.113281 137.195313 53.269531 137.085938 53.441406 C 136.984375 53.617188 136.929688 53.789063 136.929688 53.957031 C 136.929688 54 136.910156 54.03125 136.859375 54.058594 C 136.8125 54.085938 136.761719 54.113281 136.707031 54.128906 C 136.65625 54.152344 136.605469 54.171875 136.558594 54.1875 C 136.507813 54.203125 136.488281 54.222656 136.488281 54.242188 C 136.488281 54.019531 136.714844 53.589844 137.167969 52.945313 C 137.675781 52.214844 138.925781 51.804688 140.921875 51.710938 C 141.132813 51.710938 141.3125 51.710938 141.464844 51.714844 C 141.609375 51.722656 141.738281 51.726563 141.84375 51.726563 C 141.90625 51.726563 141.964844 51.734375 142.015625 51.742188 C 142.113281 51.59375 142.203125 51.453125 142.285156 51.316406 C 142.507813 50.941406 142.707031 50.617188 142.882813 50.34375 C 143.054688 50.0625 143.171875 49.867188 143.238281 49.765625 C 143.800781 48.855469 144.382813 48 144.996094 47.199219 C 145.605469 46.398438 146.257813 45.632813 146.933594 44.902344 C 148.273438 43.476563 149.871094 42.414063 151.714844 41.703125 C 151.78125 41.675781 151.8125 41.636719 151.816406 41.601563 C 151.824219 41.566406 151.828125 41.523438 151.828125 41.488281 C 150.941406 41.15625 149.738281 40.847656 148.230469 40.566406 C 147.480469 40.417969 146.738281 40.300781 146.003906 40.226563 C 145.265625 40.144531 144.535156 40.101563 143.804688 40.089844 C 140.058594 40.1875 137.128906 41.027344 135.027344 42.613281 C 132.925781 44.175781 131.851563 45.90625 131.796875 47.8125 C 131.808594 48.277344 131.898438 48.714844 132.074219 49.132813 C 132.246094 49.550781 132.5 49.914063 132.824219 50.230469 C 133.15625 50.539063 133.550781 50.792969 134.015625 50.980469 C 134.472656 51.171875 135.003906 51.269531 135.59375 51.277344 C 136.417969 51.242188 137.183594 51.039063 137.894531 50.695313 C 138.601563 50.347656 139.214844 49.921875 139.738281 49.417969 C 140.261719 48.914063 140.679688 48.375 140.992188 47.785156 C 141.300781 47.199219 141.46875 46.636719 141.492188 46.097656 C 141.480469 45.429688 141.28125 44.894531 140.894531 44.484375 C 140.511719 44.066406 139.996094 43.855469 139.347656 43.84375 C 138.914063 43.867188 138.484375 43.976563 138.042969 44.164063 C 137.605469 44.355469 137.207031 44.601563 136.855469 44.910156 C 136.503906 45.214844 136.207031 45.566406 135.972656 45.957031 C 135.742188 46.34375 135.617188 46.746094 135.59375 47.160156 C 135.617188 47.464844 135.675781 47.691406 135.765625 47.832031 C 135.863281 47.980469 135.96875 48.082031 136.074219 48.152344 C 136.1875 48.214844 136.292969 48.269531 136.394531 48.304688 C 136.496094 48.332031 136.5625 48.382813 136.59375 48.460938 C 136.59375 48.550781 136.574219 48.617188 136.53125 48.648438 C 136.488281 48.683594 136.433594 48.699219 136.375 48.699219 C 136.054688 48.6875 135.792969 48.542969 135.589844 48.253906 C 135.382813 47.96875 135.273438 47.636719 135.265625 47.253906 C 135.296875 46.746094 135.4375 46.273438 135.695313 45.835938 C 135.957031 45.398438 136.28125 45.015625 136.671875 44.691406 C 137.058594 44.359375 137.5 44.101563 137.96875 43.910156 C 138.445313 43.722656 138.914063 43.613281 139.382813 43.589844 C 139.792969 43.601563 140.164063 43.6875 140.488281 43.84375 C 140.820313 44.007813 141.101563 44.21875 141.332031 44.488281 C 141.566406 44.761719 141.746094 45.066406 141.871094 45.425781 C 142 45.777344 142.0625 46.148438 142.074219 46.539063 C 142.054688 47.167969 141.890625 47.777344 141.582031 48.390625 C 141.28125 48.996094 140.867188 49.542969 140.347656 50.027344 C 139.828125 50.515625 139.21875 50.910156 138.511719 51.222656 C 137.800781 51.539063 137.035156 51.707031 136.195313 51.738281 C 135.480469 51.726563 134.792969 51.601563 134.140625 51.359375 C 133.488281 51.117188 132.910156 50.773438 132.417969 50.332031 C 131.921875 49.886719 131.527344 49.347656 131.234375 48.71875 C 130.9375 48.09375 130.789063 47.390625 130.789063 46.605469 C 130.789063 44.925781 131.601563 43.332031 133.230469 41.816406 C 134.875 40.265625 137.644531 39.429688 141.527344 39.3125 C 142.371094 39.3125 143.210938 39.355469 144.054688 39.449219 C 144.894531 39.539063 145.699219 39.648438 146.476563 39.785156 C 147.25 39.917969 147.980469 40.058594 148.65625 40.214844 C 149.335938 40.367188 149.941406 40.511719 150.46875 40.644531 C 151.003906 40.773438 151.449219 40.886719 151.800781 40.980469 C 152.15625 41.066406 152.390625 41.113281 152.511719 41.125 C 152.742188 41.113281 152.933594 41.070313 153.078125 40.984375 C 153.222656 40.898438 153.355469 40.8125 153.46875 40.722656 C 153.574219 40.632813 153.679688 40.546875 153.777344 40.46875 C 153.875 40.390625 153.988281 40.339844 154.121094 40.320313 C 154.285156 40.328125 154.386719 40.390625 154.441406 40.503906 C 154.496094 40.609375 154.523438 40.722656 154.523438 40.84375 C 154.523438 41.15625 154.417969 41.410156 154.214844 41.605469 C 154.007813 41.804688 153.714844 41.910156 153.347656 41.914063 L 153.234375 41.914063 C 152.953125 41.914063 152.53125 41.996094 151.96875 42.152344 C 151.410156 42.316406 150.785156 42.613281 150.089844 43.050781 C 149.398438 43.488281 148.679688 44.089844 147.929688 44.851563 C 147.175781 45.621094 146.460938 46.609375 145.785156 47.820313 C 145.417969 48.496094 145.0625 49.191406 144.710938 49.894531 C 144.417969 50.492188 144.121094 51.117188 143.824219 51.75 C 144.210938 51.761719 144.648438 51.765625 145.121094 51.765625 C 145.738281 51.769531 146.289063 51.78125 146.785156 51.792969 C 147.09375 51.804688 147.375 51.8125 147.640625 51.824219 C 148.472656 50.0625 149.703125 48.351563 151.320313 46.695313 C 154.5 43.457031 157.933594 41.734375 161.636719 41.535156 C 162.015625 41.535156 162.304688 41.550781 162.507813 41.578125 C 162.707031 41.601563 162.859375 41.644531 162.964844 41.699219 C 164.265625 41.113281 165.390625 40.828125 166.34375 40.828125 Z M 160.050781 47.746094 C 159.796875 47.746094 159.589844 47.722656 159.429688 47.6875 C 159.273438 47.644531 159.191406 47.5625 159.191406 47.449219 C 159.191406 47.351563 159.222656 47.292969 159.28125 47.265625 C 159.335938 47.238281 159.414063 47.226563 159.492188 47.226563 C 159.582031 47.238281 159.703125 47.265625 159.867188 47.320313 C 160.027344 47.371094 160.238281 47.40625 160.496094 47.414063 C 160.925781 47.394531 161.355469 47.257813 161.777344 47.015625 C 162.199219 46.777344 162.578125 46.46875 162.917969 46.105469 C 163.253906 45.746094 163.527344 45.339844 163.746094 44.894531 C 163.957031 44.453125 164.070313 44.007813 164.089844 43.566406 C 164.089844 43.222656 164.015625 42.941406 163.863281 42.714844 C 163.707031 42.488281 163.5 42.304688 163.238281 42.167969 C 162.113281 43.023438 161.046875 43.964844 160.035156 44.980469 C 159.023438 46.003906 158.054688 47.113281 157.128906 48.320313 C 155.304688 50.703125 154.339844 52.820313 154.222656 54.660156 C 154.246094 55.394531 154.429688 55.980469 154.769531 56.40625 C 155.113281 56.835938 155.515625 57.054688 155.984375 57.066406 C 156.171875 57.054688 156.335938 57.023438 156.457031 56.96875 C 156.589844 56.921875 156.691406 56.859375 156.777344 56.808594 C 156.859375 56.746094 156.933594 56.695313 157.003906 56.640625 C 157.074219 56.585938 157.140625 56.550781 157.207031 56.542969 C 157.277344 56.542969 157.328125 56.570313 157.363281 56.613281 C 157.394531 56.660156 157.410156 56.703125 157.410156 56.730469 C 157.398438 56.816406 157.355469 56.894531 157.277344 56.964844 C 157.195313 57.035156 157.097656 57.09375 156.972656 57.148438 C 156.855469 57.195313 156.71875 57.238281 156.578125 57.273438 C 156.4375 57.304688 156.289063 57.320313 156.140625 57.320313 C 155.71875 57.320313 155.339844 57.230469 154.992188 57.039063 C 154.652344 56.855469 154.359375 56.601563 154.121094 56.269531 C 153.882813 55.945313 153.695313 55.566406 153.566406 55.140625 C 153.429688 54.714844 153.359375 54.25 153.347656 53.757813 C 153.425781 51.777344 154.339844 49.648438 156.101563 47.367188 C 156.996094 46.214844 157.980469 45.191406 159.042969 44.300781 C 160.105469 43.40625 161.273438 42.628906 162.539063 41.964844 C 162.421875 41.921875 162.277344 41.894531 162.117188 41.882813 C 161.953125 41.871094 161.820313 41.867188 161.710938 41.867188 C 161.46875 41.867188 161.160156 41.914063 160.785156 42.011719 C 160.414063 42.105469 159.976563 42.277344 159.476563 42.527344 C 158.984375 42.773438 158.429688 43.121094 157.804688 43.566406 C 157.1875 44.007813 156.519531 44.578125 155.789063 45.273438 C 153.839844 47.222656 152.0625 49.402344 150.449219 51.820313 C 150.734375 51.796875 150.988281 51.765625 151.210938 51.726563 C 151.710938 51.628906 152.097656 51.511719 152.378906 51.371094 C 152.660156 51.222656 152.855469 51.066406 152.964844 50.894531 C 153.066406 50.722656 153.121094 50.546875 153.121094 50.378906 C 153.121094 50.335938 153.148438 50.300781 153.195313 50.277344 C 153.246094 50.25 153.292969 50.222656 153.347656 50.203125 C 153.402344 50.179688 153.449219 50.164063 153.496094 50.160156 C 153.539063 50.148438 153.566406 50.132813 153.574219 50.109375 C 153.566406 50.332031 153.335938 50.757813 152.886719 51.390625 C 152.457031 52.015625 151.476563 52.410156 149.960938 52.566406 C 148.519531 54.871094 147.742188 56.957031 147.636719 58.839844 C 147.648438 59.484375 147.761719 60.070313 147.980469 60.59375 C 148.203125 61.113281 148.5 61.5625 148.875 61.941406 C 149.242188 62.3125 149.667969 62.605469 150.160156 62.8125 C 150.65625 63.015625 151.171875 63.125 151.726563 63.136719 C 152.746094 63.125 153.835938 62.800781 154.988281 62.152344 C 156.140625 61.507813 157.292969 60.609375 158.445313 59.457031 C 160.441406 57.460938 162.554688 54.804688 164.792969 51.488281 C 167.035156 48.167969 168.25 45.367188 168.441406 43.070313 C 168.429688 42.472656 168.234375 41.984375 167.84375 41.613281 C 167.460938 41.242188 166.9375 41.058594 166.273438 41.058594 C 165.859375 41.058594 165.425781 41.140625 164.96875 41.304688 C 164.507813 41.472656 164.082031 41.675781 163.679688 41.929688 C 164.003906 42.175781 164.257813 42.449219 164.4375 42.765625 C 164.621094 43.070313 164.707031 43.433594 164.707031 43.851563 C 164.707031 44.292969 164.601563 44.738281 164.382813 45.1875 C 164.167969 45.636719 163.859375 46.046875 163.457031 46.425781 C 163.054688 46.800781 162.566406 47.109375 161.992188 47.351563 C 161.414063 47.59375 160.769531 47.722656 160.050781 47.746094 Z M 127.167969 28.582031 C 126.46875 28.582031 125.761719 28.742188 125.039063 29.0625 C 124.328125 29.386719 123.613281 29.894531 122.90625 30.59375 C 121.410156 32.183594 120.179688 34.027344 119.195313 36.136719 C 118.214844 38.25 117.191406 40.316406 116.125 42.335938 C 115.066406 44.367188 113.660156 46.046875 111.90625 47.402344 C 110.148438 48.746094 107.753906 49.453125 104.707031 49.515625 C 101.546875 49.441406 99.195313 48.808594 97.652344 47.605469 C 96.109375 46.410156 95.34375 44.988281 95.355469 43.339844 C 95.429688 41.417969 96.203125 39.890625 97.683594 38.773438 C 99.160156 37.648438 100.886719 37.074219 102.851563 37.054688 C 104.3125 37.074219 105.554688 37.46875 106.59375 38.25 C 107.628906 39.023438 108.167969 40.011719 108.210938 41.222656 C 108.179688 42.355469 107.726563 43.332031 106.847656 44.15625 C 105.96875 44.984375 104.832031 45.421875 103.433594 45.464844 C 102.5 45.441406 101.714844 45.214844 101.09375 44.789063 C 100.472656 44.359375 100.148438 43.824219 100.125 43.171875 C 100.136719 42.714844 100.292969 42.328125 100.601563 42.007813 C 100.910156 41.6875 101.277344 41.519531 101.710938 41.511719 C 101.84375 41.511719 101.941406 41.519531 101.996094 41.546875 C 102.050781 41.574219 102.070313 41.628906 102.070313 41.714844 C 102.070313 41.78125 102.050781 41.824219 101.996094 41.855469 C 101.941406 41.890625 101.886719 41.90625 101.839844 41.90625 C 101.796875 41.90625 101.742188 41.894531 101.675781 41.871094 C 101.613281 41.851563 101.542969 41.839844 101.457031 41.839844 C 101.253906 41.839844 101.035156 41.953125 100.785156 42.179688 C 100.535156 42.40625 100.402344 42.726563 100.378906 43.136719 C 100.390625 43.628906 100.628906 44.050781 101.09375 44.402344 C 101.558594 44.75 102.207031 44.929688 103.039063 44.941406 C 104.402344 44.886719 105.546875 44.441406 106.460938 43.597656 C 107.375 42.753906 107.847656 41.855469 107.875 40.898438 C 107.847656 40.023438 107.433594 39.304688 106.632813 38.742188 C 105.832031 38.179688 104.851563 37.886719 103.691406 37.863281 C 101.835938 37.917969 100.101563 38.53125 98.503906 39.691406 C 96.902344 40.859375 96.046875 42.25 95.945313 43.867188 C 95.964844 45.210938 96.597656 46.398438 97.851563 47.429688 C 99.101563 48.457031 100.8125 49.003906 102.976563 49.050781 C 105.398438 48.992188 107.449219 48.34375 109.132813 47.109375 C 110.808594 45.882813 112.28125 44.316406 113.546875 42.417969 C 114.804688 40.527344 116.050781 38.574219 117.277344 36.578125 C 118.5 34.574219 119.871094 32.789063 121.382813 31.222656 C 122.226563 30.382813 123.0625 29.734375 123.882813 29.261719 C 124.710938 28.796875 125.542969 28.476563 126.386719 28.292969 L 126.519531 28.171875 C 125.453125 27.757813 124.148438 27.378906 122.617188 27.046875 C 121.085938 26.703125 119.421875 26.527344 117.625 26.503906 C 114.054688 26.617188 111.296875 27.46875 109.34375 29.046875 C 107.394531 30.625 106.410156 32.242188 106.390625 33.90625 C 106.398438 34.84375 106.75 35.691406 107.445313 36.445313 C 108.136719 37.203125 109.082031 37.597656 110.289063 37.640625 C 111.796875 37.554688 113.113281 36.957031 114.234375 35.832031 C 115.351563 34.703125 115.941406 33.554688 115.992188 32.378906 C 115.984375 31.746094 115.796875 31.269531 115.429688 30.945313 C 115.066406 30.625 114.617188 30.464844 114.074219 30.464844 C 113.273438 30.496094 112.4375 30.828125 111.570313 31.460938 C 110.707031 32.09375 110.234375 32.84375 110.160156 33.726563 C 110.160156 33.941406 110.207031 34.132813 110.304688 34.300781 C 110.398438 34.472656 110.558594 34.558594 110.78125 34.570313 C 110.90625 34.570313 110.996094 34.597656 111.046875 34.644531 C 111.101563 34.6875 111.128906 34.742188 111.128906 34.796875 C 111.128906 34.867188 111.105469 34.914063 111.0625 34.9375 C 111.019531 34.960938 110.960938 34.96875 110.875 34.96875 C 110.585938 34.949219 110.34375 34.792969 110.144531 34.5 C 109.941406 34.207031 109.839844 33.871094 109.828125 33.488281 C 109.871094 32.574219 110.292969 31.777344 111.09375 31.101563 C 111.902344 30.421875 112.800781 30.070313 113.789063 30.035156 C 114.585938 30.046875 115.226563 30.289063 115.726563 30.765625 C 116.21875 31.242188 116.472656 31.882813 116.484375 32.675781 C 116.472656 33.855469 115.96875 35.019531 114.980469 36.171875 C 113.984375 37.324219 112.589844 37.941406 110.78125 38.027344 C 109.164063 37.972656 107.894531 37.441406 106.96875 36.4375 C 106.039063 35.429688 105.566406 34.28125 105.546875 32.988281 C 105.5 31.300781 106.292969 29.71875 107.914063 28.222656 C 109.539063 26.726563 112.253906 25.929688 116.054688 25.824219 C 117.441406 25.824219 118.738281 25.925781 119.957031 26.132813 C 121.167969 26.335938 122.277344 26.574219 123.265625 26.84375 C 124.261719 27.117188 125.144531 27.351563 125.910156 27.558594 C 126.683594 27.765625 127.339844 27.878906 127.882813 27.898438 C 128.367188 27.890625 128.71875 27.839844 128.945313 27.757813 C 129.175781 27.671875 129.335938 27.625 129.433594 27.613281 C 129.488281 27.613281 129.542969 27.640625 129.605469 27.683594 C 129.671875 27.730469 129.703125 27.800781 129.703125 27.898438 C 129.703125 28.121094 129.628906 28.332031 129.488281 28.53125 C 129.347656 28.734375 129.121094 28.839844 128.816406 28.851563 C 128.621094 28.839844 128.390625 28.796875 128.117188 28.714844 C 127.84375 28.636719 127.523438 28.59375 127.167969 28.582031 Z M 124.441406 49.484375 C 123.5625 49.484375 122.753906 49.109375 122 48.359375 C 121.253906 47.613281 120.855469 46.417969 120.800781 44.773438 L 120.800781 40.992188 C 120.800781 40.429688 120.6875 39.84375 120.460938 39.226563 C 120.226563 38.609375 119.917969 38.273438 119.527344 38.222656 L 119.113281 38.300781 C 119.042969 38.292969 118.972656 38.25 118.902344 38.171875 C 118.832031 38.097656 118.792969 38.019531 118.78125 37.933594 C 118.78125 37.835938 118.820313 37.753906 118.890625 37.679688 C 118.964844 37.605469 119.050781 37.570313 119.144531 37.570313 C 119.242188 37.582031 119.339844 37.613281 119.429688 37.675781 C 119.527344 37.730469 119.703125 37.765625 119.957031 37.777344 C 120.320313 37.765625 120.722656 37.679688 121.171875 37.523438 C 121.621094 37.359375 122.03125 37.199219 122.402344 37.03125 C 122.921875 36.765625 123.484375 36.382813 124.089844 35.882813 C 124.695313 35.386719 125.304688 34.835938 125.917969 34.222656 C 126.535156 33.617188 127.125 33.011719 127.703125 32.421875 C 128.277344 31.828125 128.796875 31.3125 129.25 30.878906 C 131.425781 28.714844 133.289063 27.261719 134.84375 26.515625 C 136.394531 25.773438 137.8125 25.421875 139.105469 25.476563 C 139.621094 25.476563 140.0625 25.535156 140.425781 25.648438 C 140.792969 25.769531 140.976563 25.945313 140.988281 26.191406 C 140.976563 26.359375 140.890625 26.527344 140.722656 26.683594 C 140.550781 26.84375 140.394531 26.925781 140.246094 26.9375 C 140.003906 26.894531 139.777344 26.730469 139.570313 26.445313 C 139.367188 26.15625 138.992188 25.996094 138.457031 25.953125 C 137.992188 25.964844 137.417969 26.105469 136.742188 26.378906 C 136.066406 26.65625 135.394531 27.039063 134.730469 27.527344 C 133.695313 28.320313 132.71875 29.148438 131.796875 30.019531 C 130.878906 30.886719 129.980469 31.742188 129.105469 32.578125 C 128.226563 33.410156 127.335938 34.203125 126.425781 34.9375 C 125.515625 35.671875 124.546875 36.324219 123.527344 36.878906 C 123.019531 37.15625 122.410156 37.410156 121.703125 37.636719 C 120.996094 37.863281 120.503906 37.984375 120.226563 37.992188 L 120.082031 38.058594 C 120.390625 38.203125 120.6875 38.378906 120.976563 38.574219 C 121.265625 38.765625 121.535156 38.988281 121.777344 39.226563 C 122.292969 39.734375 122.675781 40.546875 122.925781 41.65625 C 123.175781 42.769531 123.300781 44.261719 123.300781 46.128906 C 123.320313 47.128906 123.492188 47.867188 123.8125 48.335938 C 124.136719 48.808594 124.523438 49.039063 124.964844 49.039063 C 125.199219 49.027344 125.402344 48.96875 125.582031 48.855469 C 125.761719 48.746094 125.917969 48.617188 126.058594 48.472656 C 126.679688 47.773438 127.058594 47.152344 127.1875 46.59375 C 127.324219 46.042969 127.484375 45.75 127.691406 45.71875 C 127.75 45.71875 127.792969 45.734375 127.816406 45.765625 C 127.835938 45.792969 127.847656 45.84375 127.847656 45.90625 C 127.847656 46.195313 127.5625 46.828125 126.984375 47.8125 C 126.410156 48.800781 125.558594 49.359375 124.441406 49.484375 "/>
<path style=" stroke:none;fill-rule:nonzero;fill:rgb(7.058716%,12.548828%,31.764221%);fill-opacity:1;" d="M 76.585938 44.714844 C 76.761719 44.328125 76.917969 44.003906 77.046875 43.730469 C 77.175781 43.460938 77.292969 43.222656 77.390625 43.023438 C 77.492188 42.820313 77.574219 42.648438 77.652344 42.5 C 77.722656 42.351563 77.800781 42.203125 77.875 42.0625 C 77.949219 41.917969 78.027344 41.769531 78.109375 41.613281 C 78.191406 41.457031 78.289063 41.273438 78.398438 41.058594 L 78.445313 41.058594 C 78.445313 41.191406 78.480469 41.300781 78.546875 41.375 C 78.613281 41.457031 78.726563 41.492188 78.882813 41.492188 C 79.105469 41.484375 79.277344 41.433594 79.402344 41.335938 C 79.527344 41.234375 79.652344 41.144531 79.78125 41.058594 L 79.898438 41.058594 C 79.445313 41.773438 79.011719 42.5 78.589844 43.226563 C 78.164063 43.957031 77.75 44.691406 77.339844 45.441406 C 76.546875 46.921875 76.117188 47.964844 76.054688 48.582031 C 76.054688 48.785156 76.097656 48.949219 76.195313 49.066406 C 76.289063 49.179688 76.421875 49.242188 76.585938 49.242188 C 76.726563 49.234375 76.84375 49.195313 76.933594 49.128906 C 77.019531 49.066406 77.109375 48.984375 77.199219 48.898438 C 77.644531 48.40625 77.953125 47.941406 78.125 47.507813 C 78.316406 47.078125 78.46875 46.839844 78.589844 46.804688 C 78.675781 46.804688 78.71875 46.832031 78.71875 46.894531 C 78.695313 47.042969 78.53125 47.359375 78.234375 47.835938 C 78.085938 48.066406 77.941406 48.277344 77.808594 48.464844 C 77.675781 48.648438 77.542969 48.8125 77.410156 48.949219 C 77.3125 49.046875 77.1875 49.144531 77.035156 49.238281 C 76.882813 49.328125 76.726563 49.378906 76.5625 49.386719 C 76.308594 49.386719 76.09375 49.28125 75.914063 49.070313 C 75.734375 48.855469 75.636719 48.523438 75.628906 48.066406 C 75.636719 47.546875 75.738281 46.996094 75.921875 46.414063 C 76.113281 45.832031 76.332031 45.265625 76.585938 44.714844 Z M 71.542969 49.070313 C 72.105469 49.070313 72.820313 48.46875 73.683594 47.273438 C 74.0625 46.769531 74.523438 46.089844 75.070313 45.230469 C 75.617188 44.371094 76.230469 43.402344 76.914063 42.320313 C 77.265625 41.867188 77.570313 41.554688 77.820313 41.386719 C 78.074219 41.214844 78.28125 41.132813 78.445313 41.132813 L 78.304688 41.492188 C 78.242188 41.417969 78.152344 41.410156 78.027344 41.476563 C 77.90625 41.546875 77.777344 41.648438 77.640625 41.792969 C 77.503906 41.933594 77.367188 42.09375 77.234375 42.269531 C 77.101563 42.445313 76.992188 42.59375 76.914063 42.722656 C 76.636719 43.15625 76.363281 43.59375 76.09375 44.027344 C 75.824219 44.464844 75.570313 44.871094 75.339844 45.25 C 75.109375 45.628906 74.902344 45.96875 74.714844 46.269531 C 74.53125 46.566406 74.390625 46.792969 74.285156 46.941406 C 73.15625 48.570313 72.253906 49.386719 71.585938 49.386719 C 71.398438 49.386719 71.195313 49.351563 70.972656 49.28125 C 70.753906 49.210938 70.574219 49.109375 70.441406 48.972656 C 70.195313 48.683594 70.066406 48.332031 70.066406 47.925781 C 70.066406 47.539063 70.164063 47.234375 70.367188 47.003906 C 70.566406 46.777344 70.832031 46.664063 71.164063 46.664063 C 71.421875 46.664063 71.640625 46.75 71.816406 46.929688 C 71.992188 47.105469 72.082031 47.304688 72.082031 47.535156 C 72.082031 47.742188 72.03125 47.890625 71.9375 47.988281 C 71.835938 48.085938 71.710938 48.136719 71.554688 48.136719 C 71.390625 48.136719 71.273438 48.113281 71.1875 48.070313 C 71.097656 48.027344 71.027344 47.984375 70.960938 47.945313 C 70.886719 47.945313 70.804688 47.984375 70.734375 48.058594 C 70.65625 48.136719 70.621094 48.226563 70.621094 48.335938 C 70.621094 48.445313 70.648438 48.546875 70.707031 48.636719 C 70.769531 48.726563 70.84375 48.804688 70.9375 48.867188 C 71.035156 48.929688 71.136719 48.980469 71.238281 49.015625 C 71.34375 49.046875 71.445313 49.070313 71.542969 49.070313 "/>
<path style=" stroke:none;fill-rule:nonzero;fill:rgb(7.058716%,12.548828%,31.764221%);fill-opacity:1;" d="M 82.160156 45.253906 C 82.753906 45.253906 83.238281 45.171875 83.609375 45.003906 C 83.976563 44.839844 84.332031 44.582031 84.671875 44.238281 C 85.230469 43.660156 85.617188 43.164063 85.828125 42.746094 C 86.046875 42.328125 86.148438 42.023438 86.140625 41.835938 C 86.140625 41.65625 86.097656 41.527344 86.011719 41.453125 C 85.925781 41.386719 85.824219 41.347656 85.707031 41.347656 C 85.289063 41.355469 84.777344 41.699219 84.167969 42.375 C 83.558594 43.046875 82.886719 44.007813 82.160156 45.253906 Z M 81.867188 49.484375 C 81.386719 49.46875 80.996094 49.257813 80.691406 48.851563 C 80.390625 48.449219 80.234375 47.875 80.226563 47.128906 C 80.355469 45.40625 81.082031 44 82.398438 42.90625 C 83.707031 41.8125 84.796875 41.242188 85.664063 41.203125 C 85.984375 41.210938 86.210938 41.296875 86.339844 41.457031 C 86.46875 41.617188 86.527344 41.828125 86.519531 42.089844 C 86.453125 43.023438 85.972656 43.816406 85.085938 44.457031 C 84.195313 45.101563 83.339844 45.441406 82.515625 45.472656 L 81.988281 45.472656 C 81.71875 45.957031 81.476563 46.441406 81.253906 46.921875 C 81.035156 47.398438 80.917969 47.863281 80.902344 48.300781 C 80.902344 48.574219 80.980469 48.816406 81.136719 49.019531 C 81.292969 49.226563 81.542969 49.328125 81.890625 49.339844 C 82.1875 49.339844 82.476563 49.253906 82.75 49.085938 C 83.023438 48.914063 83.3125 48.679688 83.613281 48.371094 C 84.414063 47.539063 84.90625 46.945313 85.09375 46.589844 C 85.273438 46.238281 85.414063 46.0625 85.511719 46.070313 C 85.5625 46.070313 85.597656 46.078125 85.617188 46.09375 C 85.632813 46.113281 85.640625 46.148438 85.640625 46.203125 C 85.589844 46.398438 85.179688 46.964844 84.414063 47.902344 C 83.644531 48.835938 82.796875 49.363281 81.867188 49.484375 "/>
<path style=" stroke:none;fill-rule:nonzero;fill:rgb(7.058716%,12.548828%,31.764221%);fill-opacity:1;" d="M 90.226563 48.417969 C 90.9375 47.664063 91.378906 47.089844 91.558594 46.691406 C 91.738281 46.292969 91.890625 46.09375 92.003906 46.09375 C 92.054688 46.09375 92.089844 46.109375 92.117188 46.132813 C 92.144531 46.15625 92.160156 46.183594 92.160156 46.222656 C 92.121094 46.421875 91.910156 46.769531 91.53125 47.273438 C 91.148438 47.777344 90.8125 48.183594 90.507813 48.488281 C 90.257813 48.746094 89.976563 48.96875 89.667969 49.144531 C 89.359375 49.320313 88.992188 49.417969 88.578125 49.433594 C 88.050781 49.410156 87.636719 49.183594 87.332031 48.761719 C 87.03125 48.339844 86.871094 47.777344 86.863281 47.082031 C 86.9375 45.679688 87.535156 44.371094 88.664063 43.140625 C 89.792969 41.910156 91.035156 41.257813 92.394531 41.179688 C 92.828125 41.179688 93.164063 41.277344 93.40625 41.46875 C 93.644531 41.664063 93.765625 41.972656 93.777344 42.40625 C 93.75 42.933594 93.589844 43.417969 93.292969 43.863281 C 92.996094 44.304688 92.675781 44.542969 92.347656 44.574219 C 92.191406 44.574219 92.054688 44.515625 91.9375 44.398438 C 91.820313 44.28125 91.757813 44.117188 91.75 43.902344 C 91.765625 43.632813 91.863281 43.394531 92.054688 43.191406 C 92.242188 42.980469 92.449219 42.875 92.664063 42.863281 C 92.691406 42.863281 92.730469 42.871094 92.777344 42.878906 C 92.832031 42.886719 92.878906 42.890625 92.925781 42.890625 C 93.125 42.882813 93.265625 42.808594 93.347656 42.671875 C 93.4375 42.53125 93.480469 42.375 93.480469 42.195313 C 93.480469 41.949219 93.40625 41.753906 93.257813 41.601563 C 93.109375 41.453125 92.882813 41.375 92.585938 41.367188 C 91.515625 41.566406 90.429688 42.523438 89.328125 44.25 C 88.21875 45.976563 87.628906 47.292969 87.539063 48.203125 C 87.539063 48.550781 87.628906 48.820313 87.808594 49.007813 C 87.992188 49.195313 88.242188 49.289063 88.554688 49.289063 C 88.882813 49.28125 89.179688 49.195313 89.453125 49.039063 C 89.714844 48.882813 89.972656 48.679688 90.226563 48.417969 "/>
<path style=" stroke:none;fill-rule:nonzero;fill:rgb(7.058716%,12.548828%,31.764221%);fill-opacity:1;" d="M 177.816406 55.476563 C 177.816406 55.375 177.789063 55.289063 177.730469 55.21875 C 177.679688 55.148438 177.582031 55.109375 177.449219 55.109375 C 176.855469 55.242188 175.945313 56.191406 174.734375 57.949219 C 173.519531 59.710938 172.445313 61.480469 171.507813 63.257813 L 171.441406 63.257813 C 171.441406 63.125 171.40625 63.023438 171.34375 62.960938 C 171.28125 62.890625 171.175781 62.859375 171.027344 62.859375 C 170.867188 62.859375 170.734375 62.894531 170.617188 62.976563 C 170.507813 63.054688 170.363281 63.15625 170.1875 63.28125 L 170.085938 63.28125 C 170.875 61.9375 171.6875 60.472656 172.519531 58.890625 C 173.347656 57.308594 173.792969 56.214844 173.851563 55.621094 C 173.851563 55.472656 173.816406 55.355469 173.746094 55.28125 C 173.667969 55.199219 173.566406 55.164063 173.441406 55.164063 C 173.167969 55.179688 172.796875 55.46875 172.328125 56.03125 C 171.863281 56.597656 171.34375 57.3125 170.773438 58.171875 C 170.203125 59.03125 169.644531 59.925781 169.097656 60.847656 C 168.554688 61.773438 168.074219 62.589844 167.65625 63.304688 L 167.621094 63.304688 C 167.605469 63.195313 167.566406 63.117188 167.5 63.0625 C 167.441406 63.011719 167.316406 62.988281 167.140625 62.988281 C 166.957031 62.988281 166.804688 63.015625 166.675781 63.074219 C 166.550781 63.136719 166.425781 63.210938 166.300781 63.304688 L 166.183594 63.304688 C 167.21875 61.703125 168.15625 60.144531 168.996094 58.625 C 169.839844 57.113281 170.285156 56.089844 170.328125 55.554688 C 170.328125 55.414063 170.292969 55.300781 170.210938 55.21875 C 170.136719 55.132813 170.027344 55.09375 169.894531 55.09375 C 169.828125 55.09375 169.738281 55.125 169.636719 55.195313 C 169.53125 55.257813 169.429688 55.347656 169.320313 55.460938 C 168.761719 56.0625 168.359375 56.613281 168.117188 57.109375 C 167.871094 57.605469 167.683594 57.867188 167.550781 57.898438 C 167.519531 57.898438 167.492188 57.890625 167.476563 57.878906 C 167.464844 57.867188 167.457031 57.839844 167.457031 57.789063 C 167.5 57.613281 167.804688 57.113281 168.359375 56.296875 C 168.910156 55.476563 169.464844 55.015625 170.011719 54.90625 C 170.296875 54.929688 170.492188 55.066406 170.59375 55.3125 C 170.703125 55.5625 170.753906 55.800781 170.742188 56.035156 C 170.726563 56.636719 170.609375 57.210938 170.398438 57.761719 C 170.179688 58.316406 169.960938 58.890625 169.730469 59.488281 C 170.21875 58.734375 170.835938 57.8125 171.59375 56.726563 C 172.34375 55.636719 172.988281 55.039063 173.515625 54.929688 C 173.78125 54.9375 173.976563 55.058594 174.101563 55.289063 C 174.226563 55.519531 174.292969 55.792969 174.292969 56.109375 C 174.285156 56.5625 174.1875 57.074219 174.011719 57.644531 C 173.828125 58.210938 173.609375 58.851563 173.347656 59.558594 C 174.011719 58.601563 174.722656 57.613281 175.496094 56.589844 C 176.261719 55.570313 176.9375 55.015625 177.523438 54.929688 C 177.789063 54.929688 177.996094 55.042969 178.144531 55.261719 C 178.292969 55.488281 178.371094 55.808594 178.371094 56.226563 C 178.355469 56.792969 178.207031 57.359375 177.921875 57.925781 C 177.640625 58.492188 177.316406 59.050781 176.953125 59.605469 C 176.59375 60.15625 176.269531 60.65625 175.988281 61.113281 C 175.703125 61.566406 175.5625 61.964844 175.5625 62.300781 C 175.570313 62.578125 175.640625 62.769531 175.765625 62.882813 C 175.890625 63 176.027344 63.054688 176.167969 63.054688 C 176.316406 63.046875 176.453125 63 176.578125 62.90625 C 176.707031 62.816406 176.808594 62.730469 176.894531 62.640625 C 177.382813 62.117188 177.738281 61.636719 177.96875 61.191406 C 178.199219 60.753906 178.355469 60.519531 178.441406 60.5 C 178.472656 60.5 178.496094 60.507813 178.511719 60.519531 C 178.527344 60.539063 178.535156 60.5625 178.535156 60.59375 C 178.503906 60.800781 178.230469 61.257813 177.71875 61.96875 C 177.207031 62.6875 176.667969 63.09375 176.09375 63.183594 C 175.773438 63.167969 175.511719 63.007813 175.304688 62.703125 C 175.101563 62.394531 174.996094 61.988281 174.988281 61.488281 C 174.988281 60.96875 175.128906 60.414063 175.410156 59.820313 C 175.695313 59.226563 176.019531 58.644531 176.375 58.070313 C 176.738281 57.496094 177.0625 56.976563 177.355469 56.507813 C 177.648438 56.039063 177.800781 55.699219 177.816406 55.476563 "/>
</g>
</svg>
