<svg xmlns="http://www.w3.org/2000/svg" xmlns:xlink="http://www.w3.org/1999/xlink" width="76" height="83" viewBox="0 0 76 83">
    <defs>
        <rect id="b" width="68" height="68" rx="2"/>
        <filter id="a" width="141.2%" height="141.2%" x="-20.6%" y="-14.7%" filterUnits="objectBoundingBox">
            <feOffset dy="4" in="SourceAlpha" result="shadowOffsetOuter1"/>
            <feGaussianBlur in="shadowOffsetOuter1" result="shadowBlurOuter1" stdDeviation="4"/>
            <feColorMatrix in="shadowBlurOuter1" values="0 0 0 0 0.760784314 0 0 0 0 0.764705882 0 0 0 0 0.850980392 0 0 0 1 0"/>
        </filter>
    </defs>
    <g fill="none" fill-rule="evenodd">
        <g transform="translate(0 3.5)">
            <use fill="#000" filter="url(#a)" xlink:href="#b"/>
            <use fill="#FBFEFF" xlink:href="#b"/>
        </g>
        <path fill="#6E70A6" fill-rule="nonzero" d="M50.628 47.53a.484.484 0 0 1-.293-.098l-6.506-4.975a1.315 1.315 0 0 0-.796-.268h-1.686a.476.476 0 0 1-.48-.474c0-.262.215-.473.48-.473h1.686c.497 0 .988.165 1.382.466l5.734 4.384v-2.618c0-1.231 1.013-2.232 2.259-2.232h1.854c.717 0 1.3-.577 1.3-1.285v-15.53c0-.708-.583-1.285-1.3-1.285h-25.83c-.717 0-1.3.577-1.3 1.285v3.716a.476.476 0 0 1-.48.473.476.476 0 0 1-.478-.473v-3.716c0-1.23 1.013-2.232 2.258-2.232h25.83c1.246 0 2.259 1.001 2.259 2.232v15.53c0 1.23-1.013 2.232-2.259 2.232h-1.854c-.717 0-1.3.576-1.3 1.285v3.583a.472.472 0 0 1-.48.474zm-33.257 5.475a.478.478 0 0 1-.479-.474v-3.583c0-.708-.583-1.285-1.3-1.285h-1.828c-1.26 0-2.285-1.013-2.285-2.258V29.927c0-1.245 1.025-2.258 2.285-2.258h25.778c1.26 0 2.284 1.013 2.284 2.258v15.478c0 1.245-1.025 2.258-2.284 2.258H24.967c-.286 0-.57.095-.796.269l-6.506 4.974a.484.484 0 0 1-.294.099zm-3.607-24.389a1.32 1.32 0 0 0-1.326 1.31v15.48c0 .722.594 1.31 1.326 1.31h1.828c1.246 0 2.259 1.001 2.259 2.232v2.618l5.734-4.384a2.289 2.289 0 0 1 1.382-.466h14.575a1.32 1.32 0 0 0 1.326-1.31v-15.48a1.32 1.32 0 0 0-1.326-1.31H13.764z"/>
    </g>
</svg>
