<svg xmlns="http://www.w3.org/2000/svg" width="66" height="66" viewBox="0 0 66 66">
    <path fill="#6E70A6" fill-rule="nonzero" d="M58 50.8h-5.4v-1.4c0-.8.7-1.5 1.5-1.5h6.3c1.9 0 3.4-1.5 3.4-3.4V25.6c0-1.9-1.5-3.4-3.4-3.4h-7.1V4.6c0-1.9-1.6-3.5-3.5-3.5H4.5C2.6 1.1 1 2.7 1 4.6v35.5c0 1.9 1.6 3.5 3.5 3.5H21l-1.5 5h-2.4c-.5 0-1 .4-1 1 0 .5.4 1 1 1H37c.5 0 1-.4 1-1 0-.5-.4-1-1-1h-2.4l-1.5-5h16.5c1.9 0 3.5-1.6 3.5-3.5v-16h7.1c.8 0 1.5.7 1.5 1.5v18.9c0 .8-.7 1.5-1.5 1.5H54c-1.9 0-3.4 1.5-3.4 3.4v1.4h-6.4c-3.9 0-7 3.2-7 7 0 3.9 3.2 7 7 7 2.6 0 4.9-1.4 6.2-3.7h1.5c1.2 2.2 3.6 3.7 6.2 3.7 3.9 0 7-3.2 7-7-.1-3.8-3.3-7-7.1-7zM4.5 3h45.2c.9 0 1.6.7 1.6 1.6v28.6H2.9V4.6c0-.9.7-1.6 1.6-1.6zm28.1 45.6h-11l1.5-5h8.1l1.4 5zm17.1-6.9H4.5c-.9 0-1.6-.7-1.6-1.6v-5h48.3v5c0 .9-.7 1.6-1.5 1.6zM58 63c-2 0-3.9-1.2-4.7-3.1-.2-.4-.5-.6-.9-.6h-2.7c-.4 0-.7.2-.9.6-.8 1.8-2.6 3.1-4.6 3.1-2.8 0-5.1-2.3-5.1-5.1s2.3-5.1 5.1-5.1H58c2.8 0 5.1 2.3 5.1 5.1S60.8 63 58 63zm-12-6.1h-.8v-.8c0-.5-.4-1-1-1-.5 0-1 .4-1 1v.8h-.8c-.5 0-1 .4-1 1 0 .5.4 1 1 1h.8v.8c0 .5.4 1 1 1 .5 0 1-.4 1-1v-.8h.8c.5 0 1-.4 1-1s-.4-1-1-1zm13.8 0H59v-.8c0-.5-.4-1-1-1-.5 0-1 .4-1 1v.8h-.8c-.5 0-1 .4-1 1 0 .5.4 1 1 1h.8v.8c0 .5.4 1 1 1 .5 0 1-.4 1-1v-.8h.8c.5 0 1-.4 1-1s-.5-1-1-1zm-36-27c4.3 0 8-2.4 9.8-5.9.3-.5.1-1.1-.4-1.3l-7.4-3.9 7.4-3.9c.5-.3.6-.8.4-1.3-1.9-3.5-5.5-5.9-9.8-5.9-9.9 0-14.9 12-7.9 19 2.1 2.1 4.9 3.2 7.9 3.2zm0-20.3c3.2 0 6 1.6 7.6 4.1L23.3 18c-.7.4-.7 1.3 0 1.7l8.1 4.3c-1.7 2.5-4.5 4.1-7.6 4.1-2.5 0-4.8-1-6.5-2.7-5.8-5.9-1.7-15.8 6.5-15.8zm7.4 8.5c-.4.4-.4 1 0 1.4.4.4 1 .4 1.4 0 .4-.4.4-1 0-1.4-.4-.4-1-.4-1.4 0zm5.7 1.4c.4-.4.4-1 0-1.4-.4-.4-1-.4-1.4 0-.4.3-.4 1 0 1.4.4.3 1 .4 1.4 0zm4.4 0c.4-.4.4-1 0-1.4-.4-.4-1-.4-1.4 0-.4.4-.4 1 0 1.4.4.4 1 .3 1.4 0z"/>
</svg>
