<svg xmlns="http://www.w3.org/2000/svg" width="164" height="60" viewBox="0 0 164 60">
    <g fill="none" fill-rule="evenodd">
        <g fill="#444C63">
            <path d="M94.31 31.295C93.77 37.052 89.497 41 83.817 41 76.921 41 73 35.791 73 30.418 73 24.825 77.192 20 83.817 20c4.138 0 7.626 1.947 9.303 5.73h-2.38c-1.947-3.619-5.679-3.893-6.923-3.893-6.3 0-8.816 5.044-8.816 8.608 0 4.113 3.3 8.718 8.897 8.718 3.354 0 6.87-2.084 8.005-6.031H80.734v-1.837H94.31M119.076 31.295c-.54 5.757-4.814 9.705-10.493 9.705-6.896 0-10.817-5.209-10.817-10.582 0-5.593 4.192-10.418 10.817-10.418 4.138 0 7.627 1.947 9.303 5.73h-2.38c-1.947-3.619-5.679-3.893-6.923-3.893-6.301 0-8.816 5.044-8.816 8.608 0 4.113 3.3 8.718 8.898 8.718 3.353 0 6.868-2.084 8.004-6.031H105.5v-1.837h13.576M121.956 20.583h2.076l4.88 17.796 4.771-17.796h1.887l4.772 17.796 4.88-17.796h2.075L141.637 41h-2.616l-4.395-16.72L130.232 41h-2.615l-5.661-20.417M152.757 30.957h4.362c3.576 0 4.876-2.124 4.876-4.249 0-2.179-1.3-4.276-4.876-4.276h-4.362v8.525zm-2.004-10.374h6.34c5.878 0 6.907 3.808 6.907 6.125 0 3.035-1.842 6.098-6.908 6.098h-4.335V41h-2.004V20.583z"/>
        </g>
        <path fill="#2D4C8E" d="M50.846 29.947v-.14l-.12.07-.007.004.12.07.05.027 7.17 4.075a9.3 9.3 0 0 0-.08-8.285l-7.133 4.179"/>
        <path stroke="#2C4D8D" stroke-width=".5" d="M50.846 29.947v-.14l-.12.07-.007.004.12.07.05.027 7.17 4.075a9.3 9.3 0 0 0-.08-8.285l-7.133 4.179z"/>
        <path fill="#502E57" d="M40.425 12.122l2.875-1.66-2.884-2.884.009 4.544"/>
        <path stroke="#502E57" stroke-width=".5" d="M40.425 12.122l2.875-1.66-2.884-2.884z"/>
        <path fill="#843A7F" d="M50.718 17.88L43.3 10.463l-2.875 1.66v.038l10.294 5.918.012.008.121-.072-.134-.133"/>
        <path stroke="#843A7E" stroke-width=".5" d="M50.718 17.88L43.3 10.463l-2.875 1.66v.038l10.294 5.918.012.008.121-.072z"/>
        <path fill="#8F4481" d="M40.535 23.994l.005.003v.06l.052-.03 10.256-5.892-10.448-5.99v.058l.025-.013.11 11.804"/>
        <path stroke="#8F457F" stroke-width=".5" d="M40.535 23.994l.005.003v.06l.052-.03 10.256-5.892-10.448-5.99v.058l.025-.013z"/>
        <path fill="#DF5436" d="M19.644 24.085l-9.842-5.682-.275.158-.264 11.431.045-.026v.114l10.336-5.986v-.01"/>
        <path stroke="#DE5636" stroke-width=".5" d="M19.644 24.085l-9.842-5.682-.275.158-.264 11.431.045-.026v.114l10.336-5.986z"/>
        <path fill="#DC442C" d="M19.781 7.539l-2.986 2.986 2.905 1.677.081-4.663"/>
        <path stroke="#DA472E" stroke-width=".5" d="M19.781 7.539l-2.986 2.986 2.905 1.677z"/>
        <path fill="#E05738" d="M9.542 17.901v.125l10.11-5.836.048.027v-.015l-2.905-1.677L9.54 17.78l.001.122h.001"/>
        <path stroke="#DD5838" stroke-width=".5" d="M9.542 17.901v.125l10.11-5.836.048.027v-.015l-2.905-1.677L9.54 17.78l.001.122z"/>
        <path fill="#E05738" d="M9.551 18.255l.002.15-.02-.01-.006.259.358-.207-.334-.192"/>
        <path fill="#9D3144" d="M19.7 12.217l.056.032 10.22-5.972-.022-.013.06-.034v-.056L24.5 2.944a9.19 9.19 0 0 0-.946.822l-3.773 3.773-.08 4.663-.001.015"/>
        <path stroke="#9D3144" stroke-width=".5" d="M19.7 12.217l.056.032 10.22-5.972-.022-.013.06-.034v-.056L24.5 2.944a9.19 9.19 0 0 0-.946.822l-3.773 3.773-.08 4.663-.001.015z"/>
        <path fill="#7F377B" d="M30.014 18.035l.054-.032v.016l10.265-5.809-10.186-5.835-.133 11.66"/>
        <path stroke="#80377A" stroke-width=".5" d="M30.014 18.035l.054-.032v.016l10.265-5.809-10.186-5.835z"/>
        <path fill="#E98335" d="M19.729 36.212l-.034.02-10.386-6.096.058 11.767 10.362-5.653v-.038"/>
        <path stroke="#E68437" stroke-width=".5" d="M19.729 36.212l-.034.02-10.386-6.096.058 11.767 10.362-5.653z"/>
        <path fill="#444A89" d="M40.592 24.027l10.388 5.995-.173-11.87-10.215 5.875"/>
        <path stroke="#434A89" stroke-width=".5" d="M40.592 24.027l10.388 5.995-.173-11.87z"/>
        <path fill="#3D3E81" d="M50.884 41.691l.018.01.516-.3 4.886-4.886a9.141 9.141 0 0 0 1.754-2.462l-7.17-4.075-.004 11.713"/>
        <path stroke="#3C3F7F" stroke-width=".5" d="M50.884 41.691l.018.01.516-.3 4.886-4.886a9.141 9.141 0 0 0 1.754-2.462l-7.17-4.075-.004 11.713z"/>
        <path fill="#0092A4" d="M50.936 41.777v.139l.087-.088-.087-.051M50.907 41.705l-.023-.014v.027l.023-.013"/>
        <path fill="#6B356F" d="M30.15 6.186l-.003.189 10.235 5.839.019-.01v-.059l.024.015v-.038l-.01-4.544-3.812-3.812a9.2 9.2 0 0 0-.903-.79l-5.55 3.21"/>
        <path stroke="#6B356F" stroke-width=".5" d="M30.15 6.186l-.003.189 10.235 5.839.019-.01v-.059l.024.015v-.038l-.01-4.544-3.812-3.812a9.2 9.2 0 0 0-.903-.79l-5.55 3.21z"/>
        <path fill="#6B356F" d="M30.032 6.23l-.078.045.03.017.047-.028V6.23"/>
        <path fill="#A63783" d="M30.082 6.213l-.068-.04v.083l.135-.08v.01l5.55-3.21a9.214 9.214 0 0 0-5.555-1.9l-.062 5.137"/>
        <path stroke="#A53781" stroke-width=".5" d="M30.082 6.213l-.068-.04v.083l.135-.08v.01l5.55-3.21a9.214 9.214 0 0 0-5.555-1.9l-.062 5.137z"/>
        <path fill="#E46D2D" d="M9.541 17.902v.035l.002-.036-.002.001"/>
        <path fill="#CF5631" d="M19.668 24.099l-.016.01.043 12.123.034-.02v-.116l10.26-5.946L19.67 24.1"/>
        <path stroke="#CF5532" stroke-width=".5" d="M19.668 24.099l-.016.01.043 12.123.034-.02v-.116l10.26-5.946z"/>
        <path fill="#CF5631" d="M19.644 24.096l.01-.005-.01-.006v.011"/>
        <path fill="#E06737" d="M19.695 36.232l-.043-12.143-.008.005L9.31 30.08v.056l10.386 6.096"/>
        <path stroke="#DD6937" stroke-width=".5" d="M19.695 36.232l-.043-12.143-.008.005L9.31 30.08v.056z"/>
        <path fill="#86B046" d="M19.76 36.318l.05 11.351.006-.004.038.022 10.164-5.683-10.259-5.686"/>
        <path stroke="#86AF47" stroke-width=".5" d="M19.76 36.318l.05 11.351.006-.004.038.022 10.164-5.683z"/>
        <path fill="#007C89" d="M40.54 35.897l-.047 11.86 10.384-6.008-10.337-5.852"/>
        <path stroke="#007C89" stroke-width=".5" d="M40.54 35.897l-.047 11.86 10.384-6.008z"/>
        <path fill="#13A8A7" d="M30.091 42.077L40.49 47.76l.004-.003.047-11.86-10.449 6.181"/>
        <path stroke="#16A9A6" stroke-width=".5" d="M30.091 42.077L40.49 47.76l.004-.003.047-11.86z"/>
        <path fill="#1C4267" d="M50.884 41.712v-.02l.005-11.714-.05-.028-10.299 5.947 10.337 5.852.005-.003-.028-.017.03-.017"/>
        <path stroke="#1D4267" stroke-width=".5" d="M50.884 41.712v-.02l.005-11.714-.05-.028-10.299 5.947 10.337 5.852.005-.003-.028-.017z"/>
        <path fill="#006E8B" d="M50.882 41.746l-.005.003-10.258 6.03 2.778 1.643 7.538-7.539v-.106l-.053-.031"/>
        <path stroke="#006E8B" stroke-width=".5" d="M50.882 41.746l-.005.003-10.258 6.03 2.778 1.643 7.538-7.539v-.106z"/>
        <path fill="#00788B" d="M40.54 24.057v11.84l10.3-5.947-.121-.07.006-.003-10.133-5.85-.052.03"/>
        <path stroke="#00788B" stroke-width=".5" d="M40.54 24.057v11.84l10.3-5.947-.121-.07.006-.003-10.133-5.85z"/>
        <path fill="#00748E" d="M30.072 30.207l-.016 11.85.035.02 10.449-6.18-10.468-5.69"/>
        <path stroke="#00748E" stroke-width=".5" d="M30.072 30.207l-.016 11.85.035.02 10.449-6.18z"/>
        <path fill="#9C498B" d="M30.069 18.13l10.466 5.864-.097-11.803-10.37 5.828v.11"/>
        <path stroke="#9C4988" stroke-width=".5" d="M30.069 18.13l10.466 5.864-.097-11.803-10.37 5.828z"/>
        <path fill="#A2629A" d="M30.056 30.127l10.398-6.131-10.411-5.866.013 11.997"/>
        <path stroke="#A26298" stroke-width=".5" d="M30.056 30.127l10.398-6.131-10.411-5.866z"/>
        <path fill="#7C2535" d="M29.959 18.067l.055-.032.135-11.85v-.008l-.136.08-.036.02-10.221 5.972 10.203 5.818"/>
        <path stroke="#7C2435" stroke-width=".5" d="M29.959 18.067l.055-.032.135-11.85v-.008l-.136.08-.036.02-10.221 5.972z"/>
        <path fill="#D04531" d="M19.644 24.085l.008.004-.089-11.84-10.02 5.777.002.229 10.1 5.83"/>
        <path stroke="#D04732" stroke-width=".5" d="M19.644 24.085l.008.004-.089-11.84-10.02 5.777.002.229z"/>
        <path fill="#328B95" d="M40.54 24.057v-.06l-10.458 6.128v.08l-.01-.006v.008l10.468 5.69v-11.84"/>
        <path stroke="#2F8B95" stroke-width=".5" d="M40.54 24.057v-.06l-10.458 6.128v.08l-.01-.006v.008l10.468 5.69z"/>
        <path fill="#363459" d="M50.884 41.712l-.03.017.028.017.053.03.068.04.415-.415-.516.3-.018.01"/>
        <path stroke="#363559" stroke-width=".5" d="M50.884 41.712l-.03.017.028.017.053.03.068.04.415-.415-.516.3z"/>
        <path fill="#DE502D" d="M9.307 41.935l.06-.032-.059-11.937-.045.026-.058.034.056.033-7.108 4.103c.429.85.994 1.646 1.7 2.353l5.38 5.378.028.016.046.026"/>
        <path stroke="#DD522F" stroke-width=".5" d="M9.307 41.935l.06-.032-.059-11.937-.045.026-.058.034.056.033-7.108 4.103c.429.85.994 1.646 1.7 2.353l5.38 5.378.028.016.046.026z"/>
        <path fill="#E36A2E" d="M9.545 18.255l-.005-.475-5.686 5.686A9.142 9.142 0 0 0 2.1 25.925l7.104 4.101.058-.034.269-11.63.015.009-.002-.116"/>
        <path stroke="#E27030" stroke-width=".5" d="M9.545 18.255l-.005-.475-5.686 5.686A9.142 9.142 0 0 0 2.1 25.925l7.104 4.101.058-.034.269-11.63.015.009-.002-.116z"/>
        <path fill="#DC442C" d="M30.157 6.253l-.013-5.177A9.22 9.22 0 0 0 24.5 2.944l5.657 3.31"/>
        <path stroke="#DA472E" stroke-width=".5" d="M30.157 6.253l-.013-5.177A9.22 9.22 0 0 0 24.5 2.944l5.657 3.31z"/>
        <path fill="#E15E2B" d="M9.26 30.059l-7.159-4.134a9.3 9.3 0 0 0 .052 8.237l7.108-4.103"/>
        <path stroke="#E0612F" stroke-width=".5" d="M9.26 30.059l-7.159-4.134a9.3 9.3 0 0 0 .052 8.237l7.108-4.103z"/>
        <path fill="#DD452C" d="M9.232 41.893l.028.028.01-.007-.038-.02"/>
        <path fill="#B4312E" d="M19.68 23.947l10.279-5.88-10.291-5.91.013 11.79"/>
        <path stroke="#B4312E" stroke-width=".5" d="M19.68 23.947l10.279-5.88-10.291-5.91z"/>
        <path fill="#B4312E" d="M19.652 24.09v.025l.021-.013-.021-.013"/>
        <path fill="#D03B35" d="M19.668 24.099L29.99 30.15l.082-.048v.097l.01.005v-.079l-.013-11.996v-.126l-.055.032-.055.032-10.307 6.022.016.01"/>
        <path stroke="#D13B35" stroke-width=".5" d="M19.668 24.099L29.99 30.15l.082-.048v.097l.01.005v-.079l-.013-11.996v-.126l-.055.032-.055.032-10.307 6.022z"/>
        <path fill="#8BBC4A" d="M9.253 41.916l.01.01v-.017l-.01.007"/>
        <path fill="#479744" d="M19.67 47.743l.087.047v-.098l-.008.004-.079.047"/>
        <path fill="#4A386F" d="M50.823 30.022l7.157-4.254a9.144 9.144 0 0 0-1.676-2.302l-5.452-5.452-.029 12.008"/>
        <path stroke="#4B386F" stroke-width=".5" d="M50.823 30.022l7.157-4.254a9.144 9.144 0 0 0-1.676-2.302l-5.452-5.452-.029 12.008z"/>
        <path fill="#1B3B4B" d="M40.53 52.288l2.867-2.866-2.89-1.65.024 4.516"/>
        <path stroke="#233B47" stroke-width=".5" d="M40.53 52.288l2.867-2.866-2.89-1.65z"/>
        <path fill="#005F7F" d="M40.484 47.841l-10.307 5.746 5.611 3.35c.282-.223.555-.461.815-.722l3.928-3.927-.047-4.447"/>
        <path stroke="#005F7F" stroke-width=".5" d="M40.484 47.841l-10.307 5.746 5.611 3.35c.282-.223.555-.461.815-.722l3.928-3.927-.047-4.447z"/>
        <path fill="#00929F" d="M30.091 42.077l-.035-.02-.022-.011v.04l-.027 11.534 10.5-5.851-.018-.01-10.398-5.682"/>
        <path stroke="#00919F" stroke-width=".5" d="M30.091 42.077l-.035-.02-.022-.011v.04l-.027 11.534 10.5-5.851-.018-.01z"/>
        <path fill="#8CBC4E" d="M19.73 47.695l.04-11.468-.041.023-10.422 5.685 10.363 5.796.06-.036"/>
        <path stroke="#8DBC4E" stroke-width=".5" d="M19.73 47.695l.04-11.468-.041.023-10.422 5.685 10.363 5.796z"/>
        <path fill="#4EA946" d="M19.736 47.769h.001v-.002l-.067-.036-10.41-5.81 7.54 7.54 2.936-1.692"/>
        <path stroke="#50A849" stroke-width=".5" d="M19.736 47.769h.001v-.002l-.067-.036-10.41-5.81 7.54 7.54z"/>
        <path fill="#4EA846" d="M19.776 47.714l10.23 5.906-.035-11.538-10.195 5.632"/>
        <path stroke="#50A749" d="M19.776 47.714l10.23 5.906-.035-11.538z"/>
        <path fill="#007692" d="M30.236 53.737l-.13 5.17a9.215 9.215 0 0 0 5.682-1.97l-5.552-3.2"/>
        <path stroke="#007692" stroke-width=".5" d="M30.236 53.737l-.13 5.17a9.215 9.215 0 0 0 5.682-1.97l-5.552-3.2z"/>
        <path fill="#72AF4C" d="M30.072 30.199v-.097l-.082.048-10.261 6.1 10.327 5.808.016-11.851v-.008"/>
        <path stroke="#72AF4D" stroke-width=".5" d="M30.072 30.199v-.097l-.082.048-10.261 6.1 10.327 5.808.016-11.851z"/>
        <path fill="#FFFFFE" d="M13.716 35.594h1.863v-9.005h-1.863z"/>
        <path fill="#FFFFFE" d="M10.146 32.023h9.004V30.16h-9.004zM46.838 27.782a1.463 1.463 0 1 1-2.926 0 1.463 1.463 0 0 1 2.926 0M46.838 34.131a1.463 1.463 0 1 1-2.926 0 1.463 1.463 0 0 1 2.926 0M42.2 29.544a1.463 1.463 0 1 1 0 2.927 1.463 1.463 0 0 1 0-2.927M48.55 29.544a1.463 1.463 0 1 1 0 2.927 1.463 1.463 0 0 1 0-2.927M34.629 28.832c-.133-.01-.228-.021-.322-.022-1.034-.001-2.069-.004-3.103 0-.737.004-1.275.52-1.26 1.196.013.667.538 1.15 1.265 1.154 1.035.005 2.069.003 3.103 0 .103 0 .205-.018.317-.03v-2.298zm.008 6.939c0-.714-.004-1.4.002-2.086.003-.27-.183-.233-.348-.234-1.048 0-2.097.004-3.146-.002-1.67-.01-3.011-1.079-3.398-2.7-.503-2.112 1.127-4.205 3.302-4.226 1.145-.011 2.29-.006 3.435-.001 1.36.006 2.429 1.02 2.443 2.383.024 2.302.02 4.605 0 6.907-.01 1.305-1.004 2.271-2.308 2.28-1.302.01-2.605.035-3.906-.013-3.586-.131-6.694-2.738-7.492-6.241-1.036-4.55 1.845-8.962 6.436-9.84a7.397 7.397 0 0 1 1.329-.117c1.856-.012 3.713-.005 5.57-.003.117 0 .234.011.35.017-.003 1.146-.877 2.157-1.995 2.218-1.166.063-2.338.03-3.507.032-.862.003-1.702.114-2.505.451-2.456 1.03-3.844 3.491-3.572 5.922.314 2.815 2.315 4.937 5.017 5.226 1.403.15 2.835.027 4.293.027z"/>
        <path fill="#50AB46" d="M24.383 56.946a9.216 9.216 0 0 0 5.723 1.96l-.014-5.28-5.71 3.32"/>
        <path stroke="#53AA4A" stroke-width=".5" d="M24.383 56.946a9.216 9.216 0 0 0 5.723 1.96l-.014-5.28-5.71 3.32z"/>
        <path fill="#3A7F40" d="M30.007 53.627l-10.231-5.913-.104 4.625 3.882 3.883c.264.264.542.506.829.731l5.624-3.326"/>
        <path stroke="#3B7E41" stroke-width=".5" d="M30.007 53.627l-10.231-5.913-.104 4.625 3.882 3.883c.264.264.542.506.829.731l5.624-3.326z"/>
        <path fill="#479744" d="M19.76 47.552l-2.96 1.91 2.872 2.87.087-4.78"/>
        <path stroke="#4A9647" stroke-width=".5" d="M19.76 47.552l-2.96 1.91 2.872 2.87z"/>
    </g>
</svg>
