<svg xmlns="http://www.w3.org/2000/svg" width="66" height="66" viewBox="0 0 66 66">
    <path fill="#6E70A6" fill-rule="nonzero" d="M52.844 3c-.207 0-.434.127-.69.381L52 3.915l.153.61.153.153.54.152.686-.152.079-.153.075-.61-.154-.534c-.255-.254-.485-.381-.688-.381zm1.26-.427c.309.344.46.764.46 1.26 0 .498-.131.937-.402 1.318h-.058a1.916 1.916 0 0 1-1.321.516c-.46 0-.863-.172-1.209-.516h-.059C51.173 4.807 51 4.37 51 3.833c0-.496.173-.916.516-1.26.385-.382.807-.573 1.268-.573.42 0 .863.191 1.32.573zM59.72 15.53c.321.33.481.706.481 1.13 0 .424-.16.8-.481 1.13-.344.353-.734.53-1.17.53-.414 0-.78-.177-1.102-.53A1.556 1.556 0 0 1 57 16.66c0-.447.15-.824.447-1.13.322-.353.688-.53 1.101-.53.437 0 .827.177 1.171.53zM42.562 4.705c1.545.78 2.975 1.837 4.29 3.17 3.413 3.376 5.117 7.464 5.117 12.265 0 .758-.08 1.666-.242 2.722-.046.299-.219.448-.519.448h-.414c-.53 3.469-2.087 6.465-4.67 8.992l-.76.793-1.211.896c3.573 2.182 5.488 3.364 5.74 3.548 2.17 1.678 3.253 3.584 3.253 5.72 0 1.309-.532 2.365-1.592 3.17-.969.757-2.086 1.136-3.355 1.136-.9 0-2.086-.229-3.563-.689.186 3.813.3 6.592.346 8.338l.036 7.752h10.618c.346 0 .519.173.519.517a.593.593 0 0 1-.138.38.603.603 0 0 1-.381.137H17.07c-.346 0-.519-.172-.519-.517 0-.344.173-.517.519-.517h7.16c-.023-2.205 0-4.789.069-7.752.024-2.32.116-4.961.276-7.924-1.198.344-2.202.517-3.009.517-1.268 0-2.385-.357-3.355-1.068-1.083-.85-1.625-1.94-1.625-3.274 0-2.136 1.083-4.019 3.25-5.65.3-.23 2.156-1.39 5.57-3.48l-1.523-1.171-.104-.104-.173-.138-.62-.654c-2.353-2.366-3.828-5.088-4.428-8.166L18.005 24c-.23-.046-.369-.172-.415-.38-.231-1.055-.346-2.216-.346-3.479 0-4.824 1.694-8.912 5.084-12.266 3.367-3.353 7.46-5.03 12.279-5.03 2.12 0 4.081.321 5.88.965l-.45-1.103c-.07-.115-.07-.24 0-.379a.419.419 0 0 1 .277-.275c.116-.07.242-.07.38 0a.416.416 0 0 1 .278.275l.725 1.689 2.767-1.55c.323-.161.565-.093.727.206.16.321.092.562-.208.723l-2.421 1.31zm-1.666.881c-1.915-.806-4.017-1.208-6.307-1.208-4.335 0-8.011 1.452-11.026 4.357-3.038 2.926-4.556 6.478-4.556 10.655 0 .997.077 1.887.23 2.671l.53.096c8.232 1.06 14.758-1.697 19.578-8.27l.923-1.272c.199-.275.43-.318.694-.127.264.19.308.414.131.668l-.791 1.113c.99 4.156 3.444 6.488 7.362 6.997.572.064 1.211.096 1.915.096h.428c.11-.721.165-1.379.165-1.972 0-4.135-1.518-7.686-4.555-10.655-1.453-1.4-3.015-2.449-4.69-3.149h-.031zm4.467 25.672c2.422-2.269 3.874-4.896 4.358-7.884l-1.557-.131c-4.288-.568-7.078-2.945-8.37-7.132-5.142 6.325-11.863 9.04-20.164 8.146.622 2.617 1.995 4.94 4.116 6.968l.484.49 1.246.95.069.065c.46.338.796.556 1.073.687l.102.065.9.458.07.066.172.098.139.033 1.349.556.587.163.277.131c3.01.741 5.961.72 8.89-.065l2.213-.85.692-.393c.392-.175.703-.35.934-.524l1.799-1.276.621-.621zm13.423-13.976c.15-.186.224-.362.224-.53a.786.786 0 0 0-.224-.53c-.186-.148-.372-.222-.56-.222-.167 0-.343.074-.53.223-.13.13-.196.306-.196.53 0 .204.065.38.196.529.187.149.363.223.53.223.188 0 .374-.074.56-.223zm-1.984 13.41v1.054h1.067c.111 0 .192.057.247.17.11.027.164.111.164.252 0 .113-.054.211-.164.296-.027.084-.109.126-.247.126h-1.067v1.14c0 .084-.042.196-.124.337a.693.693 0 0 1-.287.043 1.05 1.05 0 0 1-.329-.043l-.082-.337v-1.14h-1.11c-.137 0-.22-.042-.247-.126-.109-.112-.163-.211-.163-.296 0-.112.054-.196.163-.253.055-.112.137-.169.248-.169h1.11v-1.055l.081-.337a.571.571 0 0 1 .329-.084c.136 0 .232.027.287.084.028.084.07.197.124.337zm-8.308 12.04l-3.715-2.013c-.252.582-.736 1.398-1.45 2.45l-1.165 1.476 1.763.738h.032c.21.044.389.112.536.201 1.301.425 2.331.638 3.086.638a3.78 3.78 0 0 0 2.457-.873c.734-.604 1.102-1.375 1.102-2.315 0-1.745-.86-3.333-2.582-4.765l-5.481-3.624-1.355.84-.44.2.22.034a.52.52 0 0 1 .348.134l.125.034 1.165.704.442.437c.336.313.671.66 1.008 1.04.399.559.567 1.13.504 1.711l3.81 2.047c.295.156.369.38.221.671-.147.314-.358.391-.631.235zm5.136 7.21l.139.139c.53.321 2.098.563 4.703.723h1.038c.069-.023.116-.172.139-.448-.254-.23-1.384-.448-3.39-.654l-2.56-.104-.07.345zm-.173-1.033l2.836.138c1.592.138 2.688.333 3.286.586.508.184.75.436.727.758 0 .39-.104.689-.31.895l1.14 2.93c.576 1.63.864 2.744.864 3.341 0 .436-.252.77-.76 1-.484.298-1.245.356-2.283.172-.139.436-.29.723-.45.86-.208.208-.646.311-1.314.311-2.052-.322-3.54-.69-4.461-1.103-.923-.436-1.384-.942-1.384-1.516 0-.344.288-1.504.865-3.48l.967-3.341c-.184-.161-.275-.333-.275-.517l.034-.07c0-.137.058-.378.173-.723.045-.206.16-.286.345-.24zm3.908-4.41c-.069-.115-.15-.172-.242-.172-.115 0-.208.057-.277.172-.092.092-.137.16-.137.207 0 .091.045.184.137.275v.07l.277.068.242-.069.07-.069.069-.275c-.001-.07-.047-.138-.139-.207zm-1.037 1c-.209-.3-.31-.564-.31-.793 0-.184.101-.425.31-.724.276-.23.541-.344.795-.344s.496.115.726.344c.23.276.346.517.346.724 0 .298-.103.562-.31.792h-.036a.994.994 0 0 1-.726.31c-.254 0-.508-.103-.76-.31h-.035zM40.24 37.133c-.249.155-.488.4-.716.734l-.115.234-1.518 2.17-.028.1-.372.969-.114.434-.058.434c0 .334.02.579.058.735v.066l.028.1c.096.268.268.501.516.702l.057.033a2.5 2.5 0 0 0 .487.468c.668.422 1.145.634 1.431.634l.259-.067.314-.2.345-.367 1.002-1.47c.821-1.29 1.278-2.181 1.373-2.67l.086-.235c0-.334-.105-.656-.314-.968-.21-.29-.478-.59-.802-.902l-.344-.367-.458-.3a17.614 17.614 0 0 1-.46-.3l-.17-.101-.2.033-.287.1zm-1.497.614l-.028.029c-.095.018-.18.047-.256.084l-3.55 2.887a.273.273 0 0 1-.2.085l-.17-.085-3.38-2.887a.319.319 0 0 1-.142-.028h-.113c.188.113.397.32.625.623l1.278 1.697.312.312.058.085.454 1.047.17.792.995 1.386 1.448-2.009.085-.367c.133-.378.256-.651.37-.821l.085-.226.057-.085 1.505-1.84.057-.113.057-.085c.152-.207.331-.396.54-.566l-.257.085zm-1.093-.863a19.317 19.317 0 0 1-6.088 0l3.01 2.48 3.078-2.48zm-.635 7.717a2.299 2.299 0 0 1-.886-1.274v-.035l-.031-.138-1.203 1.757c-.105.161-.232.242-.38.242-.17 0-.306-.081-.411-.242l-.824-1.24c-.168.505-.453.896-.855 1.172l-.728.516c-.885.598-1.582.896-2.088.896l-.159-.034-.127-.07a.578.578 0 0 1-.316-.103l-.285-.137c-.274.137-1.044.47-2.31.999l-.126.034A195.817 195.817 0 0 0 26 54.732h17c-.065-2.986-.17-5.72-.317-8.2-.928-.367-1.572-.655-1.931-.862l-.284.138a.537.537 0 0 1-.35.104l-.125.069-.127.034c-.527 0-1.246-.3-2.153-.896a4.381 4.381 0 0 1-.698-.517zm-1.025 3.101c0 .391-.15.713-.45.965-.229.23-.53.345-.898.345-.391 0-.715-.116-.968-.345-.254-.253-.382-.574-.382-.965 0-.39.14-.712.417-.964.23-.23.53-.345.898-.345.392 0 .715.115.969.345.276.275.414.597.414.964zm-1.349-.654a.557.557 0 0 0-.45.206c-.137.092-.207.242-.207.448 0 .207.058.357.172.448.14.138.3.207.485.207.16-.023.3-.092.415-.207.162-.091.243-.241.243-.448a.556.556 0 0 0-.207-.448.632.632 0 0 0-.45-.206zm1.35 4.961c0 .39-.15.713-.45.965a1.228 1.228 0 0 1-.899.379c-.346 0-.669-.126-.968-.38-.254-.252-.382-.573-.382-.964 0-.367.14-.677.417-.93.23-.253.542-.38.934-.38s.703.139.934.414c.275.23.413.529.413.896zm-2.007 0c0 .207.058.356.172.448.14.138.3.207.485.207.16-.023.3-.092.415-.207.162-.092.243-.241.243-.448 0-.16-.07-.298-.207-.413a.561.561 0 0 0-.45-.207c-.208 0-.358.057-.45.172a.556.556 0 0 0-.208.448zm2.006 7.49h-2.94v2.966h2.94V59.5zm1.64-.254h-.785v3.72H43l-.032-6.942H26.042c-.041 3.167-.053 5.48-.032 6.942h6.124v-3.72h-.691c-.314 0-.471-.166-.471-.498 0-.332.157-.498.47-.498h6.187c.314 0 .471.166.471.498a.593.593 0 0 1-.125.365.522.522 0 0 1-.345.133zm21.215-7.132c-2.453-.17-4.095-.44-4.93-.81l-.993 3.92c-.59 2.472-.882 3.836-.882 4.091 0 .909 1.839 1.72 5.518 2.43.563-.029.844-.1.844-.214.148-.085.27-.426.368-1.023l.11-.639c.124-.71.209-1.477.258-2.3V54.84c0-.113.037-.213.11-.298.073-.086.16-.114.258-.086.27 0 .38.143.332.427l-.038.894.074 1.79c-.025.682-.123 1.52-.293 2.514l-.038.213c.908.17 1.545.128 1.913-.128.294-.17.442-.34.442-.51 0-.74-.293-2.018-.883-3.836l-1.213-3.665-.957-.042zm.211.886c-.227 0-.342-.114-.342-.341v-.239c0-.227.115-.341.342-.341.229 0 .342.114.342.341v.239c0 .228-.113.341-.342.341zm-2.245.905l-2.663-.482c-.23-.047-.323-.173-.277-.38.047-.229.173-.32.381-.275l2.664.482c.208.046.3.173.276.38-.045.183-.15.275-.31.275h-.07zm.658 2.446h-.104l-3.7-.827c-.209-.045-.288-.184-.243-.413.046-.207.184-.287.415-.241l3.701.861c.231.046.31.172.242.379-.046.161-.15.241-.31.241zM33.085 6.694c.046.363-.104.571-.45.623-2.95.442-5.464 1.845-7.54 4.209-.875 1.013-1.567 2.013-2.075 3-.07.209-.219.312-.45.312a.315.315 0 0 1-.242-.117.62.62 0 0 1-.242-.35.475.475 0 0 1 .07-.43 14.977 14.977 0 0 1 2.214-3.194c2.259-2.598 4.98-4.118 8.162-4.56.322-.051.507.117.553.507zm-11.933 9.348c.114-.3.332-.415.654-.346.322.116.438.334.345.658l-.104.242c-.114.207-.274.31-.481.31l-.208-.068c-.298-.161-.378-.392-.241-.692l.035-.104zm-5.28-9.301c.459.46.688.987.688 1.58 0 .626-.23 1.169-.687 1.629-.49.494-1.046.74-1.667.74-.555 0-1.063-.246-1.52-.74C12.227 9.52 12 8.98 12 8.32c0-.625.228-1.152.685-1.58.458-.493.965-.74 1.521-.74.62 0 1.176.247 1.667.74zm-.84 1.801c0-.257-.115-.488-.346-.695a.869.869 0 0 0-.728-.347c-.23 0-.447.116-.651.347a.88.88 0 0 0-.307.695c0 .309.102.566.307.772.204.206.42.309.651.309a.986.986 0 0 0 .728-.309c.23-.231.346-.489.346-.772zM10.205 18v1.103h1.058c.142 0 .255.04.339.122l.084.286-.084.286c-.141.082-.254.123-.339.123h-1.058v1.103c0 .136-.056.218-.168.245-.056.109-.14.163-.255.163-.085 0-.182-.053-.296-.163-.085-.027-.127-.109-.127-.245v-1.103h-1.1a6.23 6.23 0 0 0-.338-.123l-.085-.286.085-.286a.468.468 0 0 1 .338-.122h1.1v-1.103c0-.136.043-.218.127-.245.114-.109.211-.164.296-.164.114 0 .198.054.255.164.112.028.168.11.168.245zm1.85 9.239c.392 0 .796.172 1.211.516.484.39.727.827.727 1.31 0 .16-.093.332-.276.516-.3.322-.934.816-1.903 1.482-1.452 1.057-2.479 1.585-3.079 1.585-.391 0-.794-.3-1.21-.896-.322-.46-.484-.815-.484-1.068 0-.574.807-1.31 2.421-2.205l2.422-1.24h.172zm.052-2.694c.882.048 1.928.7 3.143 1.957.5.498 1.095 1.186 1.786 2.063C19.01 31.22 20 33.094 20 34.185c0 .759-.714 1.755-2.143 2.989l-.68.605c-1.88 1.494-3.44 2.241-4.677 2.241-.239 0-.549-.178-.93-.534-.642-.569-1.69-1.766-3.142-3.593C6.143 33.023 5 31.043 5 29.952c0-.735.38-1.518 1.143-2.348l1-.783c1.428-1.02 3.047-1.779 4.856-2.277h.108zm-4.981 3.968c-.646.643-.969 1.229-.969 1.758 0 .895 1.06 2.664 3.182 5.305 1.915 2.412 3.056 3.664 3.425 3.756 1.038 0 2.398-.666 4.08-1.998l.658-.586c1.221-1.08 1.833-1.872 1.833-2.377 0-.919-.91-2.585-2.733-4.996-.623-.873-1.188-1.528-1.694-1.964-.992-1.057-1.833-1.62-2.525-1.688a13.932 13.932 0 0 0-4.427 2.067 1.895 1.895 0 0 0-.45.379 1.783 1.783 0 0 0-.38.344zm1.56 3.25c.44 0 1.296-.47 2.569-1.41 1.031-.721 1.614-1.18 1.745-1.377 0-.219-.143-.47-.428-.755a1.547 1.547 0 0 0-.69-.328l-2.208 1.115c-1.294.744-1.942 1.258-1.942 1.542 0 .11.12.328.363.656.24.372.439.558.592.558zm5.237-.114c-.138-.16-.138-.333 0-.517.185-.138.358-.138.519 0l.139.172.725-.482c.209-.115.37-.08.485.103.092.207.058.367-.104.483l-.968.62c-1.175.758-2.098 1.39-2.767 1.895h-.034l-1.66 1.309c-.046.045-.115.069-.208.069a.377.377 0 0 1-.277-.104c-.07-.068-.092-.148-.07-.24 0-.116.036-.196.105-.242l1.418-1.137-.103-.172c-.162-.16-.15-.31.034-.448.185-.16.345-.149.484.034l.138.207 2.214-1.516-.07-.034zm1.868 1.137l.761-.483c.208-.115.369-.08.484.104.116.206.08.367-.103.482l-1.003.586a42.368 42.368 0 0 0-2.732 1.93l-.035.034-1.66 1.274c-.046.046-.115.07-.207.07a.374.374 0 0 1-.277-.104c-.07-.069-.092-.149-.07-.241 0-.115.035-.196.104-.241l1.418-1.103-.38-.482c-.07-.07-.093-.15-.07-.241 0-.116.035-.196.103-.242a.241.241 0 0 1 .242-.069c.117 0 .198.035.244.104l.415.517a33.583 33.583 0 0 1 2.213-1.516l-.346-.414c-.138-.138-.127-.299.035-.482.16-.138.323-.126.484.034l.38.483zm11.963 5.306l-.545.271-.789.604a7.822 7.822 0 0 0-.818.816c-.223.281-.334.574-.334.876l.06.181.031.03c.183.524.667 1.34 1.455 2.447l1.062 1.298.363.332.304.152.09.06h.091l.122.03c.303 0 .809-.19 1.516-.574l.575-.423c.263-.2.435-.422.517-.664l.03-.12v-.031c.04-.14.06-.373.06-.695l-.181-.785c-.04-.14-.172-.453-.394-.936l-.273-.272-1.303-1.691-.031-.06-.091-.122c-.343-.463-.667-.715-.97-.755h-.062l-.212-.06h-.06l-.183.09h-.03zm-.515-1.359l.177-.032-.676-.32-.177-.065-.881-.545c-2.939 1.946-4.604 3.08-4.996 3.4-1.626 1.369-2.438 2.876-2.438 4.523 0 .92.342 1.68 1.028 2.278.666.534 1.44.802 2.321.802.686 0 1.647-.214 2.88-.642l2.116-.866-1.058-1.38c-.627-.962-1.077-1.753-1.351-2.373l-3.468 1.957a.345.345 0 0 1-.324.032.46.46 0 0 1-.264-.257c-.136-.278-.069-.492.206-.641l3.556-1.99c-.058-.555.108-1.1.5-1.635.294-.385.607-.727.94-1.027l.382-.417 1.059-.641.117-.033a.514.514 0 0 1 .351-.128zm-8.957-2.741c.137.16.092.31-.138.447l-.9.552a37.98 37.98 0 0 0-2.802 1.964l-.034.034c-.646.46-1.21.896-1.696 1.31l-.207.103c-.092 0-.185-.046-.276-.138-.138-.138-.128-.3.035-.483.16-.16.646-.55 1.453-1.17l-.242-.311c-.162-.184-.15-.345.033-.482.186-.16.346-.15.485.034l.276.38a42.455 42.455 0 0 1 2.283-1.62l-.31-.345c-.071-.069-.094-.149-.071-.241 0-.115.035-.196.104-.241.185-.184.346-.172.485.034l.38.448.691-.413c.163-.115.313-.07.45.138zM9.208 44.05c-.162 0-.304.1-.426.303-.122.082-.183.243-.183.486 0 .161.063.282.183.364l.062.121.364.06.61-.06v-.121c.124-.082.182-.203.182-.364 0-.08-.06-.243-.183-.486-.202-.201-.404-.303-.609-.303zm-.85 1.993c-.3-.33-.45-.68-.45-1.043 0-.397.15-.778.45-1.142.332-.331.682-.497 1.045-.497.4 0 .783.166 1.147.497.3.364.45.745.45 1.142 0 .33-.135.68-.399 1.043h-.05c-.265.265-.648.397-1.147.397a1.36 1.36 0 0 1-.997-.397h-.05zm7.405 8.71v1.173h1.099c.119 0 .236.044.352.13.058.059.088.16.088.305 0 .116-.03.189-.088.217-.175.116-.294.174-.352.174h-1.1v1.13c0 .116-.057.218-.174.305-.03.087-.117.13-.265.13a.48.48 0 0 1-.352-.13l-.087-.304v-1.13H13.74c-.058 0-.176-.06-.351-.175l-.088-.217.088-.304c.146-.087.263-.13.351-.13h1.143v-1.175l.087-.304c.09-.029.206-.072.352-.13l.265.13c.116.087.175.189.175.304z"/>
</svg>
