<svg xmlns="http://www.w3.org/2000/svg" xmlns:xlink="http://www.w3.org/1999/xlink" width="76" height="83" viewBox="0 0 76 83">
    <defs>
        <rect id="b" width="68" height="68" rx="2"/>
        <filter id="a" width="141.2%" height="141.2%" x="-20.6%" y="-14.7%" filterUnits="objectBoundingBox">
            <feOffset dy="4" in="SourceAlpha" result="shadowOffsetOuter1"/>
            <feGaussianBlur in="shadowOffsetOuter1" result="shadowBlurOuter1" stdDeviation="4"/>
            <feColorMatrix in="shadowBlurOuter1" values="0 0 0 0 0.760784314 0 0 0 0 0.764705882 0 0 0 0 0.850980392 0 0 0 1 0"/>
        </filter>
    </defs>
    <g fill="none" fill-rule="evenodd">
        <g transform="translate(0 3.5)">
            <use fill="#000" filter="url(#a)" xlink:href="#b"/>
            <use fill="#FBFEFF" xlink:href="#b"/>
        </g>
        <path fill="#6E70A6" fill-rule="nonzero" d="M53.133 31.389h-9.296a2.172 2.172 0 0 0-1.736-1.736v-1.127c0-.873-.71-1.583-1.583-1.583a.394.394 0 1 0 0 .788c.438 0 .796.357.796.795v1.128a2.17 2.17 0 0 0-1.736 1.735H28.422a2.17 2.17 0 0 0-1.736-1.735v-1.128c0-.438.357-.795.796-.795a.394.394 0 0 0 0-.788c-.873 0-1.583.71-1.583 1.582v1.128a2.17 2.17 0 0 0-1.735 1.736h-9.297a.394.394 0 0 0-.394.394v7.63a3.415 3.415 0 0 0 2.785 3.352v18.199c0 .217.176.393.394.393h32.697a.394.394 0 0 0 .394-.393V42.765a3.414 3.414 0 0 0 2.785-3.35V31.783a.395.395 0 0 0-.395-.394zm-11.427-.985h.004a1.38 1.38 0 0 1 1.318.985h-2.64a1.38 1.38 0 0 1 1.318-.985zm-15.414 0c.623 0 1.15.417 1.32.985h-2.64a1.38 1.38 0 0 1 1.32-.985zM49.955 60.57h-31.91V42.823h11.162v2.23A4.798 4.798 0 0 0 34 49.846a4.798 4.798 0 0 0 4.793-4.793v-2.23h11.162V60.57zm-11.95-15.516A4.01 4.01 0 0 1 34 49.057a4.01 4.01 0 0 1-4.005-4.003v-4.16h8.01v4.16zm14.734-5.641a2.625 2.625 0 0 1-2.595 2.622H38.792v-1.534a.394.394 0 0 0-.394-.394H29.6a.394.394 0 0 0-.394.394v1.534H17.855a2.625 2.625 0 0 1-2.596-2.621v-7.238h37.48v7.237zM34 43.193a1.86 1.86 0 0 1 1.858 1.86A1.86 1.86 0 0 1 34 46.91a1.86 1.86 0 0 1-1.858-1.859A1.86 1.86 0 0 1 34 43.194zm-5.119-26.19a1.575 1.575 0 0 1-.347-2.452 1.575 1.575 0 0 1 1.11-.492l8.3-.207a1.591 1.591 0 0 1 1.625 1.546 1.578 1.578 0 0 1-.899 1.468l.973.852c.274.245 2.67 2.412 2.67 3.784v3.75a.394.394 0 0 1-.788 0v-3.75c0-.77-1.474-2.368-2.404-3.193l-1.457-1.278-7.364.185h-.007a1.308 1.308 0 0 0-.922.41 1.305 1.305 0 0 0-.362.94l.055 3.02.028 6.155v.003l.002.252.017.67a.908.908 0 0 0 .282.64.847.847 0 0 0 .611.237c.48-.013.861-.427.849-.924V27.786v-.039a.394.394 0 1 1 .788.001v.047l.002.24.017.683a.92.92 0 0 0 .288.648.922.922 0 0 0 1.309-.033c.17-.18.26-.415.254-.661v-.89c0-.013.003-.025.004-.037l.004-.04c.003-.014.008-.027.012-.04.004-.011.006-.023.011-.034.006-.014.014-.026.02-.038l.016-.03.028-.034c.007-.008.012-.017.02-.024.01-.01.023-.02.035-.03l.023-.018c.013-.009.027-.015.041-.023.009-.004.017-.01.026-.013.015-.007.03-.01.046-.015l.028-.01c.016-.003.032-.003.05-.005.01 0 .018-.003.028-.003h.003c.183 0 .336.126.38.295l.005.018c.003.013.003.029.005.044 0 .01.003.022.004.033l.002.257.017.682a.922.922 0 0 0 .289.648c.18.17.41.26.66.254a.917.917 0 0 0 .648-.287.917.917 0 0 0 .255-.661v-.886-.004l.002-.018c.001-.02.002-.04.006-.06l.007-.02c.005-.019.009-.037.017-.054.002-.008.007-.015.01-.022.008-.015.015-.03.025-.045l.017-.021c.01-.013.02-.026.031-.037.007-.008.016-.014.024-.02l.034-.03.03-.016.037-.02c.012-.005.025-.008.037-.012.012-.003.024-.008.036-.01.014-.004.03-.005.046-.006.01 0 .02-.003.032-.003h.004c.185 0 .34.129.382.302l.002.009c.004.02.006.04.007.06l.002.018v.019l.003.238.017.682a.92.92 0 0 0 .288.648c.18.17.413.261.661.255a.919.919 0 0 0 .648-.288c.17-.18.26-.414.254-.66v-.89l-.005-6.281a.394.394 0 0 1 .788-.001l.006 6.281v.874c.01.456-.157.888-.471 1.218a1.701 1.701 0 0 1-1.2.533h-.044a1.7 1.7 0 0 1-1.328-.634c-.028.034-.056.069-.087.101a1.7 1.7 0 0 1-1.2.533h-.044a1.7 1.7 0 0 1-1.328-.634 1.701 1.701 0 0 1-1.331.635 1.7 1.7 0 0 1-1.35-.663 1.641 1.641 0 0 1-1.21.585h-.043c-.422 0-.822-.16-1.131-.454a1.69 1.69 0 0 1-.526-1.191l-.017-.672V28l-.002-.214v-.005l-.03-6.19-.054-3.012a2.09 2.09 0 0 1 .58-1.5c.025-.027.051-.05.078-.075zm-8.205 41.34c0-.217.176-.393.394-.393h25.86a.394.394 0 0 1 0 .787H21.07a.394.394 0 0 1-.394-.393z"/>
    </g>
</svg>
