<svg xmlns="http://www.w3.org/2000/svg" width="457" height="626" viewBox="0 0 457 626">
    <g fill="none" fill-rule="evenodd">
        <g stroke-linecap="square">
            <path stroke="#ACACAC" d="M456.038 492.793l-225.73-130.326M.962 492.793l225.73-130.326"/>
            <path stroke="#85DFFF" d="M225.952 625.5l229.304-132.363L225.952 625.5zm-4.594-2.665l229.304-132.363-229.304 132.363zm-4.593-2.665l229.304-132.363L216.765 620.17zm-4.594-2.665l229.304-132.363-229.304 132.363zm-4.593-2.665l229.304-132.362L207.578 614.84zm-4.593-2.664l229.303-132.363-229.303 132.363zm-4.594-2.665l229.304-132.363L198.39 609.51zm-4.593-2.665L423.1 474.483 193.798 606.846zm-4.594-2.665l229.304-132.363-229.304 132.363zm-4.593-2.665l229.304-132.363L184.61 601.516zm-4.594-2.665l229.304-132.363-229.304 132.363zm-4.593-2.665l229.304-132.363-229.304 132.363zm-4.594-2.665l229.304-132.363L170.83 593.521zm-4.593-2.665L395.54 458.494 166.237 590.856zm-4.594-2.664l229.304-132.363-229.304 132.363zm-4.593-2.665l229.304-132.363L157.05 585.527zm-4.594-2.665L381.76 450.499 152.456 582.862zm-4.593-2.665l229.304-132.363-229.304 132.363zm-4.593-2.665l229.303-132.363L143.27 577.532zm-4.594-2.665L367.98 442.504 138.676 574.867zm-4.593-2.665L363.386 439.84 134.083 572.202zm-4.594-2.665l229.304-132.363-229.304 132.363zm-4.593-2.665L354.2 434.51 124.896 566.872zm-4.594-2.665l229.304-132.362-229.304 132.362zm-4.593-2.664L345.013 429.18 115.709 561.543zm-4.594-2.665L340.42 426.515 111.115 558.878zm-4.593-2.665L335.826 423.85 106.522 556.213zm-4.594-2.665l229.304-132.363-229.304 132.363zm-4.593-2.665L326.639 418.52 97.335 550.883zm-4.594-2.665l229.304-132.363L92.741 548.218zm-4.593-2.665L317.452 413.19 88.148 545.553zm-4.594-2.665l229.304-132.362L83.554 542.888zm-4.593-2.665l229.304-132.362L78.96 540.223zm-4.593-2.664L303.67 405.196 74.368 537.559zm-4.594-2.665L299.078 402.53 69.774 534.894zm-4.593-2.665l229.304-132.363L65.18 532.229zm-4.594-2.665L289.891 397.2 60.587 529.564zm-4.593-2.665l229.304-132.363L55.994 526.9zm-4.594-2.665l229.304-132.363L51.4 524.234zm-4.593-2.665L276.11 389.206 46.807 521.57zm-4.594-2.665l229.304-132.363L42.213 518.904zm-4.593-2.665l229.304-132.362L37.62 516.239zm-4.594-2.664L262.33 381.212 33.026 513.575zm-4.593-2.665l229.304-132.363L28.433 510.91zm-4.594-2.665l229.304-132.363L23.84 508.245zm-4.593-2.665L248.55 373.217 19.246 505.58zm-4.593-2.665l229.303-132.363L14.653 502.915zm-4.594-2.665l229.304-132.363L10.059 500.25zm-4.593-2.665l229.303-132.363L5.466 497.585zM.872 494.92l229.304-132.363L.872 494.92z"/>
            <path stroke="#85DFFF" d="M230.176 625.5L.872 493.137 230.176 625.5zm4.593-2.665L5.466 490.472l229.303 132.363zm4.594-2.665L10.059 487.807 239.363 620.17zm4.593-2.665L14.653 485.142l229.303 132.363zm4.594-2.665L19.246 482.478 248.55 614.84zm4.593-2.664L23.84 479.813l229.304 132.363zm4.594-2.665L28.433 477.148 257.737 609.51zm4.593-2.665L33.026 474.483 262.33 606.846zm4.594-2.665L37.62 471.818l229.304 132.363zm4.593-2.665L42.213 469.153l229.304 132.363zm4.594-2.665L46.807 466.488 276.11 598.851zm4.593-2.665L51.4 463.823l229.304 132.363zm4.594-2.665L55.994 461.158l229.304 132.363zm4.593-2.665L60.587 458.494l229.304 132.362zm4.593-2.664L65.181 455.829l229.303 132.363zm4.594-2.665L69.774 453.164l229.304 132.363zm4.593-2.665L74.368 450.499 303.67 582.862zm4.594-2.665L78.96 447.834l229.304 132.363zm4.593-2.665L83.554 445.169l229.304 132.363zm4.594-2.665L88.148 442.504l229.304 132.363zm4.593-2.665L92.741 439.84l229.304 132.363zm4.594-2.665L97.335 437.174l229.304 132.363zm4.593-2.665L101.928 434.51l229.304 132.362zm4.594-2.665L106.522 431.845l229.304 132.362zm4.593-2.664L111.115 429.18 340.42 561.543zm4.594-2.665L115.709 426.515l229.304 132.363zm4.593-2.665L120.302 423.85l229.304 132.363zm4.594-2.665L124.896 421.185 354.2 553.548zm4.593-2.665L129.489 418.52l229.304 132.363zm4.593-2.665L134.083 415.855l229.303 132.363zm4.594-2.665L138.676 413.19 367.98 545.553zm4.593-2.665L143.27 410.526l229.303 132.362zm4.594-2.665L147.863 407.861l229.304 132.362zm4.593-2.664L152.456 405.196 381.76 537.559zm4.594-2.665L157.05 402.53l229.304 132.363zm4.593-2.665L161.643 399.866l229.304 132.363zm4.594-2.665L166.237 397.2 395.54 529.564zm4.593-2.665L170.83 394.536 400.134 526.9zm4.594-2.665L175.424 391.871l229.304 132.363zm4.593-2.665L180.017 389.206 409.321 521.57zm4.594-2.665L184.61 386.541l229.304 132.363zm4.593-2.665L189.204 383.877l229.304 132.362zm4.593-2.664L193.798 381.212 423.1 513.575zm4.594-2.665L198.39 378.547 427.695 510.91zm4.593-2.665L202.985 375.882l229.303 132.363zm4.594-2.665L207.578 373.217 436.882 505.58zm4.593-2.665L212.171 370.552l229.304 132.363zm4.594-2.665L216.765 367.887 446.069 500.25zm4.593-2.665L221.358 365.222l229.304 132.363zm4.594-2.665L225.952 362.557 455.256 494.92z"/>
            <path stroke="#3ECF8E" d="M455.997 375.745h.13v116.973h-.13V375.744zm-4.59-2.658h.131V490.06h-.13V373.086zm-4.59-2.658h.132v116.973h-.131V370.428zm-4.588-2.658h.13v116.973h-.13V367.77zm-4.59-2.658h.131v116.973h-.13V365.112zm-4.59-2.658h.132v116.973h-.131V362.454zm-4.589-2.658h.131V476.77h-.13V359.796zm-4.589-2.659l.131.001v116.973l-.131-.001V357.138zm-4.59-2.658l.132.001v116.973l-.131-.001V354.48zm-4.589-2.658l.131.001v116.973l-.13-.001V351.822zm-4.59-2.658l.132.001v116.973l-.131-.001V349.164zm-4.589-2.658l.132.001V463.48l-.132-.001V346.506zm-4.589-2.658l.131.001v116.973l-.131-.001V343.848zm-4.59-2.658l.132.001v116.973l-.131-.001V341.19zm-4.589-2.658l.131.001v116.973l-.13-.001V338.532zm-4.59-2.658l.132.001v116.973l-.131-.001V335.874zm-4.589-2.658h.132V450.19h-.132V333.215zm-4.589-2.658h.131v116.973h-.131V330.557zm-4.59-2.658h.132v116.973h-.131V327.9zm-4.589-2.658h.131v116.973h-.13V325.241zm-4.59-2.658h.132v116.973h-.131V322.583zm-4.589-2.658h.132V436.9h-.132V319.925zm-4.589-2.658h.131v116.973h-.13V317.267zm-4.59-2.658h.132v116.973h-.131V314.61zm-4.589-2.659l.131.001v116.973l-.13-.001V311.951zm-4.59-2.658l.132.001v116.973l-.131-.001V309.293zm-4.589-2.658l.132.001V423.61l-.132-.001V306.635zm-4.589-2.658l.131.001v116.973l-.13-.001V303.977zm-4.59-2.658l.132.001v116.973l-.131-.001V301.319zm-4.589-2.658l.131.001v116.973l-.13-.001V298.66zm-4.59-2.658l.132.001v116.973l-.131-.001V296.003zm-4.588-2.658l.13.001v116.973l-.13-.001V293.345zm-4.59-2.658l.131.001v116.973l-.13-.001V290.687zm-4.59-2.658h.132v116.973h-.131V288.028zm-4.589-2.658h.131v116.973h-.13V285.37zm-4.59-2.658h.132v116.973h-.131V282.712zm-4.588-2.658h.13v116.973h-.13V280.054zm-4.59-2.658h.131V394.37h-.13V277.396zm-4.59-2.658h.132v116.973h-.131V274.738zm-4.589-2.658h.131v116.973h-.13V272.08zm-4.589-2.658h.131v116.973h-.131V269.422zm-4.59-2.659l.132.001v116.973l-.131-.001V266.764zm-4.589-2.658l.131.001V381.08l-.13-.001V264.106zm-4.59-2.658l.132.001v116.973l-.131-.001V261.448zm-4.589-2.658l.132.001v116.973l-.132-.001V258.79zm-4.589-2.658l.131.001v116.973l-.131-.001V256.132zm-4.59-2.658l.132.001v116.973l-.131-.001V253.474zm-4.589-2.658l.131.001V367.79l-.13-.001V250.816zm-4.59-2.658l.132.001v116.973l-.131-.001V248.158zm-4.589-2.658l.132.001v116.972h-.132V245.5z"/>
            <path stroke="#FF8181" d="M2.748 375.745h-.132v116.973h.132V375.744zm4.589-2.658h-.131V490.06h.13V373.086zm4.59-2.658h-.132v116.973h.131V370.428zm4.589-2.658h-.131v116.973h.13V367.77zm4.59-2.658h-.132v116.973h.131V365.112zm4.589-2.658h-.132v116.973h.132V362.454zm4.589-2.658h-.131V476.77h.13V359.796zm4.59-2.659l-.132.001v116.973l.131-.001V357.138zm4.589-2.658l-.131.001v116.973l.13-.001V354.48zm4.59-2.658l-.132.001v116.973l.131-.001V351.822zm4.588-2.658l-.13.001v116.973l.13-.001V349.164zm4.59-2.658l-.131.001V463.48l.13-.001V346.506zm4.59-2.658l-.132.001v116.973l.131-.001V343.848zm4.589-2.658l-.131.001v116.973l.13-.001V341.19zm4.59-2.658l-.132.001v116.973l.131-.001V338.532zm4.588-2.658l-.13.001v116.973l.13-.001V335.874zm4.59-2.658h-.131V450.19h.13V333.215zm4.59-2.658h-.132v116.973h.131V330.557zm4.589-2.658h-.131v116.973h.13V327.9zm4.589-2.658h-.131v116.973h.131V325.241zm4.59-2.658h-.132v116.973h.131V322.583zm4.589-2.658h-.131V436.9h.13V319.925zm4.59-2.658h-.132v116.973h.131V317.267zm4.589-2.658h-.132v116.973h.132V314.61zm4.589-2.659l-.131.001v116.973l.131-.001V311.951zm4.59-2.658l-.132.001v116.973l.131-.001V309.293zm4.589-2.658l-.131.001V423.61l.13-.001V306.635zm4.59-2.658l-.132.001v116.973l.131-.001V303.977zm4.589-2.658l-.132.001v116.973l.132-.001V301.319zm4.589-2.658l-.131.001v116.973l.131-.001V298.66zm4.59-2.658l-.132.001v116.973l.131-.001V296.003zm4.589-2.658l-.131.001v116.973l.13-.001V293.345zm4.59-2.658l-.132.001v116.973l.131-.001V290.687zm4.589-2.658h-.132v116.973h.132V288.028zm4.589-2.658h-.131v116.973h.13V285.37zm4.59-2.658h-.132v116.973h.131V282.712zm4.589-2.658h-.131v116.973h.13V280.054zm4.59-2.658h-.132V394.37h.131V277.396zm4.589-2.658h-.132v116.973h.132V274.738zm4.589-2.658h-.131v116.973h.13V272.08zm4.59-2.658h-.132v116.973h.131V269.422zm4.589-2.659l-.131.001v116.973l.13-.001V266.764zm4.59-2.658l-.132.001V381.08l.131-.001V264.106zm4.588-2.658l-.13.001v116.973l.13-.001V261.448zm4.59-2.658l-.131.001v116.973l.13-.001V258.79zm4.59-2.658l-.132.001v116.973l.131-.001V256.132zm4.589-2.658l-.131.001v116.973l.13-.001V253.474zm4.59-2.658l-.132.001V367.79l.131-.001V250.816zm4.588-2.658l-.13.001v116.973l.13-.001V248.158zm4.59-2.658l-.131.001v116.972h.13V245.5z"/>
        </g>
        <path fill="#6E70A6" d="M173.77 325.19l-30.715 25.578A61.195 61.195 0 0 0 121 397.8v103.7c11.858 0 21.475-9.595 21.475-21.431v-12.1c0-26.67 11.838-51.97 32.332-69.093l28.347-23.686-29.384-50M282.353 325.19l30.717 25.578a61.198 61.198 0 0 1 22.056 47.032v103.7c-11.86 0-21.475-9.595-21.475-21.431v-12.1c0-26.67-11.84-51.97-32.332-69.093l-28.347-23.686 29.381-50"/>
        <path fill="#565D9A" d="M336 499.754c-11.839 0-21.436-9.54-21.436-21.309v-12.03c0-5.583-.525-11.107-1.542-16.509-3.818-20.244-14.583-38.75-30.731-52.19l-10.884-9.059-.082-.681c6.698-4.055 11.651-10.774 13.246-18.868 2.388-12.116 4.392-25.066 5.955-38.681l23.458 19.455c13.95 11.57 22.016 28.699 22.016 46.764v103.108"/>
        <path fill="#56619D" d="M267.496 446.512h-77.992c-5.442 0-9.66-4.747-9.006-10.138l6.916-57.07h82.17l6.918 57.07c.655 5.391-3.564 10.138-9.006 10.138"/>
        <path fill="#56619D" d="M267.468 446.512H245.98v-67.207h23.582l6.94 57.07c.656 5.39-3.576 10.137-9.034 10.137"/>
        <path fill="#FFFFFE" stroke="#6E70A6" stroke-width="2" d="M256.277 393.27c13.618 0 25.365-9.692 27.983-23.165 6.204-31.92 9.789-69.601 9.789-109.964 0-115.12-50.886-235.202-65.112-235.202-16.852 0-65.112 120.082-65.112 235.202 0 40.363 3.585 78.044 9.792 109.964 2.617 13.473 14.364 23.165 27.98 23.165h54.68"/>
        <path fill="#FFFFFE" stroke="#6E70A6" d="M272.2 120.077c-15.423-55.501-35.3-95.138-43.302-95.138-9.478 0-29.129 39.637-44.097 95.138h87.398"/>
        <path fill="#6E70A6" d="M269.577 106.984c-15.21-48.59-33.032-82.045-40.604-82.045-8.968 0-26.72 33.454-41.55 82.045h82.154"/>
        <path fill="#7C7DAF" d="M195.289 106.984h8.913c8.306-26.537 12.065-45.268 18.957-62.853.57-1.45-1.515-2.444-2.32-1.103-6.9 11.525-15.353 31.38-25.55 63.956"/>
        <path fill="#FFFFFE" d="M228.063 286.786c-25.825 0-46.758-20.79-46.758-46.433 0-.82.02-1.635.064-2.445 1.279 24.51 21.695 43.991 46.694 43.991 24.997 0 45.413-19.481 46.694-43.991.041.81.064 1.626.064 2.445 0 25.643-20.936 46.433-46.758 46.433"/>
        <path fill="#6E70A6" d="M274.821 236.597c0 25.79-20.936 46.697-46.758 46.697-25.825 0-46.758-20.907-46.758-46.697 0-25.787 20.933-46.695 46.758-46.695 25.822 0 46.758 20.908 46.758 46.695"/>
        <path fill="#565D9A" d="M228.125 283.294l-.499-.013v-93.365l.499-.014c25.788 0 46.696 20.908 46.696 46.695 0 25.79-20.908 46.697-46.696 46.697"/>
        <path fill="#C6E7F0" d="M259.963 236.597c0 17.597-14.28 31.86-31.898 31.86-17.619 0-31.902-14.263-31.902-31.86 0-17.594 14.283-31.857 31.902-31.857 17.617 0 31.898 14.263 31.898 31.857"/>
        <path fill="#9B9DC2" d="M257.113 470.951H198.14c-5.437 0-9.842-4.535-9.842-10.13v-13.436h78.658v13.436c0 5.595-4.405 10.13-9.842 10.13"/>
        <path fill="#8386B4" d="M258.571 470.951h-7.347v-23.566h17.48v13.436c0 5.595-4.536 10.13-10.133 10.13"/>
        <path fill="#6E70A6" d="M229.004 500.91l-.491.59a31.098 31.098 0 0 1-7.928-19.774l-4.305-135.798a31.587 31.587 0 0 1 12.208-25.954l.025-.021a31.577 31.577 0 0 1 12.205 26.008l-4.54 136.097a31.086 31.086 0 0 1-7.174 18.852"/>
        <path fill="#565D9A" d="M229.4 501.5l-.026-181.526.025-.021a31.58 31.58 0 0 1 12.195 26.008l-4.537 136.097a31.102 31.102 0 0 1-7.167 18.852l-.49.59"/>
        <path fill="#A0D8EB" d="M244.8 209.105c.03.627.05 1.257.05 1.894 0 22.814-18.564 41.31-41.46 41.31-1.261 0-2.503-.066-3.731-.175 5.61 9.249 15.764 15.45 27.401 15.45 17.69 0 32.03-14.288 32.03-31.915 0-11.085-5.676-20.843-14.29-26.564"/>
        <path fill="#52FE63" d="M260.824.5c-5.101 0-9.574 3.724-10.356 8.915-.862 5.72 3.081 11.054 8.808 11.915.53.08 1.055.118 1.574.118 5.102 0 9.574-3.723 10.357-8.915.863-5.72-3.082-11.053-8.808-11.914-.53-.08-1.054-.119-1.575-.119zm0 .873c.48 0 .967.036 1.445.108 5.242.79 8.863 5.688 8.074 10.923-.702 4.658-4.784 8.17-9.492 8.17-.48 0-.967-.035-1.444-.107a9.546 9.546 0 0 1-6.302-3.791 9.52 9.52 0 0 1-1.772-7.13c.701-4.66 4.782-8.172 9.491-8.173z"/>
        <path fill="#3DA1FF" d="M280.928 51.124c-4.251 0-7.978 3.103-8.63 7.429-.719 4.767 2.567 9.212 7.34 9.93.441.066.879.097 1.312.097 4.25 0 7.978-3.102 8.63-7.429.72-4.766-2.568-9.21-7.34-9.928a8.766 8.766 0 0 0-1.312-.1zm0 .727c.4 0 .805.03 1.204.09 4.368.658 7.386 4.74 6.729 9.103-.586 3.882-3.987 6.809-7.91 6.809-.4 0-.806-.03-1.204-.09a7.955 7.955 0 0 1-5.252-3.16 7.934 7.934 0 0 1-1.476-5.942c.584-3.882 3.984-6.809 7.91-6.81z"/>
        <path fill="#FF8181" d="M163.812 58.106c-5.101 0-9.574 3.725-10.356 8.915-.863 5.72 3.08 11.054 8.808 11.916.53.08 1.055.117 1.574.117 5.101 0 9.574-3.723 10.356-8.915.864-5.719-3.08-11.053-8.808-11.914-.53-.08-1.053-.119-1.574-.119zm0 .873c.48 0 .967.036 1.445.108 5.242.79 8.863 5.689 8.074 10.923-.702 4.659-4.784 8.171-9.492 8.171-.48 0-.967-.036-1.444-.108a9.546 9.546 0 0 1-6.302-3.791 9.52 9.52 0 0 1-1.772-7.13c.701-4.659 4.781-8.172 9.491-8.173z"/>
    </g>
</svg>
