<svg xmlns="http://www.w3.org/2000/svg" width="363" height="363" viewBox="0 0 363 363">
    <defs>
        <filter id="a" width="110.8%" height="126.1%" x="-5.4%" y="-6.3%" filterUnits="objectBoundingBox">
            <feOffset dy="12" in="SourceAlpha" result="shadowOffsetOuter1"/>
            <feGaussianBlur in="shadowOffsetOuter1" result="shadowBlurOuter1" stdDeviation="8.5"/>
            <feColorMatrix in="shadowBlurOuter1" result="shadowMatrixOuter1" values="0 0 0 0 0.431372549 0 0 0 0 0.439215686 0 0 0 0 0.650980392 0 0 0 0.0688122736 0"/>
            <feMerge>
                <feMergeNode in="shadowMatrixOuter1"/>
                <feMergeNode in="SourceGraphic"/>
            </feMerge>
        </filter>
    </defs>
    <g fill="none" fill-rule="evenodd" filter="url(#a)" transform="translate(-749 -35)">
        <path fill="#8386B4" fill-opacity=".278" d="M929.556 369.478c-57.744 0-104.556-4.36-104.556-9.739 0-2.002 6.489-3.864 17.615-5.412 1.191 3.377 3.852 4.999 6.973 4.999 1.573 0 3.262-.412 4.939-1.219 2.913-1.401 5.118-3.424 6.971-5.762 18.29-1.462 42.065-2.345 68.058-2.345 16.375 0 31.867.35 45.665.975a138.782 138.782 0 0 1 3.103 3.337c3.542 3.935 9.59 9.566 15.285 9.566h.219c2.406.001 4.748-1.004 6.812-3.566 1.672-2.077 2.391-4.702 2.535-7.489 19.105 1.765 30.939 4.212 30.939 6.916 0 5.379-46.812 9.739-104.558 9.739"/>
        <path fill="#5FD7A3" d="M889.398 107.313c2.017-.904 3.622-2.618 4.57-4.615.914-1.925 1.367-3.879 2.743-5.551 1.321-1.605 3.3-2.556 5.232-3.205 2.432-.818 5.014-1.292 7.234-2.578a11.19 11.19 0 0 0 4.62-5.182c.68-1.565.988-3.262 1.252-4.948.221-1.408.413-2.821.606-4.234-3.818 3.987-8.372 7.551-13.748 8.804-3.638.848-7.553.615-10.967 2.132-3.505 1.559-5.987 4.744-8.105 7.942a87.106 87.106 0 0 0-2.524 4.049c-.835 1.425-1.656 3.085-1.162 4.662 1.104 3.523 7.5 3.958 10.25 2.724"/>
        <path fill="#3F2842" d="M889.45 107.724c2.807-1.54 4.124-3.455 5.46-6.33 1.603-3.44 3.216-5.601 6.907-6.966 1.927-.713 3.98-1.047 5.863-1.895 6.582-2.964 7.478-9.045 8.373-15.57.094-.687-.674-1.318-1.253-.73-2.77 2.81-5.78 5.482-9.38 7.184-3.395 1.605-6.747 1.702-10.4 2.35-5.88 1.042-9.422 4.038-12.751 8.898-2.013 2.937-6.221 7.9-3.226 11.472 2.3 2.744 7.146 2.75 10.229 1.662.905-.318.515-1.768-.4-1.446-1.857.655-3.978.804-5.903.299-5.05-1.325-2.135-7.06-.244-9.965 3.614-5.555 7.352-8.718 14.088-9.653 7.854-1.09 13.457-4.067 19.047-9.74l-1.253-.73c-.53 3.859-.748 8.116-3.24 11.289-2.977 3.792-7.356 3.856-11.395 5.677-6.131 2.766-5.644 9.808-11.278 12.899-.847.464-.09 1.76.757 1.295"/>
        <path fill="#98E3FE" d="M884.943 103.88c4.093-2.717 2.46-8.181 5.581-11.589 1.251-1.366 3.072-2.051 4.861-2.531 2.98-.8 6.058-1.159 9.062-1.853 3.005-.694 6.006-1.765 8.351-3.768 2.344-2.004 3.938-5.082 3.533-8.139a11.507 11.507 0 0 1-6.139 4.658c-3.518 1.105-7.309.449-10.997.426-2.865-.018-5.719.352-8.544.836-1.068.183-2.139.383-3.165.732-1.197.408-2.319 1.012-3.377 1.704a22.572 22.572 0 0 0-5.77 5.444c-2.368 3.198-3.887 7.254-3.154 11.166.352 1.882 1.395 3.774 3.425 3.984 2.251.234 4.368.234 6.333-1.07"/>
        <path fill="#3F2842" d="M884.844 104.132c2.396-1.965 2.81-4.168 3.616-7.033 2.007-7.136 8.475-7.211 14.652-8.555 6.702-1.459 13.553-5.041 13.34-12.822-.022-.799-.967-.949-1.398-.379-3.939 5.209-10.4 5.162-16.745 5.116-2.94-.021-5.858-.043-8.486.46-5.518 1.055-10.015 4.164-13.183 8.843-4.973 7.346-3.26 20.138 8.052 14.487.864-.431.105-1.725-.757-1.295-2.053 1.026-6.24 1.623-7.958-.49-1.062-1.306-.93-4.425-.646-5.985.57-3.134 2.352-5.926 4.443-8.26 4.142-4.622 9.376-6.028 15.36-6.516 1.904-.155 3.79-.141 5.63-.127 5.914.044 11.378.088 15.585-5.476l-1.397-.378c.351 12.807-15.555 10.108-23.117 14.008-5.662 2.92-3.558 9.657-8.052 13.342-.746.612.32 1.667 1.061 1.06"/>
        <path fill="#7C84B4" d="M872.649 89.56c1.084-2.013 2.626-3.809 4.388-5.201 5.461-4.315 12.814-5.799 19.641-5.728 3.56.037 7.12.649 10.664.313 3.544-.336 7.245-1.847 9-4.944-.048 2.549-1.496 5.028-3.692 6.322-1.478.87-3.202 1.206-4.893 1.488-3.887.645-7.796 1.018-11.724 1.295-3.782.266-7.86.871-11.078 3.022-3.102 2.075-5.164 6.379-5.846 9.972-.258 1.356-.348 2.764-.894 4.031-.547 1.267-1.706 2.403-3.086 2.394-1.246-.007-1.926-.585-2.65-1.599-2.338-3.274-1.615-8.048.17-11.365"/>
        <path fill="#3F2842" d="M874.07 90.654c5.576-9.36 16.981-10.931 26.94-10.386 6.272.344 12.825.557 16.751-5.175l-1.397-.378c-1.245 11.447-22.415 6.384-30.3 11.065-2.589 1.535-4.362 3.909-5.574 6.647-.786 1.776-.82 3.838-1.557 5.554.11 1.925-.96 2.28-3.21 1.064-2.356.746-3.379.185-3.07-1.683-.59-2.038.597-4.972 1.416-6.708.41-.87-.884-1.631-1.295-.757-1.74 3.689-3.249 10.328.83 13.254 4.863 3.487 6.417-3.681 7.16-6.825 3.008-12.73 15.612-11.284 25.92-12.764 5.701-.82 10.492-2.524 11.18-8.847.087-.806-1.022-.927-1.398-.38-3.702 5.405-10.899 5.08-17.745 4.755-3.39-.16-6.693-.321-9.444.213-6.755 1.312-12.918 4.577-16.503 10.594-.495.83.801 1.586 1.295.757"/>
        <path fill="#5FD7A3" d="M912.962 116.478c2.583-.283 4.932-1.462 6.611-3.104 1.618-1.582 2.716-3.327 4.79-4.532 1.99-1.157 4.541-1.496 6.951-1.559.9-.023 1.806-.013 2.712-.004 2.148.022 4.294.045 6.354-.37 2.686-.54 5.118-1.834 6.833-3.634 1.242-1.305 2.099-2.844 2.9-4.386.67-1.288 1.309-2.588 1.948-3.889-5.56 2.719-11.841 4.818-18.381 4.46-4.427-.242-8.851-1.602-13.218-1.137-4.483.478-8.275 2.815-11.65 5.271a93.16 93.16 0 0 0-4.095 3.154c-1.38 1.125-2.813 2.482-2.712 4.139.225 3.702 7.437 5.977 10.957 5.591"/>
        <path fill="#3F2842" d="M913.844 117.934c3.582-.646 5.749-2.238 8.295-4.745 4.7-4.627 9.182-4.198 15.34-4.434 8.73-.334 12.308-5.325 15.91-12.644.343-.693-.34-1.35-1.024-1.026-4.575 2.16-9.375 3.948-14.464 4.32-4.407.322-8.641-.822-13.001-1.12-7.268-.499-13.03 3.121-18.538 7.474-2.5 1.976-5.848 4.598-3.644 7.993 2.095 3.225 7.379 4.38 10.926 4.208.96-.046.967-1.547 0-1.5-2.03.1-3.987-.275-5.872-1.017-.825-.325-3.046-1.092-3.414-2.035-.675-1.733.584-4.167 1.572-5.398 3.819-4.755 12.16-8.45 18.029-8.263 5.36.171 10.377 1.672 15.786.964 4.706-.616 9.114-2.317 13.376-4.33-.341-.343-.684-.685-1.026-1.027-2.276 4.623-4.4 9.377-9.655 11.152-2.508.846-5.123.804-7.741.761-1.885-.03-3.771-.06-5.618.241-6.642 1.084-9.066 7.794-15.636 8.98-.95.17-.547 1.616.399 1.446"/>
        <path fill="#98E3FE" d="M908.36 111.649c5.5-1.42 5.242-7.14 9.831-9.505 1.84-.95 4.133-1.078 6.328-1.02 3.654.098 7.295.647 10.948.854 3.655.206 7.415.049 10.698-1.194 3.284-1.242 6.023-3.735 6.461-6.787-2.289 1.693-5.32 2.66-8.42 2.689-4.366.039-8.524-1.691-12.748-2.784-3.284-.85-6.67-1.322-10.054-1.68-1.28-.134-2.569-.252-3.85-.215-1.494.044-2.96.299-4.38.656-2.983.75-5.784 1.959-8.23 3.55-3.665 2.384-6.607 5.836-6.923 9.804-.152 1.91.485 4.028 2.753 4.819 2.515.878 4.945 1.494 7.585.813"/>
        <path fill="#3F2842" d="M909.334 112.926c3.122-1.09 4.498-3.045 6.3-5.7 4.317-6.357 11.243-4.72 17.87-4.154 7.32.625 18.363.55 20.621-8.322.153-.605-.536-1.216-1.103-.847-8.564 5.59-18.229-.17-27.263-1.444-7.114-1.004-13.542-.55-19.794 3.279-3.968 2.43-8.59 6.933-7.895 12.09.695 5.153 7.095 5.796 11.264 5.098.95-.16.546-1.605-.399-1.447-4.599.77-5.293.307-7.45-3.168-1.832-2.95-2.014-3.564-.23-6.298 1.74-2.671 4.585-4.653 7.4-6.06 6.213-3.101 12.546-2.825 19.227-1.653 8.9 1.56 17.41 6.438 25.898.898l-1.102-.847c-2.238 8.795-12.397 7.94-21.077 7.085-3.319-.327-6.422-.654-8.784-.441-2.409.217-4.56.896-6.32 2.599-2.832 2.739-3.383 6.427-7.562 7.885-.906.316-.517 1.766.4 1.447"/>
        <path fill="#7C84B4" d="M899.151 95.362c1.839-1.618 4.14-2.894 6.573-3.72 7.544-2.556 16.422-1.846 24.236.205 4.075 1.069 7.98 2.69 12.147 3.397 4.167.707 8.861.33 11.79-2.133-.807 2.433-3.202 4.393-6.105 4.997-1.953.406-4.031.229-6.056.007-4.652-.508-9.249-1.286-13.839-2.161-4.419-.842-9.278-1.446-13.607-.314-4.174 1.09-7.813 4.624-9.659 7.875-.696 1.227-1.215 2.553-2.217 3.61-1.002 1.059-2.669 1.812-4.25 1.403-1.428-.37-2.038-1.121-2.569-2.304-1.715-3.822.526-8.196 3.556-10.862"/>
        <path fill="#3F2842" d="M900.547 95.633c9.061-7.28 22.3-5.703 32.678-2.57 7.094 2.142 15.192 5.167 21.916.436-.34-.342-.683-.684-1.026-1.026-3.365 7.434-13.745 4.484-19.984 3.433-5.43-.914-10.939-2.385-16.488-1.721-3.817.456-7.052 2.064-9.772 4.787-1.362 1.364-2.385 2.865-3.353 4.528a44.464 44.464 0 0 1-1.022 1.854l-6.88-2.324c-.556-2.452 2.427-5.918 3.931-7.397.69-.678-.372-1.738-1.06-1.061-3.085 3.034-7.105 10.249-2.17 13.729 5.694 4.017 8.854-5.588 11.614-8.268 8.175-7.937 20.245-3.21 30.091-1.87 6.093.83 13.372 1.73 16.39-4.933.273-.607-.347-1.505-1.028-1.026-8.959 6.303-21.714-1.72-31.345-2.857-8.228-.971-16.917-.107-23.553 5.225-.753.605.314 1.66 1.061 1.06"/>
        <path fill="#5FD7A3" d="M933.963 132.477c2.582-.282 4.93-1.462 6.61-3.104 1.618-1.582 2.716-3.326 4.79-4.532 1.99-1.157 4.542-1.496 6.952-1.558.899-.024 1.804-.014 2.709-.005 2.149.023 4.296.046 6.356-.369 2.686-.54 5.118-1.835 6.833-3.635 1.242-1.304 2.099-2.844 2.9-4.385.67-1.289 1.309-2.589 1.948-3.889-5.56 2.719-11.841 4.818-18.381 4.46-4.427-.242-8.851-1.603-13.218-1.137-4.483.477-8.274 2.815-11.65 5.27a93.307 93.307 0 0 0-4.094 3.154c-1.38 1.126-2.813 2.482-2.713 4.139.225 3.702 7.437 5.978 10.958 5.591"/>
        <path fill="#3F2842" d="M933.844 132.934c3.58-.646 5.748-2.237 8.295-4.745 4.7-4.627 9.182-4.197 15.34-4.433 8.73-.335 12.308-5.325 15.91-12.645.343-.693-.34-1.35-1.024-1.026-4.574 2.161-9.375 3.948-14.464 4.32-4.406.323-8.641-.82-13.001-1.12-7.268-.498-13.03 3.121-18.538 7.475-2.5 1.975-5.848 4.597-3.644 7.992 2.095 3.226 7.379 4.381 10.927 4.208.96-.046.966-1.547 0-1.5-2.03.1-3.988-.275-5.873-1.017-.825-.325-3.046-1.092-3.413-2.034-.676-1.734.583-4.168 1.57-5.398 3.82-4.756 12.162-8.45 18.03-8.264 5.36.172 10.377 1.673 15.786.964 4.706-.616 9.114-2.317 13.377-4.33l-1.027-1.027c-2.276 4.623-4.4 9.378-9.655 11.152-2.507.846-5.123.804-7.74.762-1.885-.03-3.771-.062-5.618.24-6.643 1.085-9.068 7.794-15.637 8.98-.948.171-.547 1.616.399 1.446"/>
        <path fill="#98E3FE" d="M929.36 127.649c5.5-1.42 5.241-7.14 9.831-9.505 1.84-.948 4.133-1.078 6.328-1.02 3.655.099 7.294.648 10.95.854 3.652.206 7.414.049 10.697-1.193 3.282-1.243 6.022-3.735 6.461-6.788-2.289 1.694-5.322 2.662-8.422 2.69-4.365.038-8.523-1.691-12.747-2.785-3.284-.85-6.67-1.322-10.054-1.678-1.28-.135-2.568-.254-3.85-.217-1.494.044-2.96.299-4.379.656-2.984.75-5.785 1.96-8.232 3.55-3.663 2.384-6.606 5.836-6.922 9.804-.152 1.91.486 4.029 2.753 4.82 2.515.878 4.945 1.493 7.585.812"/>
        <path fill="#3F2842" d="M929.333 128.926c3.123-1.09 4.5-3.045 6.301-5.7 4.318-6.357 11.243-4.72 17.87-4.153 7.32.625 18.363.549 20.621-8.323.154-.605-.536-1.216-1.102-.847-8.565 5.59-18.23-.168-27.264-1.444-7.114-1.004-13.542-.55-19.793 3.28-3.969 2.43-8.592 6.933-7.896 12.09.695 5.152 7.095 5.795 11.263 5.097.951-.16.547-1.605-.398-1.446-4.6.77-5.293.307-7.45-3.17-1.832-2.95-2.014-3.562-.23-6.296 1.74-2.671 4.586-4.654 7.401-6.06 6.213-3.102 12.545-2.825 19.226-1.653 8.901 1.56 17.41 6.438 25.9.898l-1.104-.848c-2.238 8.796-12.397 7.94-21.077 7.086-3.319-.327-6.422-.654-8.783-.442-2.409.217-4.562.896-6.322 2.6-2.832 2.738-3.382 6.426-7.56 7.885-.906.316-.518 1.765.397 1.446"/>
        <path fill="#7C84B4" d="M920.15 111.361c1.84-1.618 4.14-2.894 6.574-3.719 7.544-2.556 16.423-1.847 24.236.204 4.074 1.07 7.98 2.691 12.148 3.397 4.167.707 8.86.331 11.79-2.133-.808 2.433-3.203 4.393-6.106 4.997-1.953.407-4.031.23-6.055.008-4.653-.509-9.25-1.287-13.84-2.162-4.42-.842-9.278-1.445-13.607-.314-4.175 1.091-7.812 4.624-9.658 7.875-.697 1.227-1.217 2.554-2.218 3.611-1.003 1.058-2.67 1.812-4.25 1.403-1.428-.37-2.038-1.122-2.57-2.305-1.713-3.82.527-8.196 3.557-10.862"/>
        <path fill="#3F2842" d="M920.546 111.632c9.062-7.28 22.301-5.702 32.68-2.569 7.093 2.142 15.191 5.167 21.916.436l-1.027-1.027c-3.365 7.435-13.746 4.484-19.984 3.433-5.43-.914-10.939-2.385-16.487-1.72-3.818.455-7.053 2.064-9.773 4.787-1.363 1.364-2.385 2.864-3.353 4.528a46.316 46.316 0 0 1-1.02 1.854l-6.88-2.325c-.557-2.452 2.425-5.918 3.928-7.397.69-.677-.37-1.738-1.06-1.06-3.084 3.033-7.104 10.248-2.17 13.728 5.696 4.017 8.855-5.588 11.616-8.268 8.174-7.936 20.244-3.208 30.09-1.869 6.093.83 13.372 1.73 16.388-4.933.276-.607-.345-1.505-1.025-1.027-8.959 6.304-21.716-1.72-31.346-2.856-8.229-.972-16.917-.107-23.553 5.225-.753.604.315 1.66 1.06 1.06"/>
        <path fill="#5FD7A3" d="M953.196 153.173a12.2 12.2 0 0 0 3.407-2.312c1.953-1.89 3.257-4.347 5.053-6.386 4.644-5.27 11.448-2.737 17.527-3.96 3.943-.794 6.885-3.247 9.228-6.413.434-.587.84-1.202 1.127-1.875 1.1-2.584.294-5.54-.523-8.227-.073 1.213.501 3.391.09 4.534-.206.57-.342.802-.75 1.25-.377.414-1.01 1.383-1.502 1.651-4.186 2.284-9.606 1.891-14.37 1.63-4.427-.242-8.85-1.602-13.218-1.137-4.483.478-8.274 2.815-11.649 5.271a92.57 92.57 0 0 0-4.095 3.154c-2.717 2.216-5.786 5.756-3.98 9.465.863 1.773 2.554 3.04 4.391 3.757 2.966 1.158 6.366.923 9.264-.402"/>
        <path fill="#3F2842" d="M953.325 154.548c4.762-2.502 6.33-7.942 10.746-10.618 2.753-1.668 5.987-1.648 9.217-1.628 2.243.014 4.484.028 6.561-.523 3.656-.97 6.729-3.433 8.901-6.495 2.442-3.442 1.852-6.898.739-10.755-.23-.794-1.507-.667-1.474.199.084 2.159.456 4.367-1.149 6.134-2.207 2.431-6.705 2.377-9.72 2.382-4.234.008-8.296-.673-12.488-1.162-8.201-.957-14.141 2.304-20.424 7.278-3.365 2.665-7.935 6.761-5.591 11.565 2.607 5.341 9.691 5.546 14.502 3.699.893-.342.505-1.794-.398-1.446-2.346.9-4.827 1.447-7.351.866-2.69-.246-3.997-1.82-3.92-4.721-1.873-2.241-1.771-4.181.303-5.819 2.186-2.486 5.155-4.467 7.915-6.282 3.393-2.232 7.069-3.857 11.196-3.912 3.79-.051 7.568.943 11.343 1.233 4.266.329 10.957 1.007 14.748-1.732 3.099-2.238 2.665-4.689 2.534-8.083l-1.473.199c1.966 6.81-.979 12.915-7.876 15.219-2.344.783-4.808.773-7.268.762-1.562-.006-3.123-.013-4.651.184-7.907 1.016-9.236 8.775-15.679 12.161-.856.449-.098 1.744.757 1.295"/>
        <path fill="#98E3FE" d="M947.36 145.427c5.5-1.419 5.241-7.139 9.831-9.504 1.84-.949 4.132-1.078 6.328-1.019 3.655.097 7.294.647 10.948.853 3.915.221 9.025.621 12.27-1.984 1.524-1.224 2.601-3.033 2.808-4.977.172-1.613-.238-3.225-.646-4.796.093.964.185 1.938.055 2.898-.129.96-.502 1.919-1.21 2.578-1.916 1.784-5.732 1.075-8.045.679-3.15-.537-6.156-1.676-9.242-2.474-3.283-.85-6.669-1.322-10.054-1.679-1.28-.135-2.568-.253-3.849-.216-1.494.043-2.96.299-4.38.656-2.983.751-5.785 1.959-8.23 3.55-3.665 2.384-6.607 5.836-6.923 9.804-.152 1.91.486 4.028 2.752 4.82 2.516.877 4.945 1.493 7.586.811"/>
        <path fill="#3F2842" d="M947.333 145.88c3.59-1.252 4.795-3.703 6.914-6.65 4.586-6.373 14.674-3.24 21.34-2.917 8.775.423 16.244-2.824 13.811-12.783-.197-.805-1.538-.656-1.474.2.64 8.42-8.503 5.535-12.896 4.293-3.745-1.06-7.406-2.064-11.269-2.61-7.114-1.004-13.542-.55-19.794 3.28-3.969 2.43-8.59 6.933-7.895 12.09.694 5.153 7.095 5.796 11.263 5.098.95-.16.547-1.605-.398-1.447-3.469.58-9.96.054-9.216-6.011.234-1.914 1.911-4.138 3.177-5.451 2.443-2.537 5.753-4.294 9.056-5.42 6.942-2.367 14.717-.916 21.618 1.005 6.522 1.816 18.697 6.277 17.854-4.827l-1.473.199c3.004 12.296-8.994 11.36-18.563 10.427-3.002-.294-5.765-.587-7.75-.471-2.686.156-5.166.752-7.143 2.664-2.83 2.739-3.38 6.427-7.56 7.885-.906.316-.517 1.766.398 1.447"/>
        <path fill="#8386B4" d="M938.151 129.392c1.838-1.618 4.14-2.895 6.573-3.719 7.544-2.557 16.423-1.847 24.236.204 5.038 1.322 9.217 3.286 14.539 3.424 1.827.048 2.846-.396 3.989-1.766.672-.806.769-1.937.758-2.986-.011-1.235-.183-2.586-1.078-3.437.291-.267.751-.009 1.034.266 1.825 1.768 2.802 4.494 2.133 6.947-1.242 4.554-5.872 4.228-9.599 3.82-4.652-.508-9.249-1.286-13.839-2.16-4.419-.843-9.279-1.447-13.608-.315-4.174 1.091-7.812 4.624-9.658 7.875-.696 1.227-1.216 2.553-2.218 3.611-1.002 1.058-2.669 1.811-4.25 1.402-1.428-.369-2.037-1.12-2.568-2.304-1.715-3.822.526-8.197 3.556-10.862"/>
        <path fill="#3F2842" d="M938.422 129.568c11.535-9.268 26.199-3.838 38.814-.75 6.394 1.565 13.146.797 10.995-7.444 1.048 4.016 2.467 8.661-3.247 9.764-1.105.213-2.255.1-3.366.02-3.217-.237-6.433-.782-9.611-1.317-5.143-.865-10.384-2.266-15.646-1.822-4.135.35-7.67 1.94-10.614 4.888-1.363 1.364-2.386 2.865-3.354 4.53a45.757 45.757 0 0 1-1.021 1.853l-6.88-2.325c-.556-2.452 2.427-5.918 3.93-7.397.689-.678-.371-1.739-1.061-1.06-3.177 3.126-7.746 12.892-.457 14.446 3.84.82 5.487-2.73 7.116-5.384 4.342-7.074 11.266-8.782 19.127-7.738 5.508.731 10.93 1.971 16.459 2.608 2.867.33 6.494.888 9.008-.97 3.103-2.293 3.269-12.132-1.904-11.435-.47.063-.694.738-.448 1.102l.975 3.058-3.997 4.002c-1.121.431-3.584-.366-4.815-.628-2.13-.453-4.193-1.187-6.271-1.82-4.254-1.296-8.571-2.276-13.01-2.648-7.7-.644-15.627.46-21.783 5.407-.752.604.316 1.66 1.06 1.06"/>
        <path fill="#565D9A" d="M968.704 299.495c3.37-.01 6.767-.342 9.991-1.488 6.3-2.241 11.65-7.483 18.077-9.158 7.456-1.944 12.154 2.28 18.32 6.247 4.021 2.588 8.663 3.565 13.246 3.886 3.593.252 7.308.1 10.613-1.563 4.295-2.161 7.458-6.691 9.408-11.655 1.95-4.965 2.83-10.396 3.691-15.764-7.438 11.558-21.347 16.797-33.167 12.493-4.733-1.724-7.896-5.662-12.188-8.285-4.983-3.046-10.969-2.354-16.539-1.454-3.033.49-6.07 1.022-9.01 2.013-1.617.544-3.196 1.223-4.774 1.903-3.509 1.511-7.054 3.044-10.259 5.327-1.482 1.055-2.79 2.368-4.299 3.338-1.422.914-2.636 2.092-3.527 3.719-4.858 8.866 5.228 10.441 10.417 10.441"/>
        <path fill="#3F2842" d="M968.433 299.984c4.082-.082 8.02-.535 11.806-2.158 4.115-1.764 7.67-4.56 11.647-6.582 6.417-3.264 11.851-2.663 17.814 1.11 3.99 2.526 7.523 5.073 12.18 6.2 7.041 1.706 15.3 1.853 20.888-3.398 6.802-6.391 8.322-16.479 9.734-25.218.134-.827-.874-1.311-1.37-.578-7.653 11.31-23.564 18.257-36.05 10.17-4.874-3.156-8.272-7.414-14.324-8.329-5.82-.881-12.719.45-18.308 2.039-5.809 1.65-12.085 4.322-16.987 7.849-3.756 2.702-8.71 5.798-9.396 10.875-.902 6.697 7.46 7.948 12.366 8.02.965.015.966-1.485 0-1.5-3.508-.052-9.422-.396-10.667-4.4-1.874-6.029 8.418-12.016 12.733-14.281 11.411-5.986 27.821-11.463 39.025-2.706 6.65 5.2 12.98 8.382 21.704 7.061 8.864-1.342 16.246-6.72 21.2-14.04l-1.372-.578c-1.46 9.03-3.03 20.875-11.5 26.253-9.377 5.953-20.967.411-29.099-4.734-5.555-3.514-10.9-4.75-17.142-2.154-3.43 1.427-6.462 3.617-9.666 5.463-4.88 2.811-9.59 4.003-15.216 4.116-.964.02-.967 1.52 0 1.5"/>
        <path fill="#98E3FE" d="M963.765 290.676c6.747 1.92 13.64-.824 19.493-4.692 4.969-3.285 10.694-7.769 16.648-7.947 5.387-.162 9.493 4.044 13.89 6.96 4.787 3.175 10.268 4.924 15.773 4.992 5.615.07 11.414-1.703 15.652-6.007 4.275-4.344 6.536-10.723 8.653-16.863-6.598 5.696-14.44 10.435-22.615 9.634-10.936-1.074-19.411-11.552-29.795-15.698-6.806-2.716-14.305-2.596-21.266-.486-5.624 1.704-10.918 4.665-15.811 8.293-4.42 3.276-5.875 7.906-6.357 14.055-.34 4.36 2.28 6.776 5.735 7.76"/>
        <path fill="#3F2842" d="M963.324 291.108c9.543 2.174 16.94-2.825 24.602-7.81 5.343-3.475 11.196-6.411 17.433-3.285 4.363 2.188 7.796 5.785 12.296 7.806 6.988 3.139 15.563 3.769 22.545.243 8.17-4.125 11.342-12.916 14.157-21.035.266-.77-.732-1.17-1.254-.73-6.116 5.152-13.498 10.122-21.877 9.376-6.087-.542-11.283-4.023-16.181-7.417-9.34-6.475-18.141-11.693-29.984-9.898-8.718 1.322-21.325 6.377-25.687 14.647-3.4 6.446-3.992 15.393 3.95 18.103.916.313 1.309-1.136.399-1.446-6.807-2.323-5.906-10.562-3.054-15.9 2.56-4.792 8.19-7.846 12.938-10.148 11.895-5.768 24.004-5.18 35.05 2.056 6.882 4.506 13.629 10.633 22.162 11.514 8.913.922 16.843-4.35 23.344-9.826l-1.253-.73c-3.425 9.883-7.661 19.96-19.181 21.978-10.37 1.816-17.57-3.574-25.76-8.793-5.334-3.398-10.337-3.391-15.968-.648-9.415 4.589-16.744 13.124-28.278 10.497-.94-.215-1.341 1.23-.4 1.446"/>
        <path fill="#5FD7A3" d="M989.603 254.005c6.512-.103 14.486 1.317 20.027 5.54 4.108 3.13 7.234 7.17 11.07 10.66 3.793 3.451 7.98 4.143 12.635 4.415 9.067.53 18.694-3 24.632-11.35-3.382 13.05-15.619 20.65-27.274 21.447-13.595.931-21.674-16-34.882-17.145-7.378-.64-14.975 1.527-21.108 6.415-3.643 2.904-6.634 8.255-10.72 10.127-2.176.996-4.918.818-6.53-1.157-6.594-8.082 11.107-21.868 16.032-24.716 4.677-2.705 10.348-4.145 16.118-4.236"/>
        <path fill="#3F2842" d="M989.278 254.5c8.963.012 16.815 2.385 23.34 8.7 4.86 4.702 8.702 10.033 15.69 11.39 11.46 2.229 22.947-1.873 29.981-11.195l-1.37-.578c-4.27 14.807-22.83 26.557-37.308 17.86-10.362-6.223-17.153-15.66-30.463-13.972-6.41.812-12.67 3.68-17.233 8.289-2.474 2.498-4.47 5.79-7.548 7.626-5.82 3.47-8.902-2.472-7.333-7.027 1.87-5.427 7.166-9.992 11.541-13.466 6.07-4.82 12.876-7.32 20.703-7.626.963-.038.967-1.538 0-1.5-11.6.455-20.98 5.926-28.605 14.429-3.556 3.966-10.499 16.25-.492 17.715 5.682.832 9.435-5.735 12.795-9.091 6.344-6.337 16.981-9.954 25.794-7.334 11.043 3.283 17.652 15.9 29.782 16.5 13.5.67 26.167-9.364 29.813-22.004.252-.876-.889-1.217-1.37-.578-8.994 11.919-27.557 15.428-38.56 4.39-4.327-4.341-8.232-8.924-14.006-11.348-4.787-2.01-9.996-2.673-15.15-2.68-.966-.001-.967 1.499 0 1.5"/>
        <path fill="#EFF8FA" d="M850.057 330.153c-3.8 7.756-9.746 19.337-5.705 26.09 3.684 6.162 12.034 1.439 15.6-2.334 2.959-3.13 4.954-7.021 7.017-10.8 7.552-13.841 19.963-19.746 33.626-26.364 7.982-3.866 16.812-10.27 16.807-20.087-.01-19.866-27.36-22.08-40.712-14.952-7.727 4.124-10.936 12.965-14.413 20.47-3.745 8.084-6.973 16.304-10.553 24.449a99.931 99.931 0 0 1-1.667 3.528"/>
        <path fill="#8386B4" d="M859.95 353.427c1.857-1.964 3.333-4.227 4.686-6.575-.346-.463-.826-.883-1.494-1.234-1.61-.848-3.56-.071-5.205.705.99-.467-.777-3.127-1.164-3.48-.936-.845-2.531-1.68-3.824-1.666-.661.008-3.421.944-2.928 2.08-.337-.776-.155-1.704-.494-2.48-.288-.656-.913-1.108-1.568-1.402-.782-.351-1.527-.44-2.234-.332-2.436 6.036-3.974 12.375-1.374 16.719 3.684 6.16 12.034 1.438 15.6-2.335"/>
        <path fill="#98E3FE" d="M863.548 346.659a4.815 4.815 0 0 0-.925-.624 3.31 3.31 0 0 0-1.569-.369c-1.012 0-2.072.373-3.054.807.851-1.931 1.588-3.923 2.345-5.891 4.752-12.357 13.637-19.62 23.864-26.582 3.112 2.024 6.474 3.631 9.989 4.848-9.444 4.834-18.595 9.958-25.078 18.639a44.098 44.098 0 0 0-3.589 5.557c-.656 1.203-1.306 2.418-1.983 3.615"/>
        <path fill="#565D9A" d="M850.259 358.742a9.916 9.916 0 0 1-2.259-.264c2.904-1.248 5.639-3.791 7.182-5.93 1.285-1.783 2.295-3.729 3.183-5.741.982-.434 2.042-.807 3.054-.807a3.31 3.31 0 0 1 1.569.369c.36.189.666.399.925.624-1.448 2.564-3.017 5.051-5.033 7.185-1.377 1.457-3.467 3.051-5.726 4.104a9.316 9.316 0 0 1-2.895.46"/>
        <path fill="#3F2842" d="M849.218 329.575c-3.349 6.826-8.409 15.407-6.965 23.334 1.183 6.502 6.835 8.125 12.355 5.47 8.391-4.037 10.903-13.236 16.09-20.225 6.27-8.45 15.442-13.729 24.695-18.33 7.37-3.666 15.512-7.129 19.993-14.472 3.334-5.463 3.456-12.666.14-18.185-6.39-10.638-22.282-11.676-33.044-8.768-8.419 2.274-13.637 7.793-17.478 15.474-5.824 11.646-10.094 24.003-15.786 35.702-.42.864.872 1.626 1.295.757 3.896-8.006 7.02-16.375 10.645-24.503 3.136-7.034 5.994-15.596 11.85-20.887 8.572-7.745 24.618-8.51 34.567-3.117 5.505 2.983 8.942 8.296 8.886 14.634-.08 9.048-7.9 15.055-15.234 18.84-12.345 6.372-25.142 11.925-33.106 23.938-4.223 6.37-9.3 20.364-19.308 18.935-11.955-1.707-.905-22.53 1.7-27.84.424-.864-.87-1.625-1.295-.757"/>
        <path fill="#FCF6F7" d="M885.649 220.977c-.9.265-1.797.492-2.677.683-8.29 1.803-23.44 4.074-30.623-1.848-4.067-3.353-5.294-9.707-3.628-14.588 1.622-4.753 6.046-7.18 10.452-8.928 10.842-4.302 23.952-6.778 34.632-.512 4.575 2.684 6.986 8.028 5.705 13.334-1.567 6.485-7.77 10.062-13.861 11.859"/>
        <path fill="#8FA2C7" d="M867.177 223.267H867c5.811-.021 11.798-1.059 16.012-1.975.412-.089.827-.187 1.245-.292l.155.05c-.35.086-.7.167-1.046.242-4.256.926-10.323 1.975-16.189 1.975"/>
        <path fill="#98E3FE" d="M866.512 223.107c-5.496-.02-10.799-.972-14.256-3.823a10.907 10.907 0 0 1-2.256-2.576 10.399 10.399 0 0 0 3.595 2.672c1.498.668 3.112.962 4.746.962l.167-.001c2.182-.02 4.392-.561 6.399-1.434 3.274-1.423 6.116-3.646 8.886-5.907 2.576 3.622 5.83 6.484 9.976 7.84-.418.105-.833.203-1.245.292-4.214.916-10.201 1.954-16.012 1.975"/>
        <path fill="#EFF8FA" d="M886.634 98.033c-5.84-.345-11.199 2.022-17.742 5.26-14.07 6.964-8.814 20.683-2.14 31.242 4.926 7.793 11.111 14.762 15.527 22.883 4.447 8.177 7.146 17.691 8.59 26.858 3.027 19.22.578 39.977-9.033 57.097-9.21 16.406-19.738 34.675-12.214 53.88 6.257 15.97 21.71 24.595 38.257 25.761 38.261 2.695 62.204-28.904 69.025-63.358 11.712-59.167-28.935-128.256-80.285-156.49-3.633-1.997-6.877-2.949-9.985-3.133"/>
        <path fill="#98E3FE" d="M912.301 320.382c-7.87.001-15.707-1.645-22.752-5.101-8.598-4.218-15.58-11.387-19.099-20.341-4.205-10.7-2.55-22.044 1.58-32.473 3.927-9.922 10.162-18.658 14.281-28.463a81.683 81.683 0 0 0 3.965-11.993c3.545-.168 6.842-1.265 9.8-3.011-1.617 5.366-3.779 10.556-6.526 15.448-9.21 16.406-19.738 34.675-12.214 53.88 5.26 13.424 20.663 22.867 34.927 22.866 2.704 0 5.37-.34 7.914-1.056 1.047 2.896 2.815 5.43 5.03 7.701a57.79 57.79 0 0 1-16.906 2.543"/>
        <path fill="#3F2842" d="M887.338 97.004c-8.05-.144-19.571 3.827-24.597 10.465-4.322 5.708-2.86 13.112-.221 19.205 3.97 9.167 10.744 16.688 16.219 24.938 7.103 10.704 10.97 22.998 12.549 35.694 1.479 11.897.852 24.123-2.261 35.718-3.223 12-10.105 21.979-15.332 33.094-8.391 17.843-9.996 38.63 5.453 53.217 12.577 11.877 31.842 14.656 48.198 10.6 16.012-3.971 29.025-15.015 37.788-28.73 20.075-31.417 18.419-71.483 5.322-105.178-7.691-19.783-19.111-38.11-33.29-53.894-7.06-7.858-14.847-15.073-23.3-21.414-7.662-5.75-16.706-12.787-26.528-13.715-.961-.09-.954 1.41 0 1.5 8.99.849 17.559 7.448 24.649 12.676 7.216 5.32 13.943 11.296 20.158 17.756 12.528 13.02 23.032 28.019 31.02 44.223 15.289 31.005 21.496 67.848 8.895 100.862-5.904 15.47-15.983 29.992-30.471 38.495-15.26 8.954-35.41 10.464-51.441 2.599-8.598-4.218-15.58-11.387-19.1-20.341-4.204-10.7-2.55-22.044 1.58-32.473 3.928-9.922 10.163-18.658 14.282-28.463 3.63-8.64 5.682-17.877 6.37-27.212 1.672-22.638-4.43-43.86-17.732-62.13-5.638-7.743-12.698-16.32-13.921-26.174-1.613-13.007 14.77-20.014 25.71-19.818.967.018.967-1.482 0-1.5"/>
        <path fill="#EFF8FA" d="M921.44 161.77c24.329-27.023-14.494-55.974-39.071-59.362-4.246-.585-8.681-.705-12.706.765-9.768 3.566-9.77 15.8-9.636 24.638.158 10.332 1.295 20.622 2.432 30.893 1.74 15.726 2.23 30.413 8.309 45.305 2.313 5.668 5.377 11.437 10.64 14.563 9.979 5.925 23.587-.742 29.26-10.865 5.675-10.123 5.608-22.35 5.476-33.953-.024-2.086-.033-4.237.759-6.166.94-2.288 2.883-3.978 4.538-5.817"/>
        <path fill="#98E3FE" d="M978.712 239.491c-1.091-16.854-5.665-33.84-12.847-49.901l.007-.003v.001a47.178 47.178 0 0 0 3.404-1.753c6.281 16.507 9.849 34.145 9.436 51.656m-28.728-78.05c-6.922-10.013-14.832-19.279-23.436-27.437-7.066-15.948-28.686-28.633-44.447-30.806-1.774-.244-3.581-.408-5.377-.408-.913 0-1.823.043-2.724.138.336-.578.725-1.14 1.171-1.685 3.886-1.481 8.037-2.243 11.645-2.243.152 0 .301.002.451.004 8.991.849 17.559 7.448 24.649 12.676 7.216 5.321 13.943 11.296 20.158 17.756a175.874 175.874 0 0 1 21.775 27.758 33.187 33.187 0 0 0-3.865 4.247"/>
        <path fill="#D5AAC3" d="M870 103.49a30.573 30.573 0 0 1 5.101-2.49 12.875 12.875 0 0 0-1.171 1.685c-1.335.14-2.651.397-3.93.805"/>
        <path fill="#39223A" d="M978.461 241.733c-.037-.82-.082-1.642-.135-2.463.413-17.511-3.155-35.149-9.436-51.656l.176-.1c6.72 17.659 10.218 36.178 9.395 54.219m-24.998-84.76a175.874 175.874 0 0 0-21.775-27.758c-6.215-6.46-12.942-12.435-20.158-17.756-7.09-5.228-15.658-11.827-24.649-12.676-.15-.002-.299-.004-.451-.004-3.608 0-7.759.762-11.645 2.243a30.573 30.573 0 0 0-5.101 2.49h-.001c-.056-.264-.228-.489-.48-.542 5.827-2.864 10.737-4.97 15.951-4.97.377 0 .755.011 1.136.033 3.107.184 6.352 1.136 9.985 3.133 22.269 12.245 42.523 32.171 57.367 55.642l-.179.165M860 113.116c.462-2.066 1.413-4.013 2.987-5.765-1.351 1.685-2.312 3.645-2.987 5.765"/>
        <path fill="#98E3FE" d="M926.771 133.214c-9.273-8.792-19.353-16.3-29.887-22.092-3.633-1.997-6.878-2.949-9.985-3.133a18.797 18.797 0 0 0-1.135-.034c-5.408 0-10.49 2.267-16.607 5.294a21.232 21.232 0 0 0-3.157 1.899c.89-3.828 2.066-7.949 4.009-11.363a.793.793 0 0 0 .29-.494c.058-.098.118-.194.178-.289l-.168.052a.988.988 0 0 0-.017-.111h.001a19.644 19.644 0 0 1 3.93-.805 25.988 25.988 0 0 1 2.724-.138c1.796 0 3.603.164 5.377.408 15.761 2.173 37.381 14.858 44.447 30.806M888.43 221.086c-4.081 0-7.522-1.594-10.43-4.325 6.576-.318 13.396-3.564 17.897-8.524 5.817-6.41 8.783-14.678 10.941-23.171 3.773-4.946 5.582-9.655 3.411-13.317.206-.421.442-.827.715-1.213 1.39-1.964 3.577-3.164 5.559-4.536-2.963 4.472-1.97 10.089-2.019 15.243-.135 14.228-2.554 30.766-16.922 37.535-3.363 1.585-6.403 2.308-9.152 2.308"/>
        <path fill="#E9CDDA" d="M860.827 143.391c-.575-6.64-.97-13.323-.778-19.979.02-.713.051-1.434.098-2.158.08.34.165.681.26 1.022.855-2.32 2.42-4.45 4.905-6.276a180.67 180.67 0 0 0-.678 3.066c-1.718 8.029-2.826 16.17-3.807 24.325"/>
        <path fill="#D5AAC3" d="M860.259 121.422c-.094-.341-.18-.682-.259-1.022.429-6.704 2.167-13.653 8.982-16.505a.897.897 0 0 0 .192-.112c-1.943 3.414-3.119 7.535-4.009 11.363-2.485 1.826-4.05 3.956-4.906 6.276m9.205-18.133a.944.944 0 0 0 .01-.237l.168-.052c-.06.095-.12.191-.178.289"/>
        <path fill="#3F2842" d="M869.296 103.06c-11.627 4.868-10.485 19.738-10.042 30.202.42 9.929 1.657 19.785 2.67 29.664.907 8.839 1.589 17.73 3.367 26.45 2.436 11.948 7.48 30.776 22.028 32.643 13.433 1.724 23.989-10.008 27.278-21.842 2.514-9.047 1.698-18.144 2.127-27.384.29-6.26 5.228-9.327 8.418-14.15 2.259-3.415 3.713-7.101 4.37-11.14.155-.944-1.291-1.35-1.446-.4-1.258 7.724-5.893 12.189-10.392 18.135-3.448 4.558-2.367 10.434-2.418 15.806-.135 14.228-2.554 30.766-16.922 37.535-33.47 15.77-34.912-53.815-36.611-71.793-.741-7.832-1.335-15.742-1.108-23.615.21-7.313 1.529-15.503 9.08-18.663.877-.368.492-1.82-.4-1.447"/>
        <path fill="#EFF8FA" d="M1024.327 133.072c2.376.143 4.707.509 6.949 1.167 1.437.422 2.865 1.017 3.953 2.048 3.717 3.52.717 10.41-2.57 13.124-3.747 3.093-8.694 4.183-13.312 5.696-11.853 3.887-21.742 11.637-31.601 19.008-8.187 6.12-22.758 19.346-33.81 17.662-8.713-1.33-10.961-11.671-9.542-18.92 2.586-13.196 13.552-20.677 25.127-25.731 9.692-4.231 19.65-7.947 29.937-10.46 7.69-1.88 16.562-4.094 24.869-3.594"/>
        <path fill="#8386B4" d="M1035.768 136.284c-1.088-1.03-2.516-1.624-3.953-2.047-2.242-.66-4.573-1.024-6.949-1.167-3.565-.215-7.231.086-10.866.63.014.25.026.497.078.769.373 1.963 2.373 3.107 4.166 3.989-1.079-.531-2.156 2.806-2.192 3.379-.088 1.383.287 3.323 1.184 4.425.458.562 3.149 2.292 3.789 1.09-.438.822-1.358 1.3-1.792 2.122-.368.697-.329 1.542-.134 2.306.359 1.403 1.197 2.296 2.303 2.845 4.164-1.293 8.456-2.46 11.796-5.216 3.287-2.713 6.287-9.603 2.57-13.125"/>
        <path fill="#8FA2C7" d="M970.001 187.04l-.001-.001c6.68-3.997 13.071-9.473 17.55-12.821 9.859-7.371 19.748-15.121 31.601-19.008 4.618-1.513 9.565-2.603 13.313-5.696.774-.639 1.532-1.51 2.191-2.514-.657 1.004-1.415 1.875-2.189 2.514-3.747 3.093-8.695 4.183-13.312 5.696-11.854 3.887-21.743 11.637-31.602 19.008-4.48 3.349-10.871 8.825-17.551 12.822"/>
        <path fill="#39223A" d="M969 187.668v-.001c.382-.217.761-.439 1.141-.667l.001.001c-.379.227-.761.45-1.142.667"/>
        <path fill="#D5AAC3" d="M966 189.754v-.001a47.388 47.388 0 0 0 3.404-1.753v.001a47.178 47.178 0 0 1-3.404 1.753"/>
        <path fill="#351E34" d="M969 187.101v-.001l.176-.1v.001l-.176.1"/>
        <path fill="#98E3FE" d="M965.742 189.6L963 183.578c9.144-3.296 18.875-11.884 25.015-16.474 9.859-7.37 19.748-15.121 31.602-19.007.295-.097.592-.192.889-.286-.476.61-1.182 1.057-1.545 1.746-.368.697-.329 1.542-.134 2.306.359 1.403 1.197 2.296 2.303 2.845 4.164-1.293 8.456-2.459 11.796-5.216 1.912-1.579 3.728-4.571 4.179-7.492-.256 1.758-1.01 3.547-1.987 5.041-.659 1.004-1.417 1.875-2.191 2.514-3.748 3.093-8.695 4.183-13.313 5.696-11.853 3.887-21.742 11.637-31.601 19.008-4.479 3.348-10.87 8.824-17.55 12.821-.38.228-.759.45-1.141.667l-.176.1a47.388 47.388 0 0 1-3.404 1.753"/>
        <path fill="#565D9A" d="M1021.449 154.191c-1.106-.549-1.944-1.442-2.303-2.845-.195-.764-.234-1.609.134-2.306.363-.689 1.069-1.136 1.545-1.746 4.356-1.376 8.915-2.515 12.423-5.41 1.338-1.105 2.619-2.905 3.428-4.884.802 1.306.982 2.882.748 4.483-.451 2.921-2.267 5.913-4.18 7.492-3.34 2.757-7.631 3.923-11.795 5.216"/>
        <path fill="#EFF8FA" d="M898.915 167.457c3.37-.725 6.686-.719 9.224.985 16.142 10.84-25.914 37.991-33.37 44.104-2.996 2.455-6.04 4.941-9.592 6.485-3.55 1.544-7.738 2.051-11.275.473-5.359-2.39-7.518-8.873-6.753-14.359 1.203-8.638 9.402-14.145 15.897-18.865 10.423-7.577 23.065-16.064 35.87-18.823"/>
        <path fill="#8386B4" d="M908.046 168.442c-2.538-1.704-5.855-1.71-9.224-.985-4.658 1.004-9.293 2.772-13.809 4.972-.07.824.135 1.717.718 2.685 1.032 1.71 3.306 2.088 5.293 2.293-1.196-.123-1.046 3.38-.88 3.93.397 1.326 1.423 3.015 2.647 3.737.625.368 3.75 1.055 3.932-.293-.124.921-.822 1.69-.943 2.611-.103.781.227 1.561.676 2.208 1.14 1.646 2.783 2.108 4.601 1.856 8.96-8.668 14.815-17.758 6.99-23.014"/>
        <path fill="#D5AAC3" d="M859 220.361c2.169-.026 4.366-.566 6.362-1.434 3.282-1.427 6.131-3.659 8.909-5.927l.014.02c-2.77 2.261-5.612 4.484-8.886 5.907-2.007.873-4.217 1.414-6.399 1.434"/>
        <path fill="#E9CDDA" d="M875.013 211.937l-.013-.019c5.488-4.33 23.847-16.632 32.269-27.725l-.019.075c-8.46 11.089-26.791 23.366-32.237 27.669m35.631-40.951c-.595-1.017-1.496-1.954-2.745-2.793a.52.52 0 0 1-.04-.027 5.106 5.106 0 0 0-.262-.165V168c.112.067.23.12.339.193 1.236.83 2.13 1.754 2.725 2.758a.378.378 0 0 1-.017.035"/>
        <path fill="#D5AAC3" d="M907 184.317l.019-.075c3.723-4.903 5.504-9.569 3.375-13.207a.378.378 0 0 0 .017-.035c2.171 3.662.362 8.371-3.411 13.317"/>
        <path fill="#39223A" d="M874.014 212.957l-.014-.02.682-.558c.144-.119.302-.245.472-.379l.013.019c-.16.127-.31.247-.447.36l-.706.578"/>
        <path fill="#98E3FE" d="M858.298 220.217c-1.633 0-3.248-.294-4.746-.962-1.931-.862-3.439-2.258-4.552-3.944.43.278.878.536 1.36.751 1.499.669 3.113.964 4.747.964 2.223-.001 4.481-.546 6.528-1.435 3.551-1.544 6.596-4.031 9.591-6.486 3.652-2.994 15.602-11.034 24.949-19.733.948 1.356 2.241 1.899 3.692 1.9.293 0 .592-.023.895-.065 8.96-8.668 14.815-17.758 6.989-23.014 1.249.839 2.15 1.776 2.745 2.793 2.129 3.638.348 8.304-3.375 13.207-8.422 11.093-26.781 23.395-32.269 27.725-.17.134-.328.26-.472.379l-.682.558c-2.778 2.268-5.627 4.5-8.909 5.927-1.996.868-4.193 1.408-6.362 1.434l-.129.001m49.335-52.101a5.106 5.106 0 0 0-.184-.115V168c.062.038.123.076.184.116"/>
        <path fill="#565D9A" d="M899.692 191.272c-1.451-.001-2.744-.544-3.692-1.9 8.161-7.595 14.338-15.693 11.274-21.372.062.038.123.076.184.116l.078.05a.036.036 0 0 0 .01.007l.03.02c7.826 5.256 1.971 14.346-6.989 23.014a6.527 6.527 0 0 1-.895.065"/>
        <path fill="#EFF8FA" d="M860.61 112.088c-3.287-1.267-6.616-2.544-10.113-2.958-3.497-.414-7.238.123-10.078 2.205-.53.389-1.045.856-1.274 1.473-.19.515-.165 1.084-.084 1.627.38 2.547 1.872 4.795 3.574 6.727 2.307 2.62 5.13 4.87 8.416 6.047 3.287 1.177 7.075 1.192 10.171-.422"/>
        <path fill="#3F2842" d="M861.456 111.125c-5.35-2.051-11.315-4.247-17.073-2.475-3.206.986-6.017 2.729-5.258 6.368 2.005 9.607 14.35 15.987 23.123 12.177.884-.384.121-1.676-.756-1.295-7.2 3.126-17.884-1.85-20.313-9.573-3.447-10.96 15.62-5.39 19.88-3.756.9.346 1.291-1.104.397-1.446"/>
        <path fill="#8386B4" d="M858.963 116.51c1.081.327 2.098.832 3.11 1.335.197.099.4.2.563.35.233.212.372.509.477.807a4.947 4.947 0 0 1 .016 3.202c-.062.183-.137.366-.265.51-.163.186-.397.292-.63.373-.932.327-1.952.346-2.924.17-.972-.173-1.9-.535-2.794-.956-1.132-.534-2.235-1.178-3.087-2.095-.786-.845-1.76-2.494-1.319-3.71.22-.603 1.103-.45 1.626-.47.821-.033 1.644-.04 2.464.014.934.06 1.865.202 2.763.47"/>
        <path fill="#3F2842" d="M861.892 122.265c-1.646.088-3.379.16-4.977-.321-2.046-.617-4.905-2.56-4.35-5.007.212-.941-1.234-1.342-1.447-.4-.586 2.589 1.09 4.41 3.121 5.746 2.321 1.524 4.945 1.626 7.653 1.482.96-.051.967-1.551 0-1.5"/>
        <path fill="#3F2842" d="M862.469 117.05c-5.481-2.98-11.953-2.709-17.13.798-.795.538-.046 1.84.756 1.295 4.739-3.21 10.568-3.543 15.618-.799.848.462 1.606-.833.756-1.295"/>
        <path fill="#8386B4" d="M878.376 118.012c4.048-7.044-.325-21.529-10.001-20.998-7.491.412-13.032 9.113-10.922 16.138 2.59 8.62 15.675 13.828 20.887 4.921l.036-.06"/>
        <path fill="#FFFFFE" d="M879.093 118.662c.708-4.428-.368-8.83-3.103-12.406-3.299-4.314-7.846-5.596-13.039-6.247-1.274-.159-1.262 1.842 0 2 4.275.536 8.147 1.51 11.039 4.928 2.614 3.089 3.813 7.201 3.175 11.193-.201 1.259 1.725 1.801 1.928.532"/>
        <path fill="#3F2842" d="M879.662 118.022c3.007-5.774 1.71-13.924-2.695-18.69-5.093-5.51-13.16-3.73-17.301 2.011-4.48 6.208-3.191 14.277 2.942 18.808 5.388 3.98 13.377 4.213 17.054-2.129.485-.836-.81-1.592-1.295-.756-3.444 5.938-10.973 5.006-15.591 1.118-5.335-4.492-5.694-12.1-.984-17.287 10.519-11.58 21.878 5.985 16.575 16.17-.446.854.849 1.613 1.295.755"/>
        <path fill="#8386B4" d="M866.101 112.388c2.361-5.903-.984-18.496-7.213-18.387-4.82.083-8.086 7.354-6.47 13.46 1.982 7.495 10.618 12.437 13.663 4.978l.02-.051"/>
        <path fill="#FFFFFE" d="M865.52 113.223c1.71-4.18 1.36-8.906-1.248-12.676-2.472-3.573-7.194-4.657-11.307-4.538-1.284.038-1.29 2.038 0 2 3.75-.11 8 .83 10.044 4.279 1.925 3.248 1.988 6.97.582 10.404-.487 1.19 1.447 1.708 1.929.53"/>
        <path fill="#3F2842" d="M866.57 112.188c1.823-5.156.6-12.298-2.85-16.562-3.318-4.1-8.367-3.178-10.947 1.234-3.313 5.663-1.846 13.469 3.252 17.568 3.825 3.076 8.605 2.565 10.545-2.24.362-.895-1.088-1.284-1.446-.4-2.4 5.94-8.53 2.163-10.824-1.615-2.549-4.2-2.642-10.985 1.278-14.487 4.443-3.97 8.083 1.693 9.293 5.458 1.087 3.378 1.452 7.253.253 10.645-.322.912 1.127 1.304 1.446.399"/>
        <path fill="#8386B4" d="M857.034 103.767c.466-5.684-4.916-16.66-9.632-15.709-3.65.737-4.495 7.787-1.89 13.111 3.197 6.534 10.882 9.838 11.518 2.647l.004-.049"/>
        <path fill="#FFFFFE" d="M844.712 90.964c3.192.812 5.647 3.132 7.373 5.868 1.323 2.096 3.519 6.597 1.555 8.956-.818.982.59 2.405 1.414 1.414 2.276-2.733 1.056-6.944-.361-9.803-1.911-3.853-5.193-7.28-9.45-8.364-1.247-.317-1.78 1.611-.531 1.93"/>
        <path fill="#3F2842" d="M857.553 103.365c.237-5.08-2.265-11.36-6.06-14.782-3.607-3.252-7.445-1.173-8.275 3.317-1.043 5.637 1.732 12.251 6.708 15.208 3.732 2.217 7.25.681 7.627-3.743.082-.96-1.419-.956-1.5 0-.468 5.49-5.704 2.781-7.982.232-2.848-3.187-4.666-8.593-3.036-12.758 2.14-5.468 6.652-.264 8.247 2.562 1.678 2.971 2.932 6.514 2.771 9.964-.045.965 1.455.963 1.5 0"/>
        <path fill="#8386B4" d="M847.006 95.583c-.053-4.681-5.566-12.848-9.55-11.417-3.083 1.107-3.248 6.952-.58 10.914 3.276 4.862 10.158 6.474 10.13.544v-.041"/>
        <path fill="#FFFFFE" d="M835.958 87.005c6.733.604 8.785 5.808 8.282 11.955-.105 1.282 1.896 1.276 2 0 .606-7.405-2.432-13.251-10.282-13.955-1.28-.115-1.274 1.886 0 2"/>
        <path fill="#3F2842" d="M848.51 95.236c-.19-4.187-2.902-9.09-6.462-11.36-3.417-2.177-6.585-.064-6.992 3.767-.499 4.717 2.375 9.686 6.736 11.563 3.41 1.468 6.75.024 6.718-3.97-.008-.965-1.508-.967-1.5 0 .033 4.057-3.885 3.362-6.252 1.667-2.914-2.086-4.805-6.004-4.149-9.6.77-4.22 4.35-2.84 6.433-.592 2.08 2.243 3.827 5.421 3.968 8.525.043.961 1.544.967 1.5 0"/>
        <path fill="#8386B4" d="M839.605 89.87c-.886-3.996-6.598-10.956-9.403-9.726-2.171.952-1.243 5.942 1.524 9.319 3.396 4.143 8.978 5.505 7.886.442l-.007-.034"/>
        <path fill="#FFFFFE" d="M831.45 82.901c3.264 2.225 6.089 5.381 5.719 9.571-.113 1.281 1.887 1.273 2 0 .433-4.905-2.892-8.696-6.71-11.298-1.065-.726-2.067 1.006-1.01 1.727"/>
        <path fill="#3F2842" d="M841.067 89.301c-.906-3.616-3.69-7.45-6.812-9.484-2.814-1.832-5.47-.478-5.241 2.997.28 4.247 3.463 8.631 7.397 10.242 3.079 1.261 5.39-.398 4.656-3.755-.206-.942-1.653-.544-1.447.4.873 3.992-3.582 1.724-5.118.408-2.103-1.804-4.495-5.31-3.98-8.269.57-3.263 4.038 0 5.147 1.19 1.732 1.86 3.327 4.177 3.95 6.67.236.935 1.683.54 1.448-.399"/>
        <path fill="#8386B4" d="M833.219 82.396c-1.416-3.146-7.391-7.697-9.546-6.046-1.668 1.28-.051 5.246 2.845 7.455 3.554 2.711 8.48 2.61 6.714-1.382l-.013-.027"/>
        <path fill="#FFFFFE" d="M822.523 76.82c3.044 1.331 6.395 4.002 6.781 7.533.138 1.265 2.14 1.28 2 0-.466-4.27-3.987-7.606-7.772-9.26-1.167-.51-2.187 1.212-1.009 1.727"/>
        <path fill="#3F2842" d="M833.572 81.728c-1.4-2.854-4.554-5.616-7.615-6.533-2.878-.861-4.584 1.247-3.742 4.019 1.044 3.435 4.448 6.353 8.003 6.836 2.918.396 4.583-1.569 3.354-4.322-.393-.88-1.686-.118-1.295.757 1.395 3.123-2.955 1.969-4.35 1.236-1.978-1.039-4.454-3.477-4.468-5.904-.015-2.683 3.506-.625 4.591.115 1.692 1.155 3.315 2.695 4.227 4.553.425.867 1.72.107 1.295-.757"/>
        <path fill="#EFF8FA" d="M1000.634 340.436c1.896 6.027 4.134 15.338-.284 20.823-6.95 8.627-17.058-.403-22.096-6-7.038-7.821-15.12-15.042-23.97-20.777-9.776-6.336-25.85-12.142-30.093-23.877-2.882-7.965-.475-17.822 6.592-22.815 2.752-1.945 6.209-2.641 9.577-2.765 27.109-1.003 49.11 28.79 58.676 51.06a46.584 46.584 0 0 1 1.598 4.35"/>
        <path fill="#8386B4" d="M995.01 337.636c-1.753.959-2.226 3.215-2.514 5.19.173-1.188-3.333-1.185-3.89-1.044-1.341.342-3.073 1.296-3.844 2.489-.395.608-1.213 3.702.127 3.94-.916-.163-1.654-.893-2.57-1.053-.776-.135-1.569.162-2.235.583-2.509 1.586-2.475 4.386-1.352 7.274l.162.175c5.037 5.597 15.148 14.627 22.097 6 4.417-5.485 2.18-14.796.283-20.823a51.76 51.76 0 0 0-.456-1.377c-1.456-1.76-3.358-2.694-5.808-1.354"/>
        <path fill="#6D84B4" d="M994.023 364H994 994.11h-.087"/>
        <path fill="#98E3FE" d="M994.325 364.03c-5.688-.015-11.725-5.636-15.262-9.566-7.039-7.821-15.119-15.042-23.969-20.777-9.777-6.336-25.85-12.142-30.094-23.877l5.564-1.81c5.848 9.442 19.631 14.687 28.378 20.354 7.968 5.163 15.313 11.532 21.834 18.459a5.46 5.46 0 0 0-.349.202c-2.509 1.586-2.475 4.386-1.352 7.274l.162.175c3.519 3.909 9.513 9.494 15.175 9.566h-.087"/>
        <path fill="#565D9A" d="M994.092 364.217h-.023c-5.662-.072-11.656-5.657-15.175-9.566l-.162-.175c-1.123-2.888-1.157-5.688 1.352-7.274a5.46 5.46 0 0 1 .349-.202c.722.766 1.433 1.539 2.134 2.318 3.541 3.935 9.59 9.565 15.284 9.565 1.636 0 3.243-.465 4.753-1.568-.404 1.209-.983 2.336-1.788 3.336-2.039 2.531-4.349 3.542-6.724 3.566"/>
        <path fill="#5FD7A3" d="M865.302 138.196c-1.444.988-3.263 1.363-5.002 1.177-1.677-.178-3.183-.68-4.879-.442-1.629.228-3.088 1.17-4.325 2.206-1.556 1.303-2.942 2.849-4.728 3.816a8.835 8.835 0 0 1-5.404.975c-1.337-.187-2.61-.68-3.856-1.198-1.042-.433-2.075-.887-3.108-1.34 4.267-.93 8.554-2.53 11.62-5.64 2.076-2.104 3.536-4.842 5.971-6.518 2.499-1.722 5.673-2.081 8.706-2.188a68.863 68.863 0 0 1 3.775-.031c1.307.026 2.767.158 3.626 1.142 1.921 2.2-.427 6.695-2.396 8.04"/>
        <path fill="#3F2842" d="M864.669 137.326c-4.505 2.462-9.092-.717-13.552 2.45-1.856 1.318-3.325 3.292-5.382 4.307-4.043 1.994-7.88.068-11.611-1.564l-.18 1.371c5.666-1.352 10.136-3.559 13.88-8.085 2.99-3.613 5.846-5.725 10.694-6.154 1.36-.12 3.04-.414 4.356-.116 4.513 1.024 4.449 5.497 1.643 7.908-.734.63.332 1.687 1.06 1.061 1.97-1.693 4.184-5.094 3.118-7.849-1.186-3.069-5.05-2.667-7.71-2.604-4.075.095-8.152.548-11.323 3.346-1.855 1.637-3.07 3.872-4.827 5.6-3.107 3.058-7.146 4.458-11.29 5.447-.583.14-.781 1.107-.178 1.37 4.6 2.012 9.06 4.055 13.76 1.154 1.147-.707 2.073-1.655 3.1-2.514 2.979-2.49 5.804-2.369 9.618-2.58 2.103-.117 3.642-.193 5.58-1.253.848-.463.092-1.759-.756-1.295"/>
        <path fill="#98E3FE" d="M864.78 133.333c-3.524 1.64-6.537-1.72-10.125-1.022-1.439.28-2.654 1.226-3.717 2.235-1.77 1.679-3.284 3.608-4.994 5.349-1.709 1.741-3.672 3.323-5.993 4.077-2.32.754-5.056.558-6.951-.978a9.102 9.102 0 0 0 5.679-2.218c2.199-1.917 3.323-4.746 4.831-7.243 1.171-1.942 2.601-3.714 4.094-5.42.565-.646 1.142-1.285 1.802-1.834.769-.639 1.641-1.146 2.545-1.575a17.885 17.885 0 0 1 6.057-1.644c3.136-.276 6.5.374 8.837 2.485 1.124 1.015 1.97 2.5 1.273 3.957-.772 1.616-1.647 3.044-3.338 3.831"/>
        <path fill="#3F2842" d="M864.324 132.335c-4.76 1.458-8.356-2.844-12.904.323-5.438 3.785-10.051 14.545-18.297 9.413l-.38 1.398c5.917-.686 7.98-4.407 10.794-9.198 2.323-3.954 5.373-8.059 9.81-9.729 1.893-.712 3.959-1.115 5.986-1.065a10.996 10.996 0 0 1 5.629 1.505c2.716 3.213 2.444 5.69-.817 7.428-.817.511-.065 1.81.757 1.296 8.408-5.249.834-11.94-6.36-11.7-4.242.142-8.36 1.732-11.292 4.824-4.648 4.904-7.02 14.27-14.506 15.14-.71.081-1.056.975-.378 1.396 4.479 2.788 9.1 1.083 12.796-2.195 3.967-3.52 6.469-9.147 12.889-7.963 2.544.47 4.074 1.37 6.672.574.92-.283.528-1.73-.4-1.447"/>
        <path fill="#8386B4" d="M860.55 120.02a13.426 13.426 0 0 0-5.321.81c-5.168 1.903-9.208 6.251-11.98 10.887-1.446 2.417-2.504 5.072-4.195 7.325-1.69 2.253-4.239 4.125-7.054 4.03 1.739 1.021 4.01 1.068 5.791.12 1.198-.637 2.137-1.66 3.026-2.686 2.041-2.356 3.907-4.84 5.717-7.376 1.742-2.442 3.835-4.944 6.617-6.226 2.681-1.236 6.437-.849 9.143.175 1.021.386 2.008.908 3.089 1.062 1.082.155 2.327-.158 2.891-1.093.509-.844.4-1.54.016-2.449-1.243-2.929-4.764-4.415-7.74-4.58"/>
        <path fill="#3F2842" d="M860.275 119.006c-5.502.089-10.06 2.555-13.795 6.528-4.663 4.959-7.091 15.921-14.755 16.525-.881.069-.972 1.148-.2 1.473 5.54 2.326 8.71-1.572 11.92-5.643 2.088-2.647 3.85-5.67 6.263-8.04 4.776-4.691 8.844-2.727 14.418-1.47 2.305.52 4.973-.131 4.939-2.994-.05-4.176-5.564-6.002-8.79-6.379-.957-.112-.948 1.389 0 1.5 1.7.105 3.277.604 4.73 1.497.52 4.279-.408 5.641-2.787 4.09-1.063-.167-2.091-.646-3.176-.802-2.777-.4-5.478-.066-7.88 1.439-6.038 3.786-10.786 18.905-19.238 15.355-.066.492-.132.982-.2 1.474 4.958-.391 7.646-3.873 9.888-8.005 4.04-7.442 9.29-14.896 18.663-15.048.965-.016.968-1.516 0-1.5M952.28 158.954c10.403-10.505 26.23-15.693 40.09-19.847 6.918-2.073 14.073-3.9 21.223-4.946 7.167-1.05 28.505-1.84 20.97 11.36-3.811 6.682-12.954 7.422-19.46 10.09-5.777 2.369-11.134 5.602-16.262 9.142-10.958 7.567-20.85 17.097-32.7 23.267-.855.447-.097 1.742.758 1.296 15.129-7.88 26.97-20.867 41.968-29.062 4.39-2.4 8.956-4.136 13.712-5.643 3.123-.99 6.355-1.97 9.089-3.84 3.73-2.551 6.979-7.668 5.684-12.35-1.614-5.832-9.941-6.322-14.892-6.413-8.472-.155-16.96 2.028-25.093 4.144-15.69 4.08-34.47 9.95-46.148 21.742-.68.686.38 1.747 1.06 1.06M873.001 215.565c8.853-7.157 18.338-13.384 26.673-21.201 5.04-4.726 16.275-14.86 11.744-22.926-3.55-6.322-11.886-4.558-17.514-2.768-10.41 3.312-19.775 9.412-28.607 15.699-6.479 4.612-14.463 9.433-17.71 17.064-2.927 6.877-1.938 14.459 4.07 19.15 9.645 7.534 22.898 3.345 33.812 1.423.95-.167.547-1.612-.399-1.446-9.785 1.724-21.167 5.403-30.388.272-6.29-3.5-8.332-10.138-6.375-16.93 2.407-8.354 11.09-13.5 17.747-18.238 7.422-5.282 15.14-10.333 23.592-13.815 5.721-2.356 20.04-7.217 21.203 2.634 1.006 8.515-10.53 17.467-16.099 22.295-7.295 6.327-15.315 11.668-22.809 17.726-.75.607.316 1.662 1.06 1.06M886.013 149.778c.678 3.933 4.036 6.158 7.947 5.554 4.362-.672 7.503-4.124 8.222-8.391.159-.944-1.286-1.35-1.447-.398-.536 3.179-2.427 5.877-5.565 6.953-3.511 1.204-7.045-.258-7.71-4.117-.164-.95-1.61-.547-1.447.399"/>
        <path fill="#3F2842" d="M889.62 154.498l-1.561 3.809c-.366.893 1.085 1.28 1.446.399.52-1.27 1.04-2.54 1.562-3.81.366-.892-1.085-1.28-1.447-.398M894.012 154.945l.426 2.979c.058.404.566.617.922.524.433-.114.58-.524.524-.923l-.425-2.98c-.06-.403-.567-.616-.923-.523-.432.114-.581.524-.524.923M898.1 153.127l1.76 3.2c.466.846 1.762.09 1.296-.757l-1.761-3.2c-.465-.846-1.761-.09-1.295.757M863.013 156.21c.556 3.23 3.34 5.051 6.543 4.55 3.535-.554 6.099-3.354 6.683-6.819.159-.944-1.286-1.35-1.447-.399-.42 2.493-1.885 4.61-4.348 5.46-2.738.942-5.467-.184-5.985-3.19-.164-.95-1.61-.547-1.446.398"/>
        <path fill="#3F2842" d="M865.307 159.498l-1.249 3.048c-.365.892 1.085 1.281 1.447.4.416-1.018.833-2.034 1.25-3.049.365-.893-1.086-1.282-1.448-.399M869.012 159.946l.34 2.383c.058.4.568.624.923.524.43-.12.582-.518.524-.922l-.341-2.384c-.057-.4-.567-.623-.922-.524-.431.12-.582.518-.524.923M872.1 158.127l1.408 2.56c.466.847 1.762.09 1.296-.756l-1.41-2.561c-.464-.846-1.76-.09-1.294.757M963.934 292.416c12.948 8.206 22.758 20.68 30.092 33.986 3.365 6.104 6.328 12.46 7.851 19.294 1.75 7.855.067 22.34-11.832 17.45-6.447-2.647-10.746-8.71-15.515-13.497-5.45-5.473-11.392-10.503-17.809-14.81-10.567-7.09-26.09-11.625-31.218-24.397-.356-.885-1.807-.5-1.446.398 4.223 10.522 15.21 15.662 24.536 20.854a107.128 107.128 0 0 1 18.415 12.96c5.54 4.838 10.093 10.697 15.654 15.469 6.852 5.878 17.9 8.57 21.003-2.71 3.001-10.913-3.86-23.883-9.067-33.062-7.385-13.02-17.162-25.152-29.907-33.231-.818-.518-1.57.779-.757 1.296M897.8 209.304c-.072.284-.42 1.61-.908 1.592-.558-.021-.399-1.437-.327-1.777.085-.401.362-1.47.838-1.56.64-.122.463 1.375.397 1.745-.17.943 1.275 1.349 1.446.399.222-1.237.205-3.404-1.43-3.678-1.493-.251-2.428 1.48-2.697 2.694-.268 1.208-.187 3.297 1.33 3.665 1.555.377 2.491-1.474 2.797-2.681.238-.936-1.208-1.335-1.446-.4M880.008 215.285c.77.947 2.28 2.091 3.523 1.272 1.364-.898.536-2.935-.226-3.927-.74-.966-2.258-2.15-3.522-1.385-1.412.853-.626 2.87.108 3.888.56.776 1.861.028 1.295-.758-.173-.239-1.065-1.549-.634-1.85.434-.303 1.378.767 1.574 1.025.18.237.971 1.445.577 1.764-.423.343-1.446-.858-1.634-1.09-.609-.75-1.664.317-1.06 1.061"/>
        <path fill="#EFF8FA" d="M889 100.174c.234-3.514.476-7.07 1.572-10.417 1.096-3.347 3.157-6.515 6.241-8.215.577-.318 1.216-.588 1.873-.536.547.044 1.052.307 1.511.608 2.151 1.416 3.562 3.716 4.599 6.073 1.407 3.196 2.26 6.702 1.944 10.18-.316 3.476-1.896 6.918-4.663 9.048"/>
        <path fill="#3F2842" d="M889.502 99.779c.316-4.57 3.778-24.88 12.036-15.97 5.498 5.934 5.897 16.726-.239 22.18-.723.644.341 1.702 1.061 1.062 3.781-3.362 5.372-8.027 4.83-13.054-.48-4.458-2.61-10.945-6.787-13.367-3.08-1.786-5.847.552-7.833 2.956-3.727 4.51-4.182 10.604-4.568 16.193-.066.964 1.434.959 1.5 0"/>
        <path fill="#8386B4" d="M893.123 99.225c-.16 1.118-.13 2.253-.098 3.382.006.222.012.447.08.66.094.3.304.55.531.771a4.95 4.95 0 0 0 2.898 1.362c.192.02.39.03.575-.025.236-.07.431-.239.603-.416.688-.708 1.135-1.625 1.385-2.58.251-.955.313-1.95.308-2.937-.008-1.252-.129-2.524-.602-3.683-.435-1.068-1.52-2.647-2.809-2.757-.64-.055-.873.812-1.112 1.277a23.325 23.325 0 0 0-1.024 2.241c-.338.873-.602 1.777-.735 2.705"/>
        <path fill="#3F2842" d="M898.85 105.885c1.928-3.662 3.886-11.485-1.915-12.862-.939-.222-1.339 1.224-.399 1.447 2.435.578 3.026 3.79 2.777 5.911-.2 1.7-.97 3.248-1.76 4.747-.449.853.845 1.612 1.296.757"/>
        <path fill="#3F2842" d="M894.54 103.276c-.39-5.681 2.34-10.957 7.242-13.87.83-.492.076-1.79-.757-1.295-5.334 3.169-8.412 8.965-7.986 15.165.066.958 1.566.965 1.5 0"/>
        <path fill="#FFFFFE" d="M1005.003 109.003c-4.969-4.969-9.035-4.969-14.003 0 4.968-4.969 4.968-9.034 0-14.003 4.968 4.969 9.034 4.969 14.003 0-4.969 4.969-4.969 9.034 0 14.003M1063.169 235.169c-4.672-4.673-8.496-4.673-13.169 0 4.673-4.673 4.673-8.496 0-13.169 4.673 4.673 8.497 4.673 13.169 0-4.672 4.673-4.672 8.496 0 13.169M1005.284 210.284c-4.714-4.713-8.571-4.713-13.284 0 4.713-4.713 4.713-8.57 0-13.284 4.713 4.714 8.57 4.714 13.284 0-4.714 4.714-4.714 8.571 0 13.284M806.285 265.284c-4.714-4.713-8.571-4.713-13.285 0 4.714-4.713 4.714-8.57 0-13.284 4.714 4.714 8.571 4.714 13.285 0-4.714 4.714-4.714 8.571 0 13.284M825.284 200.284c-4.714-4.714-8.57-4.714-13.284 0 4.714-4.714 4.714-8.57 0-13.284 4.714 4.714 8.57 4.714 13.284 0-4.714 4.714-4.714 8.57 0 13.284M873.285 50.284c-4.714-4.714-8.571-4.714-13.285 0 4.714-4.714 4.714-8.57 0-13.284 4.714 4.714 8.571 4.714 13.285 0-4.714 4.714-4.714 8.57 0 13.284M1082.284 131.284c-4.714-4.714-8.57-4.714-13.284 0 4.714-4.714 4.714-8.57 0-13.284 4.714 4.714 8.57 4.714 13.284 0-4.714 4.714-4.714 8.57 0 13.284M1067.284 327.285c-4.714-4.714-8.57-4.714-13.284 0 4.714-4.714 4.714-8.571 0-13.285 4.714 4.714 8.57 4.714 13.284 0-4.714 4.714-4.714 8.571 0 13.285M941.241 72.242c-2.923-2.925-5.317-2.925-8.241 0 2.924-2.925 2.924-5.318 0-8.242 2.924 2.924 5.318 2.924 8.241 0-2.923 2.924-2.923 5.317 0 8.242M856.242 256.242c-2.924-2.925-5.318-2.925-8.242 0 2.924-2.925 2.924-5.318 0-8.242 2.924 2.924 5.318 2.924 8.242 0-2.924 2.924-2.924 5.317 0 8.242M818.241 111.242c-2.924-2.925-5.317-2.925-8.241 0 2.924-2.925 2.924-5.318 0-8.242 2.924 2.924 5.317 2.924 8.241 0-2.924 2.924-2.924 5.317 0 8.242"/>
        <path fill="#5FD7A3" d="M800.628 165.942l-5.52-.925a.912.912 0 0 0-.803.264l-3.891 4.024a.908.908 0 0 1-1.55-.497l-.826-5.536a.908.908 0 0 0-.5-.681l-5.03-2.458a.907.907 0 0 1-.005-1.627l5.01-2.497a.91.91 0 0 0 .494-.685l.783-5.543a.907.907 0 0 1 1.546-.508l3.922 3.993a.91.91 0 0 0 .805.258l5.513-.968a.907.907 0 0 1 .962 1.312l-2.586 4.965a.906.906 0 0 0 .003.844l2.624 4.945a.907.907 0 0 1-.951 1.32"/>
        <path fill="#FFFFFE" d="M801.127 165.442l.083-.493-5.52-.925-.234-.019c-.378 0-.744.152-1.01.429l-3.893 4.023a.383.383 0 0 1-.288.125.42.42 0 0 1-.266-.094.392.392 0 0 1-.142-.254l-.826-5.536a1.406 1.406 0 0 0-.774-1.057l-5.029-2.457a.394.394 0 0 1-.228-.366.395.395 0 0 1 .225-.365l5.01-2.496.001-.001c.414-.207.7-.604.765-1.062l.783-5.543a.39.39 0 0 1 .141-.255.427.427 0 0 1 .268-.096.389.389 0 0 1 .285.123l3.923 3.993v.001c.267.271.63.42 1.004.42l.242-.021.005-.001 5.51-.967.076-.007a.39.39 0 0 1 .284.123.41.41 0 0 1 .12.285l-.049.189-2.586 4.964a1.409 1.409 0 0 0 .006 1.31l2.624 4.945.05.191a.41.41 0 0 1-.12.285.387.387 0 0 1-.283.122l-.075-.006h.001l-.083.493-.082.493.24.02a1.409 1.409 0 0 0 1.401-1.407 1.399 1.399 0 0 0-.166-.66l-2.624-4.945-.048-.191.046-.188 2.586-4.965c.11-.208.162-.433.161-.65a1.41 1.41 0 0 0-1.403-1.408l-.25.022-5.513.968h.001l-.07.006a.405.405 0 0 1-.292-.122l-3.923-3.993a1.393 1.393 0 0 0-.998-.422 1.426 1.426 0 0 0-.902.322 1.395 1.395 0 0 0-.497.889l-.783 5.543a.41.41 0 0 1-.222.308v-.001l-5.01 2.497a1.398 1.398 0 0 0-.779 1.26c-.005.495.27 1.013.79 1.264l5.028 2.458a.404.404 0 0 1 .224.305l.826 5.537a1.4 1.4 0 0 0 .5.882c.255.207.571.318.897.318.355.002.73-.14 1.007-.429l3.9-4.032-.008.008a.406.406 0 0 1 .292-.124l.068.005 5.521.925.082-.493"/>
        <path fill="#5FD7A3" d="M1053.009 191.23l-3.651-4.243a.91.91 0 0 0-.786-.31l-5.565.603a.908.908 0 0 1-.873-1.374l2.907-4.783a.906.906 0 0 0 .052-.843l-2.293-5.106a.908.908 0 0 1 1.036-1.255l5.448 1.286a.905.905 0 0 0 .818-.21l4.148-3.759a.908.908 0 0 1 1.514.597l.46 5.58a.907.907 0 0 0 .453.712l4.856 2.783a.907.907 0 0 1-.1 1.624l-5.164 2.162a.9.9 0 0 0-.537.651l-1.147 5.48a.907.907 0 0 1-1.576.405"/>
        <path fill="#FFFFFE" d="M1052.509 190.731l.379-.326-3.651-4.243a1.409 1.409 0 0 0-1.067-.489l-.153.008-5.564.603-.049.003a.39.39 0 0 1-.286-.123.426.426 0 0 1-.118-.287l.061-.21 2.907-4.784a1.399 1.399 0 0 0 .081-1.308l-2.293-5.105-.037-.169a.41.41 0 0 1 .402-.406l.1.012 5.448 1.286a1.405 1.405 0 0 0 1.269-.328l4.148-3.758a.394.394 0 0 1 .268-.107c.099 0 .202.039.277.104a.392.392 0 0 1 .135.272l.002.029.457 5.549c.039.462.302.875.703 1.105l4.857 2.784a.39.39 0 0 1 .204.352.396.396 0 0 1-.249.377l-5.164 2.162c-.427.178-.74.556-.834 1.011v-.001l-1.146 5.479c-.045.21-.214.319-.404.324a.389.389 0 0 1-.304-.142l-.379.326-.379.327a1.405 1.405 0 0 0 2.444-.63l1.147-5.48v-.001a.406.406 0 0 1 .241-.291l5.164-2.162c.563-.234.868-.777.863-1.299a1.397 1.397 0 0 0-.707-1.22l-4.857-2.783a.41.41 0 0 1-.203-.32l-.46-5.579a1.397 1.397 0 0 0-.475-.944 1.43 1.43 0 0 0-.933-.349 1.397 1.397 0 0 0-.94.366l-4.148 3.759a.404.404 0 0 1-.273.105l-.094-.01-5.448-1.286a1.41 1.41 0 0 0-1.607 1.945l2.293 5.107v.001l.036.166-.059.211-2.907 4.784c-.14.229-.207.484-.207.729.001.373.149.72.397.979.246.259.606.431 1.007.431l.156-.009 5.566-.603.044-.002c.118 0 .231.051.308.141l3.652 4.243.379-.326"/>
        <path fill="#5FD7A3" d="M824.787 304.092l-5.552.712a.906.906 0 0 0-.691.486l-2.561 4.977a.907.907 0 0 1-1.627-.027l-2.393-5.061a.903.903 0 0 0-.675-.507l-5.525-.898a.908.908 0 0 1-.477-1.556l4.073-3.84a.91.91 0 0 0 .275-.798l-.854-5.532a.907.907 0 0 1 1.332-.934l4.91 2.687a.906.906 0 0 0 .845.014l4.998-2.521a.907.907 0 0 1 1.3.978l-1.04 5.5a.907.907 0 0 0 .249.808l3.942 3.974a.906.906 0 0 1-.53 1.538"/>
        <path fill="#FFFFFE" d="M824.287 304.592l-.063-.496-5.552.712a1.41 1.41 0 0 0-1.073.754l-2.561 4.976a.393.393 0 0 1-.362.221.396.396 0 0 1-.369-.233l-2.392-5.06a1.405 1.405 0 0 0-1.047-.788l-5.525-.897a.394.394 0 0 1-.25-.143.427.427 0 0 1-.093-.265.39.39 0 0 1 .129-.291l4.073-3.84h.001c.284-.268.441-.64.441-1.024l-.016-.214-.853-5.533-.006-.068a.39.39 0 0 1 .122-.284.418.418 0 0 1 .286-.119l.195.052 4.911 2.688h.001a1.403 1.403 0 0 0 1.309.021l4.997-2.521.184-.046a.42.42 0 0 1 .286.119.397.397 0 0 1 .122.285l-.008.082-1.039 5.5-.025.261c0 .367.145.725.409.991l3.942 3.974v.001c.087.089.118.18.119.281a.419.419 0 0 1-.097.269.385.385 0 0 1-.26.139l.128.992c.371-.046.69-.235.901-.491a1.42 1.42 0 0 0 .328-.909 1.391 1.391 0 0 0-.409-.986l-3.942-3.974a.407.407 0 0 1-.119-.287l.007-.075 1.039-5.501.026-.267a1.412 1.412 0 0 0-1.408-1.404c-.211 0-.43.05-.635.153l-4.997 2.522-.183.043-.197-.05.001.001-4.911-2.688h.001a1.414 1.414 0 0 0-.676-.175 1.41 1.41 0 0 0-1.408 1.403l.017.221.854 5.532.004.062a.407.407 0 0 1-.128.297l-4.073 3.84v-.001c-.298.28-.445.659-.443 1.019.001.323.11.637.313.891.202.254.509.446.869.504l5.526.897a.406.406 0 0 1 .303.227l2.393 5.062a1.4 1.4 0 0 0 1.272.805c.486.004.994-.26 1.251-.763l2.562-4.978a.407.407 0 0 1 .31-.218l5.552-.712-.064-.496M775 104.966v5.89c0 1.287 2 1.289 2 0v-5.89c0-1.287-2-1.289-2 0M765.486 111.868l5.1 2.945c1.117.645 2.125-1.083 1.009-1.727l-5.1-2.944c-1.117-.645-2.125 1.082-1.01 1.726M766.494 123.814l5.1-2.945c1.116-.643.11-2.372-1.008-1.727l-5.101 2.945c-1.114.643-.11 2.372 1.009 1.727M777 128.855v-5.889c0-1.287-2-1.289-2 0v5.889c0 1.287 2 1.289 2 0M786.595 122.086c-1.7-.98-3.4-1.963-5.1-2.945-1.117-.644-2.125 1.083-1.01 1.727l5.1 2.945c1.117.645 2.126-1.083 1.01-1.727M785.585 110.142l-5.1 2.944c-1.115.644-.109 2.373 1.01 1.727 1.7-.98 3.4-1.963 5.1-2.944 1.114-.644.108-2.373-1.01-1.727M1044 84.966v5.89c0 1.287 2 1.289 2 0v-5.89c0-1.287-2-1.289-2 0M1034.486 91.869c1.7.98 3.4 1.962 5.1 2.944 1.117.645 2.125-1.083 1.009-1.727l-5.1-2.944c-1.117-.645-2.125 1.083-1.01 1.727M1035.494 103.814l5.101-2.945c1.114-.643.108-2.372-1.01-1.727l-5.1 2.945c-1.115.644-.109 2.373 1.01 1.727M1046 108.856v-5.89c0-1.287-2-1.289-2 0v5.89c0 1.286 2 1.289 2 0M1055.596 102.086l-5.101-2.944c-1.117-.645-2.125 1.082-1.01 1.726l5.1 2.946c1.117.644 2.126-1.083 1.01-1.728M1054.585 90.142l-5.1 2.945c-1.115.643-.109 2.372 1.01 1.726 1.7-.98 3.4-1.963 5.1-2.944 1.114-.644.108-2.373-1.01-1.727M1093.459 270.295l-4.164 4.165c-.912.911.502 2.325 1.414 1.414l4.165-4.165c.912-.912-.502-2.327-1.415-1.414M1082.039 268.24l1.524 5.69c.333 1.241 2.263.714 1.929-.532l-1.525-5.69c-.333-1.242-2.262-.714-1.928.532M1073.709 276.966l5.689 1.525c1.244.334 1.776-1.595.53-1.928-1.895-.51-3.79-1.016-5.687-1.524-1.245-.334-1.776 1.594-.532 1.927M1077.708 287.874l4.165-4.165c.912-.911-.502-2.327-1.414-1.414l-4.165 4.165c-.91.91.503 2.325 1.414 1.414M1089.492 290.398l-1.524-5.69c-.333-1.241-2.263-.715-1.93.532.51 1.897 1.018 3.793 1.526 5.69.333 1.24 2.262.715 1.928-.532M1096.93 281.563l-5.69-1.525c-1.244-.333-1.775 1.596-.531 1.93 1.897.507 3.793 1.016 5.69 1.524 1.244.334 1.775-1.595.53-1.929"/>
    </g>
</svg>
