<svg xmlns="http://www.w3.org/2000/svg" xmlns:xlink="http://www.w3.org/1999/xlink" width="199" height="224" viewBox="0 0 199 224">
    <defs>
        <rect id="a" width="133" height="158" rx="4"/>
        <filter id="b" width="179.7%" height="167.1%" x="-39.8%" y="-29.1%" filterUnits="objectBoundingBox">
            <feOffset dy="7" in="SourceAlpha" result="shadowOffsetOuter1"/>
            <feGaussianBlur in="shadowOffsetOuter1" result="shadowBlurOuter1" stdDeviation="16.5"/>
            <feColorMatrix in="shadowBlurOuter1" values="0 0 0 0 0.431372549 0 0 0 0 0.439215686 0 0 0 0 0.650980392 0 0 0 0.469684103 0"/>
        </filter>
    </defs>
    <g fill="none" fill-rule="evenodd" transform="translate(33 26)">
        <mask id="c" fill="#fff">
            <use xlink:href="#a"/>
        </mask>
        <use fill="#000" filter="url(#b)" xlink:href="#a"/>
        <use fill="#FFF" xlink:href="#a"/>
        <g fill="#444C63" fill-rule="nonzero" mask="url(#c)">
            <path d="M59.65 96.61a1.467 1.467 0 1 0 0-2.934 1.467 1.467 0 0 0 0 2.934zm14.767.148a1.4 1.4 0 1 0 0-2.8 1.4 1.4 0 0 0 0 2.8zm-7.838 10.245a4.347 4.347 0 0 1-4.342-4.343v-.76h1.517v.76a2.827 2.827 0 0 0 2.825 2.824 2.828 2.828 0 0 0 2.825-2.824v-.76h1.517v.76a4.346 4.346 0 0 1-4.342 4.343zm20.71-59.837H46.864c-3.97 0-7.579 1.629-10.204 4.24a14.48 14.48 0 0 0-4.209 9.502v67.52c.942 2.64 3.44 4.54 6.404 4.54 3.755 0 6.811-3.055 6.811-6.824v-4.672a24.358 24.358 0 0 0 21.417 12.695 24.334 24.334 0 0 0 20.772-11.604v3.58c0 3.77 3.055 6.826 6.811 6.826 3.77 0 6.812-3.056 6.812-6.825V95.976c.03-.2.044-.408.071-.61V59.424c-1.065-6.913-7.062-12.257-14.26-12.257zM39.821 99.012a5.756 5.756 0 0 1 0-11.512v11.512zm5.253-11.984c1.54-3.918 5.35-6.702 9.81-6.702 5.813 0 10.545 4.73 10.545 10.544s-4.73 10.546-10.544 10.546c-4.459 0-8.27-2.785-9.81-6.704v-7.684h-.001zm43.373 27.957a20.731 20.731 0 0 1-.592 1.993c-3.056 8.804-11.322 14.794-20.772 14.794-9.692 0-18.146-6.3-21.013-15.48-.135-.432-.256-.862-.363-1.307-.014-.067-.027-.12-.04-.188a21.154 21.154 0 0 1-.441-2.46l-.004-.047a21.757 21.757 0 0 1-.148-2.528V97.578c2.144 3.127 5.74 5.184 9.81 5.184 6.556 0 11.891-5.335 11.891-11.89 0-6.556-5.333-11.892-11.89-11.892-4.07 0-7.665 2.057-9.81 5.184v-8.23c.579.08 1.185.12 1.79.12h40.426c.605 0 1.211-.04 1.79-.12V84.403c-2.123-3.26-5.794-5.424-9.966-5.424-6.555 0-11.89 5.333-11.89 11.89s5.335 11.891 11.89 11.891c4.172 0 7.843-2.165 9.966-5.424v12.424a21.516 21.516 0 0 1-.634 5.224zm.633-20.695c-1.426 4.139-5.35 7.125-9.966 7.125-5.814 0-10.544-4.73-10.544-10.545 0-5.814 4.73-10.544 10.545-10.544 4.616 0 8.54 2.986 9.966 7.125v6.839h-.001zm5.099 4.722V87.498a5.756 5.756 0 0 1 0 11.514zM52.717 35.799c.755 2.308 1.61 4.922 2.885 4.922 1.272 0 2.128-2.614 2.882-4.92.941-2.876 1.914-5.85 4.164-5.85s3.223 2.973 4.164 5.848c.755 2.308 1.61 4.922 2.884 4.922 1.275 0 2.131-2.614 2.886-4.922.941-2.874 1.915-5.847 4.166-5.847 2.25 0 3.225 2.972 4.166 5.847.755 2.308 1.61 4.922 2.886 4.922s2.131-2.614 2.886-4.922l.268-.809c-4.053-6.823-11.481-11.426-19.957-11.426-6.547 0-12.472 2.761-16.7 7.164 1.092 1.065 1.769 3.079 2.42 5.071zm35.113 2.163c-.903 2.745-1.887 5.451-4.034 5.451-2.25 0-3.225-2.972-4.166-5.848-.756-2.307-1.61-4.921-2.887-4.921-1.273 0-2.13 2.614-2.884 4.92-.941 2.875-1.916 5.85-4.167 5.85-2.25 0-3.224-2.975-4.165-5.85-.755-2.306-1.608-4.92-2.883-4.92s-2.128 2.614-2.884 4.921c-.94 2.876-1.913 5.848-4.162 5.848-2.25 0-3.224-2.972-4.165-5.848-.575-1.755-1.207-3.68-2.04-4.505-2.33 2.719-4.06 5.97-4.938 9.552a18.79 18.79 0 0 0-.418 2.14h45.918a18.79 18.79 0 0 0-.418-2.14 22.785 22.785 0 0 0-1.707-4.65z"/>
        </g>
    </g>
</svg>
