<svg xmlns="http://www.w3.org/2000/svg" xmlns:xlink="http://www.w3.org/1999/xlink" width="199" height="224" viewBox="0 0 199 224">
    <defs>
        <rect id="a" width="133" height="158" rx="4"/>
        <filter id="b" width="179.7%" height="167.1%" x="-39.8%" y="-29.1%" filterUnits="objectBoundingBox">
            <feOffset dy="7" in="SourceAlpha" result="shadowOffsetOuter1"/>
            <feGaussianBlur in="shadowOffsetOuter1" result="shadowBlurOuter1" stdDeviation="16.5"/>
            <feColorMatrix in="shadowBlurOuter1" values="0 0 0 0 0.431372549 0 0 0 0 0.439215686 0 0 0 0 0.650980392 0 0 0 0.469684103 0"/>
        </filter>
    </defs>
    <g fill="none" fill-rule="evenodd" transform="translate(33 26)">
        <mask id="c" fill="#fff">
            <use xlink:href="#a"/>
        </mask>
        <use fill="#000" filter="url(#b)" xlink:href="#a"/>
        <use fill="#FFF" xlink:href="#a"/>
        <g fill="#444C63" fill-rule="nonzero" mask="url(#c)">
            <path d="M57.34 77.646a2.88 2.88 0 1 1 0-5.76 2.88 2.88 0 0 1 0 5.76zm5.004 9.27a3.557 3.557 0 0 0 3.553-3.553v-.953h1.907v.954a5.465 5.465 0 0 1-5.46 5.46 5.465 5.465 0 0 1-5.461-5.46v-.954h1.909v.953a3.558 3.558 0 0 0 3.552 3.553zm-36.072-13.97a5.432 5.432 0 0 1 5.425-5.425v10.85a5.432 5.432 0 0 1-5.425-5.425zm73.155-5.402a2.948 2.948 0 0 1 2.944 2.944 2.948 2.948 0 0 1-2.944 2.945 2.949 2.949 0 0 1-2.946-2.945 2.949 2.949 0 0 1 2.946-2.944zm4.464-24.265h.001v7.545h-3.45V43.28c.54.19 1.119.3 1.724.3.606 0 1.185-.109 1.725-.3zm0-9.749c-.54-.192-1.12-.3-1.726-.3-.605 0-1.184.108-1.724.3v-7.546h3.45v7.546zm10.696 6.6v-3.451h-7.546c.192.54.3 1.12.3 1.725a5.17 5.17 0 0 1-.3 1.724h7.546v.002zm-17.596-1.725c0-.606.11-1.185.3-1.725h-7.545v3.45h7.546a5.158 5.158 0 0 1-.3-1.725zm11.08 18.288H90.782c-.154 0-.305.013-.456.024v-2.561c0-.276-.004-.553-.03-.828a23.613 23.613 0 0 0-3.544-11.703l.018-.522-.33.03a23.743 23.743 0 0 0-10.46-8.81l-.854-.38a17.4 17.4 0 0 0-1.1-.393 23.902 23.902 0 0 0-7.494-1.215H58.58c-1.524 0-3.022.149-4.476.433l1.164.77-.05.239.095-.026c.137.474.228.975.31 1.479.12.733.199 1.487.199 2.27 0 8.084-6.577 14.66-14.661 14.66-1.062 0-2.14-.128-3.216-.368a16.15 16.15 0 0 1-1.401-.373l1.088-3.408c.45.143.899.25 1.347.34.735.148 1.465.23 2.182.23 6.11 0 11.081-4.97 11.081-11.081 0-.504-.034-.993-.098-1.462a9.063 9.063 0 0 0-.269-1.293l-.292-1.015.456-.456c-9.21 2.688-16.282 10.877-17.135 20.826-.058.667-.088 1.359-.088 2.054v5.262H18.263v5.028h16.552v44.582c0 13.134 10.662 23.82 23.765 23.82h7.953c2.739 0 5.359-.49 7.809-1.346v-.824h4.161V110.28c0-7.517 6.115-13.63 13.63-13.63h13.712a5.868 5.868 0 0 1 5.862 5.861v7.596a4.962 4.962 0 0 1-4.958 4.957H94.304c-3.92 0-7.11 3.188-7.11 7.109v8.504h2.366v-8.504a4.748 4.748 0 0 1 4.744-4.743h12.445c3.185 0 5.893-2.046 6.9-4.891a6.624 6.624 0 0 0 1.087-3.638V63.36c.001-3.676-2.99-6.666-6.666-6.666zM76.137 110.28v17.57a20.952 20.952 0 0 1-9.604 2.336h-7.953c-11.637 0-21.105-9.492-21.105-21.16V67.532a9.547 9.547 0 0 0 4.834-3.087h11.956l10.518 11.609c.237.47.595.868 1.04 1.147l17.747 19.59c-4.46 2.843-7.433 7.82-7.433 13.489zm9.286-50.87H36.134v-4.29H88.984v1.826a6.674 6.674 0 0 0-3.56 2.464zm26.948 38.11c-1.505-1.963-3.866-3.236-6.525-3.236H92.134c-1.992 0-3.892.382-5.652 1.05V63.36a4.306 4.306 0 0 1 4.301-4.301h17.287a4.306 4.306 0 0 1 4.302 4.3V97.52z"/>
        </g>
    </g>
</svg>
