<svg xmlns="http://www.w3.org/2000/svg" width="94" height="33" viewBox="0 0 94 33">
    <g fill="#3DA1FF" fill-rule="evenodd">
        <text font-family="CirceRounded-AltBold" font-size="9" font-weight="bold" letter-spacing=".375" transform="translate(-1)">
            <tspan x=".736" y="23">Design by </tspan> <tspan x="44.464" y="23" letter-spacing=".281">Romashkova</tspan>
        </text>
        <g fill-rule="nonzero">
            <path d="M83.859.044c-2.25-.665-7.706 6.392-8.777 7.814a.42.42 0 0 0 .048.554.337.337 0 0 0 .505-.053c2.366-3.14 6.642-7.967 8.037-7.555 1.128.333.572 8.427-.59 15.735-.034.214.097.418.292.455.02.004.042.006.062.006.171 0 .322-.134.353-.326.006-.039.624-3.947.972-7.883.647-7.325-.142-8.522-.902-8.747zM55.142.044c-.76.224-1.55 1.422-.903 8.746.348 3.936.966 7.845.972 7.884.03.192.182.326.353.326.02 0 .04-.002.062-.006.195-.037.325-.241.291-.455C54.756 9.231 54.2 1.137 55.328.804 56.727.386 61 5.219 63.365 8.359a.337.337 0 0 0 .505.053.42.42 0 0 0 .048-.554C62.848 6.437 57.39-.62 55.142.044zM73.453 32.13c-.013.004-1.323.42-2.351-.067-.561-.266-.95-.766-1.16-1.481.111-.11.217-.235.294-.332a.467.467 0 0 0 .104-.33c-.022-.274-.057-.797-.024-.96.05-.245.336-.366.582-.239.084.043.157.1.242.142.022.01.046.02.071.02.036 0 .067-.022.09-.045.174-.179.334-.422.25-.662-.067-.195-.378-.175-.378-.175H67.828s-.31-.02-.379.175c-.084.24.077.484.25.662a.133.133 0 0 0 .09.044c.025 0 .049-.009.071-.02.085-.04.159-.098.242-.14.246-.128.532-.007.583.238.033.163-.002.686-.025.96a.467.467 0 0 0 .105.33c.076.097.182.222.294.332-.211.715-.6 1.215-1.16 1.48-1.027.487-2.335.073-2.351.067-.208-.068-.442.023-.522.203-.079.181.026.383.235.452.041.014.668.216 1.463.216.488 0 1.04-.076 1.557-.32a2.748 2.748 0 0 0 1.22-1.113c.293.496.7.869 1.218 1.113 1.36.64 2.954.126 3.02.104.21-.068.314-.27.235-.45-.079-.181-.311-.272-.521-.205z"/>
        </g>
    </g>
</svg>
