<svg xmlns="http://www.w3.org/2000/svg" xmlns:xlink="http://www.w3.org/1999/xlink" width="251" height="302" viewBox="0 0 251 302">
    <defs>
        <linearGradient id="a" x1="29.466%" x2="50%" y1="-45.189%" y2="100%">
            <stop offset="0%" stop-color="#4BB9F0"/>
            <stop offset="100%" stop-color="#2E2263"/>
        </linearGradient>
        <linearGradient id="b" x1="87.164%" x2="0%" y1="-17.724%" y2="100%">
            <stop offset="0%" stop-color="#70CFFF"/>
            <stop offset="52.634%" stop-color="#4A589C"/>
            <stop offset="100%" stop-color="#3C2E79"/>
        </linearGradient>
        <linearGradient id="c" x1="67.219%" x2="0%" y1="0%" y2="104.099%">
            <stop offset="0%" stop-color="#70CFFF"/>
            <stop offset="100%" stop-color="#3C2E79"/>
        </linearGradient>
        <path id="d" d="M1.159 76.867a.61.61 0 0 1-.413-.148c-1.563-1.345 1.959-7.538 3.614-10.24.477-.778.797-1.267.797-1.267.075-.343.113-.768.12-1.271.007-.705-.047-1.558-.15-2.536-.7-6.698-3.664-19.246-4.452-29.736a27.498 27.498 0 0 1 .522-7.89c.185-.854.415-1.702.687-2.54 1.093-3.355 2.889-6.539 5.426-9.455-6.773 8.737 3.747 20.372 4.812 34.815.379 6.077.81 11.877-.056 14.806-.163.554-.562 1.449-1.12 2.536a57.532 57.532 0 0 1-1.387 2.538c-2.668 4.625-6.669 10.388-8.4 10.388m10.701-35.05c-.271-6.392-.088-12.333 2.149-14.767-2.237 2.434-2.42 8.375-2.149 14.766M14.03 27.03l.01-.01-.01.01m.016-.018c.004-.002.006-.006.008-.008-.002.002-.004.006-.008.008m.018-.018l.006-.008-.006.008M8.89 10.1C12.952 6.064 18.555 2.62 25.806.046 18.982 2.47 13.302 5.98 8.889 10.099M25.824.04c.02-.007.04-.013.058-.021l-.058.022"/>
        <linearGradient id="e" x1="-31.579%" x2="154.434%" y1="10.242%" y2="62.394%">
            <stop offset="0%" stop-color="#3DA1FF"/>
            <stop offset="100%" stop-color="#3C2E79"/>
        </linearGradient>
        <path id="g" d="M.09.732C.08.529.066.327.054.122c.014.203.026.407.038.61"/>
        <linearGradient id="h" x1="6297.4%" x2="79.07%" y1="-3463.2%" y2="5646.79%">
            <stop offset="0%" stop-color="#A03965"/>
            <stop offset="100%" stop-color="#542A65"/>
        </linearGradient>
        <path id="j" d="M.546 22.755c-.002-.015-.002-.033-.003-.049a243.92 243.92 0 0 1 .003.05M2.391 3.272c.002-.002.004-.004.004-.006l-.004.006m.014-.016l.006-.006-.006.006m.016-.016c.002-.001.004-.005.005-.007-.001.002-.003.006-.005.007m.013-.015l.01-.01c-.004.002-.006.006-.01.01m.016-.018c.006-.004.01-.01.016-.016.789-.826 2.008-1.917 3.58-3.17-1.572 1.253-2.791 2.344-3.58 3.17-.006.006-.01.012-.016.016"/>
        <linearGradient id="k" x1="2161.164%" x2="31.599%" y1="-199.818%" y2="588.857%">
            <stop offset="0%" stop-color="#A03965"/>
            <stop offset="100%" stop-color="#542A65"/>
        </linearGradient>
        <path id="m" d="M7.076 48.776C6.014 34.408-4.477 22.833 2.277 14.14c.496-.57 1.02-1.129 1.574-1.676 4.401-4.097 10.065-7.589 16.87-10.002l.017-.006.059-.021c.032-.01.064-.022.096-.034C25.507.783 29.849.157 33.813.157c13.55 0 22.62 7.327 22.62 7.327-2.945.163-5.926.626-8.886 1.315-12.162 2.833-23.96 9.478-31.459 14.749a81.134 81.134 0 0 0-3.41 2.527c-1.6 1.254-2.842 2.345-3.645 3.172-.006.006-.01.012-.016.016l-.006.008-.01.01c-.002.002-.004.006-.008.008l-.006.008-.01.01-.006.005a.024.024 0 0 1-.01.01c0 .002-.002.004-.004.006-2.23 2.42-2.413 8.332-2.142 14.69.066 1.573.162 3.174.26 4.758"/>
        <linearGradient id="n" x1="-12.658%" x2="61.386%" y1="24.973%" y2="102.799%">
            <stop offset="0%" stop-color="#3C56A8"/>
            <stop offset="100%" stop-color="#3C5FB2"/>
        </linearGradient>
        <path id="p" d="M50.024 7.579c0 17.529-9.167 16.252-24.632 16.252-15.466 0-7.965 29.798 0 37.662 0 0 4.723 5.465-1.757 16.921-6.48 11.457-2.244-11.613-2.244-11.613S.223 45.83.087 26.385c-.131-19.448 25.305-25.1 25.305-25.1S50.024-3.78 50.024 7.579"/>
        <linearGradient id="q" x1="0%" x2="90.993%" y1="-9.942%" y2="42.856%">
            <stop offset="0%" stop-color="#3DA1FF"/>
            <stop offset="100%" stop-color="#3C2E79"/>
        </linearGradient>
        <linearGradient id="s" x1="50%" x2="50%" y1="0%" y2="100%">
            <stop offset="0%" stop-color="#566CAD"/>
            <stop offset="100%" stop-color="#3C2E79"/>
        </linearGradient>
        <linearGradient id="t" x1="40.926%" x2="40.926%" y1="-16.88%" y2="100%">
            <stop offset="0%" stop-color="#6389C6"/>
            <stop offset="100%" stop-color="#3C2E79"/>
        </linearGradient>
        <linearGradient id="u" x1="50%" x2="50%" y1="0%" y2="99.013%">
            <stop offset="0%" stop-color="#70CFFF"/>
            <stop offset="100%" stop-color="#484990"/>
        </linearGradient>
        <linearGradient id="v" x1="50%" x2="50%" y1="0%" y2="100%">
            <stop offset="0%" stop-color="#6ABCEF"/>
            <stop offset="100%" stop-color="#403D85"/>
        </linearGradient>
    </defs>
    <g fill="none" fill-rule="evenodd">
        <g fill-rule="nonzero">
            <path fill="#4CE59C" d="M56.052 95.774s4.736-26.271-20.561-40.256C10.194 41.534 8.946 41.684 3.969 40.078c-2.886-.984-5.814 1.085-2.496 5.273s1.453 5.273 8.104 7.092c6.65 1.82 7.685 9.99 11.004 11.994 3.318 2.005 6.225 2.547 16.392 6.914 9.217 3.953 17.13 15.254 17.13 19.264s9.025 5.287 9.025 5.287l-7.076-.128z"/>
            <path fill="#3ECF8E" d="M54.545 91.363S60.865 67.49 38.9 54.68c-21.967-12.81-29.6-12.675-33.92-14.204-2.5-.866 4.313 2.183 7.199 6.007s2.177 2.972 7.31 5.79c5.977 3.288 8.47 6.485 11.939 7.147 5.098.972 3.588 6.24 12.395 10.24 7.984 3.605 9.017 13.288 9.017 16.943 0 3.655 7.823 4.873 7.823 4.873l-6.117-.113zM77 88.357l2.454-2.338a9.638 9.638 0 0 1 4.207-2.297c7.712-2.023 32.035-9.696 42.068-28.108a.343.343 0 0 0-.21-.476h-.126c-3.345-.252-20.663-.476-43.724 19.308-.416.34-.79.728-1.114 1.155-.582.806-1.55 2.17-1.964 2.906-.617 1.057.603 2.8-1.016 4.417-1.62 1.618-5.077 5.468-5.077 5.468l2.847 2.1L77 88.357z"/>
            <path fill="#3ECF8E" d="M63.485 87.06s6.467-60.226-11.641-79.098c-16.688-17.35-16.891-1.336-16.821 1.35.004.232.064.459.174.662a38.218 38.218 0 0 1 3.944 24.323c-1.678 8.707 10.55 7.541 11.612 16.12 1.063 8.58 5.384 21.794 4.964 27.885-.42 6.092-.433 12.006-.433 12.006l6.677.184 1.524-3.433z"/>
            <path fill="#38AF76" d="M63.392 87.363c.06-.13.097-.27.112-.413.4-3.942 5.826-60.728-11.678-78.979-16.586-17.29-16.88-1.487-16.803 1.324.008.268.093.527.245.747 1.204 1.786 6.917 9.79 11.79 8.865 13.373-2.476 1.604 13.939 8.913 22.662 5.825 6.895 3.97 30.76 3.543 36.864a63.716 63.716 0 0 1-1.723 10.203c-.078.43.023.874.28 1.225.256.35.644.577 1.072.625.102.008.205.008.308 0h1.225a1.78 1.78 0 0 0 1.701-.982l1.015-2.141z"/>
            <path fill="#3ECF8E" d="M70.058 90s1.122-16.512 10.754-26.634a19.899 19.899 0 0 1 9.837-5.533c2.872-.704 7.628-2.998 11.7-10.72 0 0 7.763-11.001 15.525-14.373 7.762-3.371 0-3.723 0-3.723s-22.243 4.286-36.483 17.329a26.142 26.142 0 0 1-2.865 2.26c-3.705 2.54-13.902 12.085-13.408 39.853l4.94 1.542z"/>
            <path fill="#FF8181" d="M87.284 90.247s.27-1.68-1.925-1.633c-1.924.07-34.616-.089-34.616-.089s-1.514 0-1.42 1.18c.094 1.18 5.134 28.5 5.603 29.072.22.339.556.584.945.69.586.177 23.556-.26 23.556-.26a.824.824 0 0 0 .688-.17.833.833 0 0 0 .304-.644c-.065.047 6.93-27.827 6.865-28.146z"/>
            <path fill="#EF4B2D" d="M87.284 90.178s.268-1.653-1.915-1.653h-6.664c.373.257 1.255 8.101.928 13.619a17.98 17.98 0 0 1-.986 4.838c-1.302 3.758-4.29 12.264-4.669 12.527l5.404-.084a.81.81 0 0 0 .684-.172.848.848 0 0 0 .302-.65c.024.089 6.98-28.103 6.916-28.425z"/>
        </g>
        <path fill="#E7807F" d="M220.647 204.1l.794 13.278h-23.673s9.654-6.462 13.974-8.586l.485-4.692h8.42"/>
        <path fill="#32317B" d="M212.676 96.886l-1.592 111.148h9.375s10.356-43.54 5.267-56.25l9.03-54.898h-22.08"/>
        <path fill="#C7C6C1" d="M211.4 194.263l.177-15.737-.177 15.737"/>
        <path fill="#9C9BBD" d="M211.417 177.542l.16-13.279v.001l-.16 13.278"/>
        <path fill="#3D4C8E" d="M212.07 163.771l.987-63.934-.987 63.934"/>
        <path fill="url(#a)" d="M39.455 191.804l-16.096-18.887c-.064-.603-.123-1.204-.18-1.8l5.767-19.937 8.361-47.597.81.1-.066-4.338 1.404 92.46" transform="matrix(-1 0 0 1 250.539 .492)"/>
        <path fill="#492517" d="M246.743 208.034l3.796 13.279h-27.125s11.479-6.462 16.015-8.587l-.833-4.692h8.147"/>
        <path fill="url(#b)" d="M38.469 95.902l-9.631 55.527-16.167 56.605H2.96s3.113-54.335 13.136-59.995L8.18 95.902h30.29" transform="matrix(-1 0 0 1 250.539 .492)"/>
        <path fill="#2978C2" d="M212.07 103.771l.987-.09-.906-3.844-.08 3.934"/>
        <path fill="#2978C2" d="M212.935 104.755l27.565-3.66.668-4.701h-29.59l1.357 8.36"/>
        <path fill="#F8E7BB" d="M197.768 57.865s-6.142-9.49-15.782-11.635l3.78 4.338s-1.795 4.505.472 6.757c2.269 2.252 5.954 2.432 5.954 2.432l2.552 2.702 3.024-4.594"/>
        <path fill="#FFFFFE" d="M219.669 50.656l-8.039 16.455-15.806-10.669-3.974 6.058s13.728 25.856 19.78 23.958c6.05-1.899 11.29-15.55 11.29-15.55l-3.251-20.252"/>
        <path fill="#D6EDF2" d="M211.062 86.558c.152-.015.303-.03.447-.074 6.116-1.9 11.411-15.562 11.411-15.562l-3.286-20.266-8.125 16.467-7.823-5.229 7.376 24.664"/>
        <path fill="#F8E7BB" d="M213.995 12.109s-.957 8.287-1.925 10.29h2.683s-.207 7.95 1.444 8.951c1.181.718 4.635 0 5.447.936.813.935 1.981 7.55 1.981 7.55l10.662-.869-1.1-9.287s5.984-6.948 4.195-15.5c-1.788-8.552-21.804-10.021-23.387-2.071"/>
        <path fill="#3D4C8E" d="M224.274 38.853l9.99-.905-9.99.905s-1.095-6.888-1.857-7.862l-.005-.007.005.007c.762.974 1.857 7.862 1.857 7.862m-1.685-7.34c-.287-.357-.912-.479-1.64-.53h-.001c.728.052 1.354.173 1.641.53"/>
        <path fill="#E1CFA1" d="M222.31 37.87l10.917-.835-1.126-8.919c.011-.011 1.4-1.543 2.656-4.017l-8.644.404c.322.193-3.47 4.54-7.631 5.619.796.047 1.478.16 1.792.488l.001.001.007.007c.832.899 2.028 7.251 2.028 7.251"/>
        <path fill="#1C1D1D" d="M213.304 14.426s2.18 1.31 6.613-1.63c0 0 2.955 5.383 5.552 4.704 0 0 .134 3.845.671 4.116.537.272 1.656-3.3 2.776-3.528 1.12-.226 2.239.906 1.075 4.252-1.165 3.348-3.314 3.348-3.314 3.348l5.709 3.82s4.5-1.47 5.395-5.223c0 0 5.731-5.654 2.284-9.634 0 0 3.805-3.256-5.06-7.19 0 0-2.083-7.803-6.246-4.208 0 0-7.643-5.767-9.559-.632 0 0-9.85-.815-10.477 4.567-.626 5.382 1.746 6.694 1.746 6.694s-.54 4.432 2.191 4.704l.644-4.16"/>
        <path fill="url(#c)" d="M8.554 49.019s-5.241-1.267-4.338-6.878c.904-5.61 8.257-8.145 23.318-4.616 1.777.417 3.162 3.35 1.987 5.883 0 0 4.835 11.901 6.326 21.676 1.492 9.773 2.305 19.955 3.931 24.706 1.627 4.752.272 10.047-4.201 10.047H8.073c-5.438 0-6.145-7.603-3.961-15.476 2.183-7.874 5.346-29.685 4.442-35.342" transform="matrix(-1 0 0 1 250.539 .492)"/>
        <path fill="#FFFFFE" d="M228.953 46.335c-8.6 1.812-2.614 18.67-.9 23.506 1.715 4.835 3.612 9.135.9 12.895-2.711 3.762-7.512 7.925-7.512 7.925l3.202 6.717s17.9-2.284 22.156-7.522c4.257-5.24 1.846-16.958-1.844-24.985-3.692-8.026-9.629-19.88-16.002-18.536"/>
        <path fill="#FFF" d="M224.614 98.814c.241-.098.346-.35.234-.562l-4.958-9.48c-.111-.214-.396-.306-.636-.207-.241.097-.346.35-.234.562l4.958 9.48c.112.213.396.305.636.207"/>
        <path fill="#C7C6C1" d="M82.855 211.442v-.001.001m0 .002v-.003.003m0-.002v-.001.001m0 .002v-.003.003m0 0v-.003.003m0-.002v-.001.001m0 .002v-.003.003m0 .001v-.004.004m0-.003v-.001.001m0 0v-.001.001m0 .004v-.005.005m0-.002v-.003.003m0 .008v-.011.011m0-.008v-.003.003m0 .001v-.004.004m0-.003v-.001.001m0 .002v-.003.003m0 .004v-.007.007m0-.004v-.003.003m0 .007v-.01.01m-.002.024l.002-.034-.002.034m.002-.03v-.004.004m-.002.019l.002-.023c0 .008 0 .016-.002.023m.001-.007l.001-.016v.016m0-.006v-.01.01m0-.009v-.001.001m0 .009v-.01.01m-.002.026l.002-.036-.002.036m.002-.03v-.006.005m-.002.016l.002-.021c0 .007 0 .014-.002.021m.001-.01l.001-.011v.011m0-.003v-.008.008m0-1.44V210v.007m0 .003v-.01.01m0-.004v-.006.006m0-.003v-.003.003m0 0v-.003.003m0 .009V210v.012"/>
        <g>
            <path fill="#BC6636" d="M193.723 284.756v-.003L54.251 204.5v.003l139.472 80.254m1.479-6.281l12.43-7.105L76.195 195.74l131.437 75.631-12.43 7.105"/>
            <path fill="#E68A3D" d="M120.773 214.428l12.387-7.277-20.168-11.928-22.223-12.763-11.86 7.212 41.864 24.756"/>
            <path fill="#161717" d="M165.71 301.477l8.921-5.048 1.93-48.067-8.92 5.048-1.93 48.067"/>
            <path fill="#27292A" d="M167.882 253.28l8.679-4.851-8.09-4.493-8.679 4.851 8.09 4.493"/>
            <path fill="#222425" d="M160.286 249.346l1.553 49.493 4.507 2.638 1.83-47.51-7.89-4.621"/>
            <path fill="#161717" d="M219.468 260.657l8.92-4.206 1.93-40.056-8.92 4.206-1.93 40.056"/>
            <path fill="#27292A" d="M221.64 221.805l8.678-4.852-8.09-4.493-8.678 4.852 8.09 4.493"/>
            <path fill="#222425" d="M213.55 217.378l1.553 41.087 4.507 2.192 1.83-39.442-7.89-3.837"/>
            <path fill="#161717" d="M34.03 222.296l8.92-5.048 1.93-48.067-8.92 5.048-1.93 48.067"/>
            <path fill="#27292A" d="M36.2 174.591l8.68-4.851-8.091-4.493-8.677 4.851 8.088 4.493"/>
            <path fill="#222425" d="M28.605 170.165l1.55 49.493 4.51 2.638 1.83-47.51-7.89-4.621"/>
            <path fill="#161717" d="M87.787 191.313l8.92-5.048 1.93-48.067-8.92 5.048-1.93 48.067"/>
            <path fill="#27292A" d="M89.957 143.607l8.68-4.85-8.09-4.494-8.678 4.851 8.088 4.493"/>
            <path fill="#222425" d="M81.869 139.181l1.55 49.49 4.51 2.642 1.831-47.51-7.891-4.622"/>
            <path fill="#C6C7C3" d="M36.496 198.69l66.912-38.804.161-57.59-66.912 38.803-.161 57.59"/>
            <path fill="#FFFFFE" d="M36.61 140.657l66.96-38.214-15.404-9-66.959 38.213 15.403 9"/>
            <path fill="#E5E6E3" d="M20.878 132.788l-.164 56.876 15.618 9.026.164-56.876-15.618-9.026"/>
            <path fill="#C6C7C3" d="M201.878 150.084l17.097-9.92-.162 85.984-17.1 9.919.165-85.983"/>
            <path fill="#FFFFFE" d="M86.308 84.157l17.117-9.894 115.55 66.336-17.117 9.894-115.55-66.336"/>
            <path fill="#E5E6E3" d="M201.713 150.594l-.164 85.965-115.241-66.495.164-85.965 115.241 66.495"/>
            <path fill="#6C2D2B" d="M201.713 205.575l-.066 30.231-49.745 28.786.066-30.234 49.745-28.783"/>
            <path fill="#E5E6E3" d="M151.902 234.39l-.067 30.202L36.495 198.4l.067-30.202 115.34 66.191"/>
            <path fill="#FFFFFE" d="M201.713 205.846l-49.807 28.746-115.41-66.173 49.807-28.746 115.41 66.173"/>
            <path fill="#C6C7C3" d="M167.19 273.936l66.91-38.801.164-57.593-66.91 38.804-.164 57.59"/>
            <path fill="#FFFFFE" d="M167.305 216.395l66.959-38.214-15.406-9-66.956 38.214 15.403 9"/>
            <path fill="#E5E6E3" d="M151.575 207.542l-.167 56.876 15.616 9.026.166-56.876-15.615-9.026"/>
        </g>
        <g>
            <g transform="rotate(5 -1969.61 765.11)">
                <mask id="f" fill="#fff">
                    <use xlink:href="#d"/>
                </mask>
                <path fill="url(#e)" d="M1.159 76.867a.61.61 0 0 1-.413-.148c-1.563-1.345 1.959-7.538 3.614-10.24.477-.778.797-1.267.797-1.267.075-.343.113-.768.12-1.271.007-.705-.047-1.558-.15-2.536-.7-6.698-3.664-19.246-4.452-29.736a27.498 27.498 0 0 1 .522-7.89c.185-.854.415-1.702.687-2.54 1.093-3.355 2.889-6.539 5.426-9.455-6.773 8.737 3.747 20.372 4.812 34.815.379 6.077.81 11.877-.056 14.806-.163.554-.562 1.449-1.12 2.536a57.532 57.532 0 0 1-1.387 2.538c-2.668 4.625-6.669 10.388-8.4 10.388m10.701-35.05c-.271-6.392-.088-12.333 2.149-14.767-2.237 2.434-2.42 8.375-2.149 14.766M14.03 27.03l.01-.01-.01.01m.016-.018c.004-.002.006-.006.008-.008-.002.002-.004.006-.008.008m.018-.018l.006-.008-.006.008M8.89 10.1C12.952 6.064 18.555 2.62 25.806.046 18.982 2.47 13.302 5.98 8.889 10.099M25.824.04c.02-.007.04-.013.058-.021l-.058.022" mask="url(#f)"/>
            </g>
            <g transform="rotate(5 -2510.58 877.298)">
                <mask id="i" fill="#fff">
                    <use xlink:href="#g"/>
                </mask>
                <path fill="url(#h)" d="M.09.732C.08.529.066.327.054.122c.014.203.026.407.038.61" mask="url(#i)"/>
            </g>
            <g transform="rotate(5 -2251.256 882.962)">
                <mask id="l" fill="#fff">
                    <use xlink:href="#j"/>
                </mask>
                <path fill="url(#k)" d="M.546 22.755c-.002-.015-.002-.033-.003-.049a243.92 243.92 0 0 1 .003.05M2.391 3.272c.002-.002.004-.004.004-.006l-.004.006m.014-.016l.006-.006-.006.006m.016-.016c.002-.001.004-.005.005-.007-.001.002-.003.006-.005.007m.013-.015l.01-.01c-.004.002-.006.006-.01.01m.016-.018c.006-.004.01-.01.016-.016.789-.826 2.008-1.917 3.58-3.17-1.572 1.253-2.791 2.344-3.58 3.17-.006.006-.01.012-.016.016" mask="url(#l)"/>
            </g>
            <g transform="rotate(5 -1943.67 817.17)">
                <mask id="o" fill="#fff">
                    <use xlink:href="#m"/>
                </mask>
                <path fill="url(#n)" d="M2.277 14.14c.496-.568 1.02-1.128 1.574-1.675 4.401-4.097 10.065-7.589 16.87-10.002l.172-.06C25.507.782 29.849.156 33.813.156c13.55 0 22.62 7.327 22.62 7.327-2.945.163-5.926.626-8.886 1.315-12.162 2.833-23.96 9.478-31.459 14.749a81.134 81.134 0 0 0-3.41 2.527c-1.6 1.254-2.842 2.345-3.645 3.172-2.306 2.502-2.49 8.413-2.218 14.77.066 1.574.162 3.175.26 4.759C6.015 34.408-4.476 22.833 2.278 14.14z" mask="url(#o)"/>
            </g>
            <g transform="rotate(5 -1946.875 890.593)">
                <mask id="r" fill="#fff">
                    <use xlink:href="#p"/>
                </mask>
                <path fill="url(#q)" d="M50.024 7.579c0 17.529-9.167 16.252-24.632 16.252-15.466 0-7.965 29.798 0 37.662 0 0 4.723 5.465-1.757 16.921-6.48 11.457-2.244-11.613-2.244-11.613S.223 45.83.087 26.385c-.131-19.448 25.305-25.1 25.305-25.1S50.024-3.78 50.024 7.579" mask="url(#r)"/>
            </g>
        </g>
        <g>
            <path fill="#FA755A" d="M87.866 150.992c3.542 12.043-4.27 20.091-4.27 20.091s11.153-4.368 35.768 12.37a43.322 43.322 0 0 0-1.298-4.353c-3.59-10.136-8.086-21.23-10.554-25.441-3.938-6.72 10.287-18.99 6.009-25.685-2.552-3.994-7.716-2.65-12.93-2.572l-5.868-4.186c-6.293 2.026-11.632 13.542-6.857 29.776z"/>
            <path fill="#352927" d="M87.508 85.946c8.394-.963 10.095 6.517 12.089 14.393 1.993 7.875 3.148 10.63 6.454 14.107 3.305 3.476 1.633 6.739 4.678 10.238 3.047 3.499 14.072 16.167 2.61 22.363-11.462 6.197-19.25 2.204-23.354-4.448-4.105-6.652-5.913-10.908-10.479-13.885-4.567-2.977-5.282-9.665-2.968-14.542 2.313-4.877 1.338-8.556-.042-13.89-1.38-5.332 1.452-13.24 11.012-14.336"/>
            <path fill="#271F1D" d="M83.812 123.273l-.904-10.328c1.3 2.26 3.168 3.83 3.59 3.793.647-.057 1.848-.675 1.848-.675l.342 2.824-1.614.142.265 3.027s-1.845.526-3.527 1.217"/>
            <path fill="#F8E7BB" d="M81.32 124.696s-2.906 1.473-4.077 7.981c-1.17 6.508-4.4 28.257-4.4 28.257L59.04 182.138s-3.508.652-5.49 1.864c-1.983 1.213-3.09 3.474-3.09 3.474s1.791-.417 3.724-1.192l-3.273 6.345 7.252-.634s3.592-3.69 5.217-7.986l17.624-21.278s2.099-19.746 3.27-24.263c1.17-4.517-2.954-13.772-2.954-13.772M79.07 102.427s4.35-1.743 6.96-3.983c0 0-1.175 2.244-.398 2.176.777-.068 5.01-5.37 5.01-5.37s.192 9.65 5.36 13.545l1.003 11.459-8.287.725-.597-4.94s-1.201.618-1.849.674c-.647.057-4.708-3.671-4.88-7.872-.115-2.842-1.446-6.102-2.321-6.414"/>
            <path fill="#1E1816" d="M88.462 118.861l-.341-2.822.341 2.822"/>
            <path fill="#E2D09E" d="M91.613 118.586l-3.15.275-.342-2.822s4.12-1.17 6.21-5.979c0 0 .126 5.304-2.718 8.526"/>
            <path fill="#FF8181" d="M87.113 122.028l-.265-3.025 11.137-.975s-.081 2.796.946 3.356c1.028.559 6.703 1.294 8.282 3.686 1.579 2.391 4.044 13.605 3.072 23.286-.971 9.68-.69 11.407 1.088 14.56 1.775 3.153 4.436 7.461 4.982 10.722 0 0-21.351 5.76-33.861 2.963 0 0 4.433-14.206 3.141-21.013-1.291-6.806-5.897-8.74-6.94-12.713-1.044-3.974 1.812-10.106 1.812-10.106s-.75-6.595.586-8.103c1.095-1.236 6.02-2.638 6.02-2.638"/>
            <path fill="#23224E" d="M108.304 175.436"/>
            <g fill="#F8E7BB">
                <path d="M103.866 132.987l4.076 20.293-23.304 12.742s-6.348-3.394-8.853-3.757c-2.505-.364-8.165.39-8.247 1.692-.08 1.302 6.228 2.757 6.228 2.757l2.954 2.524s-4.645-1.017-4.776-.294c-.132.723 5.495 4.051 12.442 1.63 0 0 30.106-9.224 31.918-10.712 2.206-1.811-3.028-21.225-3.738-24.14-.712-2.915-2.586-9.72-6.175-11.73l-2.525 8.995z"/>
            </g>
            <g stroke="#352927">
                <path stroke-linecap="square" d="M90.833 103.816l4.079-4.306"/>
                <path d="M82.586 108.977c1.367-.12 2.437-.666 2.327-1.922-.11-1.255-1.308-2.176-2.675-2.056-2.476.216-2.128 4.194.348 3.978z"/>
                <path stroke-linecap="square" d="M85.109 106.292l1.43-.62"/>
                <path d="M88.678 107.177c1.367-.12 2.437-.666 2.327-1.922-.11-1.255-1.308-2.176-2.675-2.056-2.476.217-2.128 4.194.348 3.978z"/>
            </g>
        </g>
        <g>
            <path fill="#C0D8D8" d="M116.392 175.083l-21.7 9.344H61.155l22.338-9.183z"/>
            <path fill="#E5E6E3" d="M93.705 184.427H60.85l-15.97-22.08 1.696-1.035h31.883l15.246 23.115"/>
            <path fill="#EEE" d="M60.867 184.427l-15.987-22.13h32.794l14.552 22.13z"/>
            <path fill="#C6C7C3" d="M61.155 187.378H94.2v-2.95H61.155z"/>
            <path fill="#E5E6E3" d="M93.705 187.87l22.194-10.392v-2.395l-22.194 9.637v3.15"/>
        </g>
        <g>
            <path fill="#8D6E57" d="M203.987 247.87l-.794 13.28h23.673s-9.654-6.463-13.975-8.587l-.485-4.693h-8.419"/>
            <path fill="#8D6E57" d="M222.278 241.477l-3.796 13.279h27.125s-11.48-6.462-16.016-8.587l.834-4.692h-8.147"/>
            <path fill="#EAD7A5" d="M121.076 120.187c2.293-2.617 4.111-.025 4.111-.025 2.886-.645 3.535 5.861 3.535 5.861l-4.422 4.306c-6.452-2.587-5.516-7.524-3.224-10.142"/>
            <path fill="#5FD7A3" d="M198.168 139.013s24.785 2.21 41.38-15.078l5.073 7.559s-16.785 22.176-46.853 19.805l.4-12.286"/>
            <path fill="url(#s)" d="M80.058 74.263s18.143 10.21 29.086 21.14c0 0 4.468 20.956 3.709 36.746 0 0-3.954 5.67-13.68 3.644l-3.618-35.082L66.19 85.094l-2.568-9.87 16.437-.961" transform="translate(119.351 110.656)"/>
            <path fill="url(#t)" d="M63.241 78.689s26.649 18.756 29.499 23.12c0 0 4.06 26.585 3.348 38.457 0 0-7.836 5.785-14.652 2.131 0 0-4.059-30.949-4.365-34.095 0 0-20.403-8.608-23.66-12.16-3.257-3.552-5.077-12.85-3.538-15.863l13.368-1.59" transform="translate(119.351 110.656)"/>
            <path fill="#E1CFA1" d="M177.516 134.755l-.462 6.3s1.129 4.324 6.664 4.948c5.536.626 7.638-3.595 7.638-3.595v-5.259l-13.84-2.394"/>
            <path fill="#6E70A6" d="M177.6 140.437s-3.816.998-11.89 3.717c0 0-.075 22.703 3.801 47.112 0 0 17.065 3.24 30.207-6.173 0 0 .34-30.689-1.599-45.954 0 0-3.222-.761-6.429-.303l-14.09 1.6"/>
            <path fill="#EAD7A5" d="M187.214 141.147c9.97-.172 10.36-13.362 8.995-19.526-1.278-5.764-8.234-12.521-15.067-8.022-5.126 3.377-6.79 9.594-4.67 18.25 0 0 2.1 9.445 10.742 9.298z"/>
            <path fill="#352927" d="M184.275 111.06s-8.784.523-10.57 11.542c0 0-1.32 9.155 5.507 15.104 0 0-.24-3.79.257-4.53.498-.74-1.488-2.874-1.307-4.323.18-1.45.355-4.096 2.006-2.817l.597.6c.533.535 1.427.097 1.348-.66-.112-1.104-.077-2.327.426-3.103 1.11-1.723 7.436 1.354 14.19-.005 0 0 1.247-1.293 1.009-3.958 0 0-1.935-10.402-13.463-7.85"/>
            <path fill="#F3F4F1" d="M177.55 138.198l-1.482 2.264 9.456 9.047 2.873-3.597-10.847-7.714M188.397 146.468l3.354 3.041 1.578-10.328-4.932 7.287"/>
            <path fill="#492517" d="M181.92 125.853s-1.127 9.008 1.78 11.145c0 0 4.708 2.756 10.407.526 0 0 2.41 2.728.385 4.475-2.026 1.748-10.546 1.385-12.528-.68-1.983-2.068-2.46-11.146-1.405-15.001l.881-.907.48.442"/>
            <path fill="#FF8181" d="M197.15 124.067c.29-.215.747-.16 1.024.114l5.019 2.797-15.111 8.76-4.885-2.99c-.214-.258-.28-.585-.177-.87l.79-6.26c.11-.3.45-.467.81-.412 7.622 1.13 11.233-.172 12.53-1.139z"/>
            <path fill="url(#u)" d="M69.615 17.057l13.14-1.312c.346-.056.666.239.58.535l-.806 6.095c-.105.367-.434.64-.858.716l-13.033 1.491c-.34.062-.655-.233-.562-.522l.625-6.276c.122-.378.469-.652.914-.727" transform="translate(119.351 110.656)"/>
            <path fill="#FF8181" d="M182.972 126.252s-5.693-2.7-8.509-7.727c0 0-1.111.735-.81 2.592 0 0 2.942 4.926 8.999 7.736l.32-2.601"/>
            <path fill="#5FD7A3" d="M165.744 143.974s-17.645 4.017-35.21-17.58c0 0-3.635.258-5.758 6.677 0 0 12.313 25.839 42.09 25.282 0 0 4.726-11.03-1.122-14.38"/>
            <path fill="#EAD7A5" d="M244.444 119.773c-2.73-1.137-4.498 5.158-4.498 5.158l3.607 5.008c6.803-1.428 6.738-6.451 4.936-9.428-1.803-2.976-4.045-.738-4.045-.738z"/>
        </g>
        <g transform="rotate(7 -272.107 1498.38)">
            <path fill="#4A4A4A" d="M2.114.235L14.77 7.323a4.58 4.58 0 0 1 2.31 3.466 1.205 1.205 0 0 1-1.777 1.195L3.816 5.668A7.073 7.073 0 0 1 .47 1.566 1.14 1.14 0 0 1 2.114.235z"/>
            <path fill="#FFF" d="M2.793.61l10.813 6.057a3.913 3.913 0 0 1 1.974 2.96 1.03 1.03 0 0 1-1.52 1.022L4.248 5.252a6.043 6.043 0 0 1-2.86-3.504A.973.973 0 0 1 2.794.61z"/>
            <ellipse cx="16.029" cy="9.515" fill="#FFF" rx="1" ry="1"/>
            <path fill="#3ECF8E" d="M3.945 2.384l.987.984H2.959z"/>
            <path fill="#FA755A" d="M6.905 5.335l.986-.984H5.918z"/>
            <path fill="#3ECF8E" d="M11.343 6.319l.588-.586-.588-.398h-.986z"/>
            <path fill="#3DA1FF" d="M12.823 9.27l.986-.984h-1.973z"/>
        </g>
        <path fill="url(#v)" d="M69.5 174.127c-.066-.003-.113-.008-.16-.009h-1.537c-.365.002-.632.22-.625.508.007.283.267.488.627.49h1.538c.051 0 .102-.009.157-.013v-.976zm.166 1.821c.002-.115-.09-.099-.172-.099-.52 0-1.04.002-1.559 0-.828-.005-1.492-.458-1.684-1.146-.25-.896.559-1.783 1.636-1.793.568-.004 1.136-.002 1.703 0 .674.002 1.203.433 1.21 1.01.012.977.01 1.954 0 2.93-.005.554-.497.964-1.144.968-.645.004-1.29.014-1.935-.006-1.777-.056-3.317-1.161-3.713-2.647-.513-1.93.914-3.801 3.19-4.174.215-.035.438-.048.658-.05.92-.005 1.84-.001 2.76 0 .058 0 .116.004.174.006-.002.487-.435.915-.989.941-.578.027-1.158.013-1.738.014-.427 0-.843.048-1.241.191-1.217.437-1.905 1.48-1.77 2.512.156 1.194 1.147 2.094 2.486 2.217.695.063 1.405.01 2.128.01 0-.302-.003-.593 0-.884z" transform="rotate(-15 67.356 174.381)"/>
    </g>
</svg>
