<svg xmlns="http://www.w3.org/2000/svg" xmlns:xlink="http://www.w3.org/1999/xlink" width="76" height="83" viewBox="0 0 76 83">
    <defs>
        <rect id="b" width="68" height="68" rx="2"/>
        <filter id="a" width="141.2%" height="141.2%" x="-20.6%" y="-14.7%" filterUnits="objectBoundingBox">
            <feOffset dy="4" in="SourceAlpha" result="shadowOffsetOuter1"/>
            <feGaussianBlur in="shadowOffsetOuter1" result="shadowBlurOuter1" stdDeviation="4"/>
            <feColorMatrix in="shadowBlurOuter1" values="0 0 0 0 0.760784314 0 0 0 0 0.764705882 0 0 0 0 0.850980392 0 0 0 1 0"/>
        </filter>
    </defs>
    <g fill="none" fill-rule="evenodd">
        <g transform="translate(0 3.5)">
            <use fill="#000" filter="url(#a)" xlink:href="#b"/>
            <use fill="#FBFEFF" xlink:href="#b"/>
        </g>
        <path fill="#6E70A6" fill-rule="nonzero" d="M34.459 44.52c-6.239 0-10.933-9.066-10.933-14.945 0-6.028 4.905-10.932 10.933-10.932s10.933 4.904 10.933 10.932c0 5.879-4.695 14.944-10.933 14.944zm0-24.822c-5.447 0-9.877 4.43-9.877 9.877 0 5.484 4.425 13.889 9.877 13.889 5.452 0 9.877-8.405 9.877-13.889 0-5.446-4.43-9.877-9.877-9.877zm10.405 10.405a.525.525 0 0 1-.167-.028c-6.346-2.115-8.385-6.66-9.033-9.118-3.988 7.399-11.174 9.062-11.497 9.133a.528.528 0 0 1-.228-1.03c.08-.018 7.923-1.85 11.471-9.994a.513.513 0 0 1 .58-.308c.24.044.42.25.43.495.015.288.428 7.094 8.61 9.821a.528.528 0 0 1-.166 1.029zm4.01-1.944a.527.527 0 0 1-.527-.528v-2.005c0-6.656-5.78-12.07-12.887-12.07h-2.002c-7.107 0-12.887 5.414-12.887 12.07v1.962a.527.527 0 1 1-1.056 0v-1.962c0-7.237 6.255-13.126 13.943-13.126h2.002c7.688 0 13.943 5.889 13.943 13.126v2.005a.527.527 0 0 1-.528.528zm-27.583 7.71h-.877A4.42 4.42 0 0 1 16 31.457a4.42 4.42 0 0 1 4.414-4.414h.877c.292 0 .528.236.528.527v7.773a.527.527 0 0 1-.528.528zm-.877-7.772a3.362 3.362 0 0 0-3.358 3.359 3.362 3.362 0 0 0 3.358 3.358h.35v-6.717h-.35zm27.783 7.773h-.878a.527.527 0 0 1-.527-.528v-7.773c0-.291.236-.527.527-.527h.878a4.42 4.42 0 0 1 4.413 4.414 4.42 4.42 0 0 1-4.413 4.414zm-.35-1.056h.35a3.362 3.362 0 0 0 3.358-3.358 3.362 3.362 0 0 0-3.358-3.359h-.35v6.717zm-14.052 5.569H21.899a3.522 3.522 0 0 1-3.518-3.519V35.04a.527.527 0 1 1 1.056 0v1.825a2.465 2.465 0 0 0 2.462 2.463h11.896a.527.527 0 1 1 0 1.056zm16 21.728H19.122a.527.527 0 0 1-.527-.528v-1.755c0-6.42 5.223-11.643 11.643-11.643h8.44c6.42 0 11.643 5.223 11.643 11.643v1.755a.527.527 0 0 1-.528.528zM19.65 61.056h29.615v-1.228c0-5.838-4.75-10.587-10.587-10.587h-8.44c-5.838 0-10.588 4.75-10.588 10.587v1.228z"/>
    </g>
</svg>
