<svg xmlns="http://www.w3.org/2000/svg" xmlns:xlink="http://www.w3.org/1999/xlink" width="635" height="685" viewBox="0 0 635 685">
    <defs>
        <linearGradient id="a" x1="46.389%" x2="90.295%" y1="50%" y2="119.327%">
            <stop offset="0%" stop-color="#B6DEEB"/>
            <stop offset="100%" stop-color="#FFF"/>
        </linearGradient>
        <path id="b" d="M11.736 142.472c4.513 11.554-.394 25.003 1.356 36.935a138.438 138.438 0 0 0 3.542 16.85c9.545 34.448 46.898 77.015 49.182 109.3 17.534 247.647 63.24 337.69 230.633 372.872 167.391 35.18 317.42-74.409 335.099-244.778 15.346-147.881-15.52-239.645-193.986-264.543-27.136-3.785-156.845 10.299-180.21-84.492C229.176-29.683-61.283-44.46 11.735 142.472z"/>
        <filter id="c" width="111.2%" height="110.4%" x="-5.6%" y="-5.2%" filterUnits="objectBoundingBox">
            <feGaussianBlur in="SourceAlpha" result="shadowBlurInner1" stdDeviation="35"/>
            <feOffset dx="1" dy="1" in="shadowBlurInner1" result="shadowOffsetInner1"/>
            <feComposite in="shadowOffsetInner1" in2="SourceAlpha" k2="-1" k3="1" operator="arithmetic" result="shadowInnerInner1"/>
            <feColorMatrix in="shadowInnerInner1" values="0 0 0 0 0.75848327 0 0 0 0 0.767108868 0 0 0 0 1 0 0 0 1 0"/>
        </filter>
        <linearGradient id="d" x1="29.466%" x2="50%" y1="-45.189%" y2="100%">
            <stop offset="0%" stop-color="#4BB9F0"/>
            <stop offset="100%" stop-color="#2E2263"/>
        </linearGradient>
        <linearGradient id="e" x1="87.164%" x2="0%" y1="-17.724%" y2="100%">
            <stop offset="0%" stop-color="#70CFFF"/>
            <stop offset="52.634%" stop-color="#4A589C"/>
            <stop offset="100%" stop-color="#3C2E79"/>
        </linearGradient>
        <linearGradient id="f" x1="67.219%" x2="0%" y1="0%" y2="104.099%">
            <stop offset="0%" stop-color="#70CFFF"/>
            <stop offset="100%" stop-color="#3C2E79"/>
        </linearGradient>
        <path id="g" d="M2.04 135.643c-.277 0-.521-.084-.727-.262-2.75-2.372 3.448-13.3 6.362-18.07.84-1.372 1.403-2.235 1.403-2.235.131-.605.199-1.356.21-2.243.014-1.244-.082-2.75-.263-4.476-1.233-11.819-6.45-33.962-7.836-52.472-.355-4.74-.057-9.405.918-13.922a46.28 46.28 0 0 1 1.208-4.483c1.925-5.921 5.086-11.54 9.552-16.685-11.923 15.417 6.596 35.95 8.47 61.436.667 10.723 1.425 20.96-.099 26.126-.287.978-.989 2.558-1.97 4.476a101.602 101.602 0 0 1-2.442 4.479c-4.696 8.16-11.738 18.331-14.786 18.331m18.837-61.852c-.479-11.278-.156-21.763 3.781-26.057-3.937 4.294-4.26 14.779-3.781 26.057m3.817-26.095l.018-.017-.018.017m.028-.031c.007-.004.01-.01.014-.014-.003.003-.007.01-.014.014m.032-.032c.004-.003.007-.01.01-.014a.048.048 0 0 1-.01.014m-9.108-29.812C22.798 10.701 32.66 4.622 45.424.081c-12.011 4.28-22.01 10.473-29.778 17.74M45.456.07c.035-.014.07-.025.102-.039l-.102.039"/>
        <linearGradient id="h" x1="-31.579%" x2="154.434%" y1="10.242%" y2="62.394%">
            <stop offset="0%" stop-color="#3DA1FF"/>
            <stop offset="100%" stop-color="#3C2E79"/>
        </linearGradient>
        <path id="j" d="M.16 1.291C.139.934.115.576.094.215.118.573.139.934.16 1.291"/>
        <linearGradient id="k" x1="6297.4%" x2="79.07%" y1="-3463.2%" y2="5646.79%">
            <stop offset="0%" stop-color="#A03965"/>
            <stop offset="100%" stop-color="#542A65"/>
        </linearGradient>
        <path id="m" d="M.962 40.155c-.004-.028-.004-.059-.007-.087-.17-2.792-.337-5.616-.451-8.39.118 2.802.284 5.66.458 8.477m3.247-34.38c.003-.003.007-.006.007-.01l-.007.01m.024-.027l.01-.01-.01.01m.028-.028l.01-.014-.01.014m.024-.028l.017-.017c-.007.003-.01.01-.017.017m.028-.031c.01-.007.017-.017.028-.028C5.73 4.175 7.875 2.251 10.643.038 7.875 2.251 5.73 4.175 4.341 5.633c-.01.01-.018.021-.028.028"/>
        <linearGradient id="n" x1="2161.164%" x2="31.599%" y1="-199.818%" y2="588.857%">
            <stop offset="0%" stop-color="#A03965"/>
            <stop offset="100%" stop-color="#542A65"/>
        </linearGradient>
        <path id="p" d="M12.455 86.072c-1.87-25.355-20.335-45.78-8.446-61.118a54.259 54.259 0 0 1 2.77-2.958c7.747-7.23 17.716-13.391 29.693-17.649l.032-.01.102-.039c.057-.017.113-.038.17-.059C44.896 1.382 52.54.277 59.517.277c23.85 0 39.817 12.93 39.817 12.93-5.184.288-10.432 1.104-15.641 2.32-21.409 4.999-42.175 16.725-55.374 26.026a142.837 142.837 0 0 0-6.004 4.46c-2.817 2.213-5 4.139-6.414 5.598-.011.01-.018.021-.029.028l-.01.014-.018.018c-.003.003-.007.01-.014.013l-.01.014-.018.018-.011.01a.042.042 0 0 1-.018.017c0 .004-.003.007-.007.01-3.926 4.272-4.248 14.703-3.77 25.922.116 2.777.286 5.602.459 8.397"/>
        <linearGradient id="q" x1="-12.658%" x2="61.386%" y1="24.973%" y2="102.799%">
            <stop offset="0%" stop-color="#3C56A8"/>
            <stop offset="100%" stop-color="#3C5FB2"/>
        </linearGradient>
        <path id="s" d="M88.052 13.373c0 30.933-16.135 28.68-43.358 28.68-27.223 0-14.018 52.583 0 66.46 0 0 8.315 9.644-3.092 29.86-11.407 20.217-3.949-20.494-3.949-20.494S.393 80.875.153 46.56C-.078 12.242 44.694 2.268 44.694 2.268s43.358-8.938 43.358 11.106"/>
        <linearGradient id="t" x1="0%" x2="90.993%" y1="-9.942%" y2="42.856%">
            <stop offset="0%" stop-color="#3DA1FF"/>
            <stop offset="100%" stop-color="#3C2E79"/>
        </linearGradient>
        <linearGradient id="v" x1="50%" x2="50%" y1="0%" y2="100%">
            <stop offset="0%" stop-color="#566CAD"/>
            <stop offset="100%" stop-color="#3C2E79"/>
        </linearGradient>
        <linearGradient id="w" x1="40.926%" x2="40.926%" y1="-16.88%" y2="100%">
            <stop offset="0%" stop-color="#6389C6"/>
            <stop offset="100%" stop-color="#3C2E79"/>
        </linearGradient>
        <linearGradient id="x" x1="50%" x2="50%" y1="0%" y2="99.013%">
            <stop offset="0%" stop-color="#70CFFF"/>
            <stop offset="100%" stop-color="#484990"/>
        </linearGradient>
        <linearGradient id="y" x1="50%" x2="50%" y1="0%" y2="100%">
            <stop offset="0%" stop-color="#6ABCEF"/>
            <stop offset="100%" stop-color="#403D85"/>
        </linearGradient>
    </defs>
    <g fill="none" fill-rule="evenodd">
        <g transform="matrix(-1 0 0 1 635 0)">
            <use fill="url(#a)" xlink:href="#b"/>
            <use fill="#000" filter="url(#c)" xlink:href="#b"/>
        </g>
        <g fill-rule="nonzero">
            <path fill="#4CE59C" d="M160.663 292.007s8.337-46.359-36.192-71.037c-44.528-24.677-46.725-24.413-55.486-27.246-5.079-1.737-10.233 1.914-4.392 9.305 5.84 7.39 2.558 9.304 14.264 12.515 11.706 3.21 13.528 17.627 19.369 21.165 5.84 3.538 10.957 4.494 28.854 12.2 16.224 6.975 30.151 26.919 30.151 33.995 0 7.076 15.887 9.33 15.887 9.33l-12.455-.227z"/>
            <path fill="#3ECF8E" d="M158.01 284.224s11.126-42.128-27.54-64.732c-38.666-22.605-52.102-22.369-59.704-25.066-4.401-1.528 7.59 3.853 12.67 10.6 5.08 6.748 3.832 5.245 12.868 10.216 10.52 5.803 14.907 11.445 21.014 12.613 8.974 1.715 6.316 11.01 21.817 18.069 14.055 6.362 15.872 23.45 15.872 29.9 0 6.449 13.77 8.599 13.77 8.599l-10.766-.2zM197.535 278.919l4.32-4.126a16.952 16.952 0 0 1 7.405-4.053c13.576-3.57 56.388-17.11 74.05-49.601a.606.606 0 0 0-.371-.84h-.222c-5.887-.445-36.37-.84-76.962 34.072-.732.6-1.391 1.284-1.962 2.039-1.025 1.42-2.728 3.83-3.456 5.127-1.086 1.865 1.061 4.941-1.79 7.795-2.85 2.854-8.935 9.649-8.935 9.649l5.01 3.706 2.913-3.768z"/>
            <path fill="#3ECF8E" d="M173.746 276.629s11.384-106.277-20.49-139.579c-29.375-30.617-29.732-2.358-29.609 2.383.008.409.114.81.308 1.167 6.97 13.109 9.415 28.226 6.94 42.922-2.953 15.365 18.57 13.308 20.441 28.447 1.87 15.14 9.476 38.457 8.738 49.207-.739 10.749-.763 21.185-.763 21.185l11.752.326 2.683-6.058z"/>
            <path fill="#38AF76" d="M173.584 277.164c.103-.23.17-.476.197-.728.702-6.956 10.253-107.164-20.556-139.37-29.195-30.51-29.713-2.624-29.577 2.335.013.474.163.932.431 1.319 2.12 3.151 12.176 17.277 20.753 15.644 23.539-4.369 2.823 24.597 15.689 39.99 10.253 12.167 6.987 54.28 6.235 65.053a112.695 112.695 0 0 1-3.031 18.005c-.138.758.04 1.54.49 2.16a2.713 2.713 0 0 0 1.888 1.104c.18.014.362.014.543 0h2.156c1.248.08 2.424-.6 2.995-1.733l1.787-3.779z"/>
            <path fill="#3ECF8E" d="M185.316 281.819s1.975-29.14 18.93-47a35.003 35.003 0 0 1 17.315-9.764c5.056-1.242 13.428-5.291 20.595-18.917 0 0 13.663-19.414 27.326-25.363 13.664-5.95 0-6.571 0-6.571s-39.151 7.564-64.217 30.58a46.033 46.033 0 0 1-5.044 3.987c-6.52 4.484-24.47 21.327-23.6 70.328l8.695 2.72z"/>
            <path fill="#FF8181" d="M215.637 282.254s.475-2.966-3.387-2.883c-3.388.125-60.932-.156-60.932-.156s-2.665 0-2.5 2.082c.166 2.082 9.037 50.292 9.863 51.301a2.883 2.883 0 0 0 1.663 1.218c1.033.312 41.465-.458 41.465-.458.427.088.872-.023 1.21-.301.338-.279.534-.695.535-1.135-.114.083 12.197-49.105 12.083-49.668z"/>
            <path fill="#EF4B2D" d="M215.637 282.131s.473-2.916-3.37-2.916h-11.73c.657.453 2.209 14.296 1.633 24.033a31.796 31.796 0 0 1-1.736 8.537c-2.29 6.632-7.55 21.643-8.217 22.106l9.512-.148c.425.089.867-.023 1.203-.305.337-.281.532-.702.533-1.147.04.158 12.285-49.591 12.172-50.16z"/>
        </g>
        <path fill="#E7807F" d="M450.384 483.163l1.397 23.432h-41.669s16.993-11.403 24.598-15.15l.854-8.282h14.82"/>
        <path fill="#32317B" d="M436.354 293.969l-2.803 196.137h16.503s18.229-76.834 9.27-99.261l15.896-96.876h-38.866"/>
        <path fill="#C7C6C1" d="M434.107 465.806l.312-27.772-.312 27.772"/>
        <path fill="#9C9BBD" d="M434.138 436.299l.281-23.433v.002l-.281 23.43"/>
        <path fill="#3D4C8E" d="M435.287 411.998v-.002l1.737-112.82-1.737 112.822"/>
        <path fill="url(#d)" d="M69.449 338.467l-28.332-33.33a280.746 280.746 0 0 1-.316-3.175l10.15-35.182 14.717-83.992 1.426.175-.116-7.655 2.47 163.159" transform="matrix(-1 0 0 1 503 123.868)"/>
        <path fill="#492517" d="M496.319 490.106L503 513.538h-47.746s20.206-11.403 28.191-15.153l-1.468-8.279h14.342"/>
        <path fill="url(#e)" d="M67.713 169.233L50.76 267.218l-28.457 99.888H5.209s5.48-95.882 23.122-105.87l-13.934-92.003h53.316" transform="matrix(-1 0 0 1 503 123.868)"/>
        <path fill="#2978C2" d="M435.287 306.12l1.737-.16-1.595-6.784-.142 6.943"/>
        <path fill="#2978C2" d="M436.81 307.855l48.52-6.458 1.176-8.296h-52.087l2.39 14.754"/>
        <path fill="#F8E7BB" d="M410.112 225.111s-10.811-16.746-27.78-20.532l6.654 7.656s-3.16 7.95.832 11.924c3.993 3.974 10.48 4.291 10.48 4.291l4.492 4.769 5.322-8.108"/>
        <path fill="#FFFFFE" d="M448.662 212.39l-14.15 29.037-27.821-18.826-6.996 10.69s24.165 45.626 34.818 42.277c10.65-3.35 19.873-27.442 19.873-27.442l-5.724-35.736"/>
        <path fill="#D6EDF2" d="M433.512 275.744c.268-.026.535-.052.788-.13 10.764-3.354 20.086-27.462 20.086-27.462L448.6 212.39 434.3 241.448l-13.77-9.227 12.982 43.523"/>
        <path fill="#F8E7BB" d="M438.676 144.368s-1.685 14.624-3.389 18.157h4.722s-.364 14.029 2.542 15.797c2.08 1.266 8.159 0 9.589 1.65 1.43 1.652 3.487 13.325 3.487 13.325l18.767-1.533-1.937-16.39s10.534-12.26 7.384-27.35c-3.147-15.093-38.38-17.685-41.165-3.656"/>
        <path fill="#3D4C8E" d="M456.768 191.561l17.584-1.596-17.584 1.596s-1.928-12.154-3.267-13.872c-.005-.005-.007-.01-.01-.014.003.005.005.01.01.014 1.34 1.718 3.267 13.872 3.267 13.872m-2.965-12.952c-.506-.629-1.605-.845-2.888-.934h-.002c1.283.092 2.384.305 2.89.934"/>
        <path fill="#E1CFA1" d="M453.312 189.825l19.216-1.472-1.983-15.738c.02-.02 2.466-2.724 4.675-7.09l-15.214.714c.566.34-6.108 8.01-13.433 9.916 1.401.082 2.603.28 3.155.861l.002.002.011.012c1.465 1.586 3.571 12.795 3.571 12.795"/>
        <path fill="#1C1D1D" d="M437.458 148.456s3.837 2.314 11.64-2.875c0 0 5.202 9.498 9.774 8.301 0 0 .235 6.784 1.182 7.263.944.48 2.914-5.825 4.886-6.226 1.97-.4 3.94 1.598 1.89 7.503-2.048 5.908-5.832 5.908-5.832 5.908l10.05 6.742s7.92-2.594 9.496-9.217c0 0 10.088-9.978 4.02-17.002 0 0 6.697-5.745-8.907-12.689 0 0-3.666-13.768-10.993-7.423 0 0-13.454-10.177-16.827-1.117 0 0-17.338-1.438-18.44 8.061-1.104 9.497 3.072 11.813 3.072 11.813s-.95 7.82 3.856 8.299l1.133-7.34"/>
        <path fill="url(#f)" d="M15.057 86.5s-9.226-2.234-7.635-12.136c1.59-9.9 14.534-14.373 41.043-8.145 3.13.735 5.567 5.91 3.499 10.381 0 0 8.51 21 11.134 38.25 2.626 17.247 4.057 35.214 6.92 43.598 2.864 8.386.478 17.728-7.395 17.728H14.21c-9.572 0-10.817-13.415-6.972-27.31 3.843-13.894 9.41-52.383 7.82-62.365" transform="matrix(-1 0 0 1 503 123.868)"/>
        <path fill="#FFFFFE" d="M465.005 204.764c-15.139 3.199-4.602 32.948-1.585 41.481 3.018 8.532 6.358 16.119 1.585 22.755-4.773 6.638-13.224 13.984-13.224 13.984l5.636 11.853s31.508-4.03 39-13.274c7.493-9.244 3.25-29.925-3.246-44.09-6.499-14.162-16.949-35.079-28.166-32.709"/>
        <path fill="#FFF" d="M457.367 297.37c.425-.171.61-.615.413-.991l-8.728-16.729c-.196-.376-.697-.539-1.12-.365-.425.172-.609.618-.412.992l8.727 16.73c.197.375.698.538 1.12.364"/>
        <path fill="#C7C6C1" d="M207.843 496.12v-.002.002m0 .003v-.005.005m0-.003v-.002.002m0 .003v-.005.005m-.002 0c0-.003 0-.003.002-.005-.002.002-.002.002-.002.005m.002-.003v-.002.002m0 .003v-.005.005m0 .002v-.007.007m0-.005v-.002.002m0 0v-.002.002m0 .008v-.01.01m0-.005v-.005.005m-.002.015c0-.005 0-.013.002-.02-.002.007-.002.015-.002.02m.002-.015v-.005.005m0 .002v-.007.007m-.002-.005l.002-.002-.002.002m.002.003v-.005.005m0 .007v-.012.012m0-.007v-.005.005m0 .012v-.017.017m-.004.044c0-.02.002-.039.004-.061-.002.022-.004.04-.004.06m.004-.053v-.007.007m-.004.033l.004-.04-.004.04m.002-.012c0-.008 0-.018.002-.028-.002.01-.002.02-.002.028m0-.01c0-.006 0-.01.002-.018-.002.007-.002.012-.002.017m.002-.015v-.002.002m0 .015v-.017.017m-.004.046c0-.02.002-.04.004-.063-.002.022-.004.043-.004.063m.004-.053v-.01.01m-.004.028l.004-.038-.004.038m.002-.018c.002-.008.002-.015.002-.02 0 .007 0 .012-.002.02m.002-.005v-.015.015m-.002-2.543c0-.005 0-.007.002-.013-.002.006-.002.008-.002.013m0 .005l.002-.018-.002.018m0-.007c.002-.003.002-.008.002-.01 0 .002 0 .007-.002.01m.002-.005v-.006.006m0 0v-.006.006m-.002.015c0-.005 0-.013.002-.02-.002.007-.002.015-.002.02"/>
        <g>
            <path fill="#BC6636" d="M402.993 625.493v-.005l-245.5-141.62v.005l245.5 141.62m2.602-11.084l21.88-12.537L196.12 468.409l231.354 133.463-21.879 12.537"/>
            <path fill="#E68A3D" d="M274.586 501.388l21.804-12.84-35.501-21.048-39.117-22.523-20.874 12.727 73.688 43.684"/>
            <path fill="#161717" d="M353.685 655l15.702-8.908 3.396-84.821-15.702 8.908L353.685 655"/>
            <path fill="#27292A" d="M357.507 569.95l15.276-8.561-14.24-7.929-15.275 8.56 14.24 7.93"/>
            <path fill="#222425" d="M344.136 563.007l2.733 87.337 7.933 4.656 3.224-83.838-13.89-8.155"/>
            <path fill="#161717" d="M448.31 582.967l15.701-7.423 3.396-70.684-15.702 7.423-3.396 70.684"/>
            <path fill="#27292A" d="M452.131 514.406l15.276-8.56-14.24-7.93-15.275 8.561 14.24 7.93"/>
            <path fill="#222425" d="M437.892 506.595l2.733 72.503 7.933 3.87 3.223-69.603-13.89-6.77"/>
            <path fill="#161717" d="M121.9 515.274l15.702-8.908 3.396-84.821-15.702 8.908-3.396 84.821"/>
            <path fill="#27292A" d="M125.72 431.091l15.278-8.56-14.242-7.929-15.274 8.56 14.238 7.93"/>
            <path fill="#222425" d="M112.35 423.28l2.73 87.338 7.936 4.656 3.224-83.839-13.89-8.154"/>
            <path fill="#161717" d="M216.524 460.599l15.702-8.908 3.396-84.822-15.702 8.908-3.396 84.822"/>
            <path fill="#27292A" d="M220.344 376.416l15.278-8.56-14.242-7.93-15.274 8.561 14.238 7.929"/>
            <path fill="#222425" d="M206.106 368.605l2.73 87.333 7.936 4.66 3.224-83.838-13.89-8.155"/>
            <path fill="#C6C7C3" d="M126.24 473.617l117.779-68.475.284-101.627-117.778 68.475-.285 101.627"/>
            <path fill="#FFFFFE" d="M126.442 371.209l117.861-67.433-27.113-15.882L99.33 355.327l27.113 15.882"/>
            <path fill="#E5E6E3" d="M98.75 357.323l-.29 100.366 27.492 15.928.288-100.367-27.49-15.927"/>
            <path fill="#C6C7C3" d="M417.346 387.845l30.095-17.504-.284 151.729-30.1 17.504.289-151.729"/>
            <path fill="#FFFFFE" d="M213.92 271.506l30.129-17.459 203.392 117.06-30.13 17.46-203.392-117.06"/>
            <path fill="#E5E6E3" d="M417.057 388.744l-.288 151.698-202.85-117.34.289-151.697 202.85 117.34"/>
            <path fill="#6C2D2B" d="M417.057 485.767l-.116 53.347-87.563 50.796.116-53.351 87.563-50.792"/>
            <path fill="#E5E6E3" d="M329.378 536.613l-.116 53.297L126.24 473.106l.117-53.297 203.021 116.804"/>
            <path fill="#FFFFFE" d="M417.057 486.245l-87.671 50.726L126.24 420.199l87.672-50.726 203.145 116.772"/>
            <path fill="#C6C7C3" d="M356.29 606.4l117.773-68.47.29-101.631-117.775 68.474-.289 101.627"/>
            <path fill="#FFFFFE" d="M356.491 504.86l117.861-67.433-27.117-15.882-117.857 67.433 27.113 15.882"/>
            <path fill="#E5E6E3" d="M328.803 489.238l-.293 100.366 27.486 15.928.293-100.366-27.486-15.928"/>
        </g>
        <g>
            <g transform="rotate(5 -4853.504 2118.833)">
                <mask id="i" fill="#fff">
                    <use xlink:href="#g"/>
                </mask>
                <path fill="url(#h)" d="M2.04 135.643c-.277 0-.521-.084-.727-.262-2.75-2.372 3.448-13.3 6.362-18.07.84-1.372 1.403-2.235 1.403-2.235.131-.605.199-1.356.21-2.243.014-1.244-.082-2.75-.263-4.476-1.233-11.819-6.45-33.962-7.836-52.472-.355-4.74-.057-9.405.918-13.922a46.28 46.28 0 0 1 1.208-4.483c1.925-5.921 5.086-11.54 9.552-16.685-11.923 15.417 6.596 35.95 8.47 61.436.667 10.723 1.425 20.96-.099 26.126-.287.978-.989 2.558-1.97 4.476a101.602 101.602 0 0 1-2.442 4.479c-4.696 8.16-11.738 18.331-14.786 18.331m18.837-61.852c-.479-11.278-.156-21.763 3.781-26.057-3.937 4.294-4.26 14.779-3.781 26.057m3.817-26.095l.018-.017-.018.017m.028-.031c.007-.004.01-.01.014-.014-.003.003-.007.01-.014.014m.032-.032c.004-.003.007-.01.01-.014a.048.048 0 0 1-.01.014m-9.108-29.812C22.798 10.701 32.66 4.622 45.424.081c-12.011 4.28-22.01 10.473-29.778 17.74M45.456.07c.035-.014.07-.025.102-.039l-.102.039" mask="url(#i)"/>
            </g>
            <g transform="rotate(5 -5808.094 2316.205)">
                <mask id="l" fill="#fff">
                    <use xlink:href="#j"/>
                </mask>
                <path fill="url(#k)" d="M.16 1.291C.139.934.115.576.094.215.118.573.139.934.16 1.291" mask="url(#l)"/>
            </g>
            <g transform="rotate(5 -5350.481 2326.224)">
                <mask id="o" fill="#fff">
                    <use xlink:href="#m"/>
                </mask>
                <path fill="url(#n)" d="M.962 40.155c-.004-.028-.004-.059-.007-.087-.17-2.792-.337-5.616-.451-8.39.118 2.802.284 5.66.458 8.477m3.247-34.38c.003-.003.007-.006.007-.01l-.007.01m.024-.027l.01-.01-.01.01m.028-.028l.01-.014-.01.014m.024-.028l.017-.017c-.007.003-.01.01-.017.017m.028-.031c.01-.007.017-.017.028-.028C5.73 4.175 7.875 2.251 10.643.038 7.875 2.251 5.73 4.175 4.341 5.633c-.01.01-.018.021-.028.028" mask="url(#o)"/>
            </g>
            <g transform="rotate(5 -4807.717 2210.476)">
                <mask id="r" fill="#fff">
                    <use xlink:href="#p"/>
                </mask>
                <path fill="url(#q)" d="M4.009 24.954a54.259 54.259 0 0 1 2.77-2.958c7.747-7.23 17.716-13.391 29.693-17.649.19-.066.247-.087.304-.108C44.896 1.382 52.54.277 59.517.277c23.85 0 39.817 12.93 39.817 12.93-5.184.288-10.432 1.104-15.641 2.32-21.409 4.999-42.175 16.725-55.374 26.026a142.837 142.837 0 0 0-6.004 4.46c-2.817 2.213-5 4.139-6.414 5.598-4.061 4.414-4.383 14.845-3.905 26.064.116 2.777.286 5.602.459 8.397-1.87-25.355-20.335-45.78-8.446-61.118z" mask="url(#r)"/>
            </g>
            <g transform="rotate(5 -4813.36 2339.715)">
                <mask id="u" fill="#fff">
                    <use xlink:href="#s"/>
                </mask>
                <path fill="url(#t)" d="M88.052 13.373c0 30.933-16.135 28.68-43.358 28.68-27.223 0-14.018 52.583 0 66.46 0 0 8.315 9.644-3.092 29.86-11.407 20.217-3.949-20.494-3.949-20.494S.393 80.875.153 46.56C-.078 12.242 44.694 2.268 44.694 2.268s43.358-8.938 43.358 11.106" mask="url(#u)"/>
            </g>
        </g>
        <g>
            <path fill="#FA755A" d="M216.666 389.468c6.225 21.246-7.536 35.453-7.536 35.453s19.639-7.717 62.955 21.793a76.507 76.507 0 0 0-2.281-7.678c-6.312-17.882-14.216-37.452-18.557-44.88-6.925-11.853 18.127-33.517 10.602-45.326-4.49-7.045-13.58-4.667-22.758-4.527l-10.327-7.38c-11.08 3.581-20.49 23.904-12.098 52.545z"/>
            <path fill="#352927" d="M216.012 274.665c14.775-1.695 17.772 11.504 21.285 25.404 3.512 13.897 5.546 18.76 11.366 24.895 5.819 6.136 2.877 11.892 8.24 18.068 5.364 6.175 24.775 28.534 4.6 39.463-20.172 10.931-33.881 3.882-41.11-7.858-7.227-11.74-10.412-19.251-18.45-24.506-8.04-5.254-9.301-17.058-5.23-25.663 4.07-8.604 2.353-15.097-.079-24.509-2.43-9.41 2.552-23.363 19.378-25.294"/>
            <path fill="#271F1D" d="M209.52 340.532l-1.595-18.225c2.288 3.99 5.578 6.758 6.321 6.693 1.14-.1 3.253-1.19 3.253-1.19l.603 4.985-2.84.248.467 5.342s-3.247.928-6.209 2.147"/>
            <path fill="#F8E7BB" d="M205.134 343.041s-5.115 2.6-7.172 14.083c-2.057 11.483-7.734 49.86-7.734 49.86l-24.29 37.411s-6.174 1.15-9.663 3.288c-3.489 2.14-5.436 6.129-5.436 6.129s3.152-.735 6.554-2.101l-5.759 11.195 12.765-1.117s6.322-6.509 9.18-14.09l31.014-37.541s3.687-34.843 5.746-42.813c2.059-7.97-5.205-24.304-5.205-24.304M201.167 303.744s7.655-3.073 12.247-7.025c0 0-2.066 3.96-.698 3.84 1.367-.12 8.817-9.473 8.817-9.473s.342 17.028 9.44 23.902l1.77 20.221-14.587 1.276-1.054-8.716s-2.114 1.089-3.253 1.188c-1.14.1-8.289-6.48-8.592-13.894-.206-5.015-2.55-10.767-4.09-11.319"/>
            <path fill="#1E1816" d="M217.704 332.749l-.602-4.98.602 4.98"/>
            <path fill="#E2D09E" d="M223.251 332.264l-5.547.485-.602-4.98s7.252-2.063 10.93-10.55c0 0 .224 9.36-4.78 15.045"/>
            <path fill="#FF8181" d="M215.33 338.336l-.466-5.339 19.603-1.715s-.142 4.933 1.666 5.922c1.81.986 11.8 2.286 14.58 6.507 2.78 4.221 7.124 24.01 5.417 41.092-1.707 17.08-1.21 20.13 1.92 25.693 3.126 5.566 7.812 13.168 8.773 18.924 0 0-37.58 10.155-59.603 5.214 0 0 7.799-25.066 5.522-37.079-2.276-12.01-10.383-15.423-12.222-22.435-1.839-7.014 3.187-17.833 3.187-17.833s-1.324-11.637 1.029-14.298c1.927-2.18 10.595-4.653 10.595-4.653"/>
            <path fill="#23224E" d="M252.654 432.588"/>
            <g fill="#F8E7BB">
                <path d="M244.825 357.681l7.181 35.81-41.015 22.476s-11.176-5.99-15.585-6.633c-4.41-.643-14.372.686-14.516 2.983-.141 2.297 10.964 4.867 10.964 4.867l5.201 4.455s-8.176-1.796-8.407-.52c-.233 1.276 9.674 7.15 21.901 2.882 0 0 52.99-16.266 56.18-18.891 3.883-3.195-5.34-37.455-6.59-42.599-1.253-5.145-4.555-17.155-10.874-20.7l-4.44 15.87z"/>
            </g>
            <g stroke="#352927">
                <path stroke-linecap="square" d="M221.872 306.2l7.178-7.597"/>
                <path d="M207.357 315.303c2.407-.21 4.289-1.174 4.095-3.389-.194-2.215-2.302-3.84-4.709-3.63-4.358.382-3.744 7.4.614 7.02z"/>
                <path stroke-linecap="square" d="M211.797 310.566l2.518-1.091"/>
                <path d="M218.08 312.13c2.407-.21 4.289-1.174 4.095-3.39-.194-2.215-2.302-3.84-4.71-3.63-4.357.382-3.743 7.401.615 7.02z"/>
            </g>
        </g>
        <g>
            <path fill="#C0D8D8" d="M266.874 431.96l-38.197 16.489h-59.031l39.319-16.205z"/>
            <path fill="#E5E6E3" d="M226.94 448.449h-57.832l-28.11-38.964 2.985-1.826h56.122l26.836 40.79"/>
            <path fill="#EEE" d="M169.138 448.449l-28.14-39.054h57.724l25.615 39.054z"/>
            <path fill="#C6C7C3" d="M169.646 453.656h58.163v-5.207h-58.163z"/>
            <path fill="#E5E6E3" d="M226.94 454.524l39.066-18.338v-4.227l-39.065 17.006v5.559"/>
        </g>
        <g>
            <path fill="#8D6E57" d="M421.06 560.403l-1.399 23.432h41.67s-16.994-11.403-24.598-15.15l-.854-8.282h-14.82"/>
            <path fill="#8D6E57" d="M453.254 549.12l-6.681 23.433h47.746s-20.206-11.403-28.191-15.153l1.468-8.28h-14.342"/>
            <path fill="#EAD7A5" d="M275.118 335.087c4.036-4.619 7.238-.044 7.238-.044 5.08-1.138 6.22 10.343 6.22 10.343l-7.782 7.598c-11.356-4.565-9.71-13.276-5.676-17.897"/>
            <path fill="#5FD7A3" d="M410.817 368.308s43.626 3.902 72.837-26.607l8.929 13.339s-29.546 39.134-82.47 34.949l.704-21.68"/>
            <path fill="url(#v)" d="M140.918 131.047s31.935 18.016 51.198 37.306c0 0 7.864 36.979 6.529 64.843 0 0-6.96 10.007-24.08 6.43l-6.368-61.907-51.69-27.558-4.52-17.417 28.93-1.697" transform="translate(272.083 318.27)"/>
            <path fill="url(#w)" d="M111.318 138.858s46.907 33.097 51.923 40.8c0 0 7.147 46.911 5.893 67.86 0 0-13.792 10.21-25.79 3.762 0 0-7.144-54.613-7.683-60.165 0 0-35.914-15.191-41.645-21.458-5.734-6.27-8.938-22.675-6.229-27.992l23.53-2.807" transform="translate(272.083 318.27)"/>
            <path fill="#E1CFA1" d="M374.465 360.794l-.813 11.118s1.986 7.63 11.729 8.732c9.745 1.103 13.446-6.344 13.446-6.344v-9.28l-24.362-4.226"/>
            <path fill="#6E70A6" d="M374.613 370.821s-6.717 1.76-20.928 6.559c0 0-.133 40.063 6.69 83.136 0 0 30.037 5.719 53.17-10.892 0 0 .598-54.155-2.815-81.093 0 0-5.672-1.344-11.316-.535l-24.8 2.825"/>
            <path fill="#EAD7A5" d="M391.536 372.074c17.548-.303 18.235-23.578 15.832-34.455-2.249-10.172-14.494-22.097-26.521-14.157-9.022 5.96-11.95 16.93-8.22 32.203 0 0 3.695 16.67 18.909 16.409z"/>
            <path fill="#352927" d="M386.362 318.98s-15.462.924-18.607 20.369c0 0-2.323 16.155 9.695 26.653 0 0-.422-6.689.452-7.992.878-1.306-2.62-5.073-2.3-7.63.316-2.559.624-7.228 3.53-4.972l1.052 1.06c.938.943 2.512.17 2.373-1.164-.197-1.95-.136-4.107.75-5.478 1.953-3.039 13.088 2.391 24.976-.008 0 0 2.195-2.28 1.776-6.983 0 0-3.405-18.358-23.697-13.855"/>
            <path fill="#F3F4F1" d="M374.525 366.87l-2.61 3.996 16.646 15.964 5.057-6.348-19.093-13.613M393.618 381.465l5.903 5.365 2.778-18.225-8.68 12.86"/>
            <path fill="#492517" d="M382.216 345.085s-1.984 15.897 3.133 19.668c0 0 8.288 4.863 18.319.928 0 0 4.242 4.813.678 7.897-3.567 3.084-18.563 2.444-22.052-1.201-3.49-3.648-4.329-19.668-2.474-26.471l1.553-1.6.843.779"/>
            <path fill="#FF8181" d="M409.025 341.935c.51-.38 1.314-.285 1.802.2l8.834 4.936-26.598 15.46-8.598-5.277c-.377-.457-.494-1.033-.312-1.538l1.391-11.045c.193-.53.792-.825 1.425-.727 13.417 1.995 19.772-.304 22.056-2.01z"/>
            <path fill="url(#x)" d="M122.537 30.099l23.129-2.316c.608-.097 1.172.423 1.02.946l-1.417 10.756c-.187.647-.764 1.129-1.512 1.262l-22.94 2.632c-.597.108-1.153-.412-.989-.921l1.1-11.076c.214-.666.825-1.15 1.609-1.283" transform="translate(272.083 318.27)"/>
            <path fill="#FF8181" d="M384.069 345.79s-10.022-4.765-14.978-13.635c0 0-1.956 1.296-1.425 4.574 0 0 5.177 8.691 15.838 13.651l.565-4.59"/>
            <path fill="#5FD7A3" d="M353.744 377.062s-31.058 7.09-61.979-31.021c0 0-6.397.455-10.133 11.781 0 0 21.672 45.597 74.088 44.614 0 0 8.317-19.462-1.976-25.374"/>
            <path fill="#EAD7A5" d="M492.276 334.357c-4.805-2.004-7.923 9.105-7.923 9.105l6.346 8.834c11.976-2.524 11.867-11.388 8.697-16.64-3.173-5.249-7.12-1.3-7.12-1.3z"/>
        </g>
        <g transform="rotate(7 -1455.126 3205.93)">
            <path fill="#4A4A4A" d="M3.729.419l22.3 12.523a8 8 0 0 1 4.03 6.051l.005.045a2.125 2.125 0 0 1-3.137 2.106L5.141 9.133a8 8 0 0 1-3.78-4.641L.826 2.764A2.009 2.009 0 0 1 3.73.419z"/>
            <path fill="#FFF" d="M4.922 1.08L23.943 11.76a6.91 6.91 0 0 1 3.481 5.228 1.816 1.816 0 0 1-2.68 1.8L6.54 8.753a8 8 0 0 1-3.78-4.641l-.318-1.028a1.716 1.716 0 0 1 2.48-2.004z"/>
            <ellipse cx="28.214" cy="16.791" fill="#FFF" rx="1" ry="1"/>
            <path fill="#3ECF8E" d="M6.945 4.207L8.68 5.943H5.21z"/>
            <path fill="#FA755A" d="M12.154 9.414L13.89 7.68h-3.473z"/>
            <path fill="#3ECF8E" d="M19.967 11.15L21 10.116l-1.034-.702H18.23z"/>
            <path fill="#3DA1FF" d="M22.57 16.357l1.737-1.735h-3.472z"/>
        </g>
        <path fill="url(#y)" d="M122.335 307.273c-.116-.007-.199-.016-.28-.016-.903-.001-1.805-.003-2.708 0-.643.003-1.112.389-1.1.895.013.5.47.861 1.104.864.903.003 1.805.002 2.708 0 .089 0 .178-.014.276-.022v-1.721zm.292 3.213c.003-.203-.16-.175-.303-.175-.915 0-1.83.003-2.744-.002-1.457-.007-2.627-.807-2.964-2.02-.44-1.581.983-3.148 2.88-3.164.999-.008 1.998-.004 2.997 0 1.186.004 2.118.763 2.13 1.783.02 1.723.017 3.447 0 5.17-.009.977-.875 1.7-2.013 1.707-1.136.007-2.273.026-3.407-.01-3.128-.098-5.84-2.05-6.535-4.672-.904-3.405 1.609-6.707 5.613-7.364.38-.063.773-.086 1.16-.088 1.62-.009 3.239-.004 4.858-.002.102 0 .205.008.305.012-.002.858-.764 1.615-1.74 1.66-1.017.048-2.039.023-3.058.025-.753.001-1.485.085-2.186.337-2.142.77-3.352 2.613-3.116 4.432.275 2.108 2.02 3.695 4.377 3.912 1.223.113 2.473.02 3.745.02 0-.534-.004-1.048.001-1.56z" transform="rotate(-15 616.7 133.753)"/>
    </g>
</svg>
