<svg xmlns="http://www.w3.org/2000/svg" xmlns:xlink="http://www.w3.org/1999/xlink" width="199" height="224" viewBox="0 0 199 224">
    <defs>
        <rect id="a" width="133" height="158" rx="4"/>
        <filter id="b" width="179.7%" height="167.1%" x="-39.8%" y="-29.1%" filterUnits="objectBoundingBox">
            <feOffset dy="7" in="SourceAlpha" result="shadowOffsetOuter1"/>
            <feGaussianBlur in="shadowOffsetOuter1" result="shadowBlurOuter1" stdDeviation="16.5"/>
            <feColorMatrix in="shadowBlurOuter1" values="0 0 0 0 0.431372549 0 0 0 0 0.439215686 0 0 0 0 0.650980392 0 0 0 0.469684103 0"/>
        </filter>
    </defs>
    <g fill="none" fill-rule="evenodd" transform="translate(33 26)">
        <mask id="c" fill="#fff">
            <use xlink:href="#a"/>
        </mask>
        <use fill="#000" filter="url(#b)" xlink:href="#a"/>
        <use fill="#FFF" xlink:href="#a"/>
        <g fill="#444C63" fill-rule="nonzero" mask="url(#c)">
            <path d="M105.981 100.427c.68-2.997 4.772-5.697 4.772-8.9 0-3.204-4.09-5.904-4.772-8.9-.703-3.094 1.793-7.298.446-10.089-1.368-2.838-6.225-3.497-8.172-5.934-1.956-2.45-1.525-7.328-3.975-9.284-2.437-1.947-7.096-.45-9.934-1.819-2.791-1.347-4.517-5.936-7.61-6.639-2.997-.68-6.534 2.69-9.737 2.69-3.204 0-6.74-3.372-9.737-2.69-3.094.703-4.82 5.292-7.61 6.64-2.839 1.368-7.496-.129-9.933 1.818-2.45 1.956-2.02 6.834-3.976 9.284-1.946 2.437-6.803 3.098-8.171 5.935-1.348 2.792 1.148 6.995.445 10.09-.68 2.997-4.771 5.697-4.771 8.9 0 3.204 4.09 5.904 4.771 8.9.703 3.094-1.793 7.298-.445 10.089 1.368 2.838 6.225 3.497 8.171 5.934 1.956 2.45 1.526 7.328 3.976 9.284 1.797 1.436 4.8 1 7.394 1.221.036.167.052.345.093.51a20.364 20.364 0 0 0 19.804 15.538c9.396 0 17.532-6.39 19.783-15.533.042-.168.058-.345.094-.515 2.592-.22 5.596.215 7.394-1.22 2.45-1.957 2.02-6.835 3.976-9.285 1.946-2.437 6.803-3.098 8.171-5.935 1.346-2.792-1.15-6.995-.447-10.09zm-18.753 13.36v-9.462c.05 0 .098.014.149.015a4.724 4.724 0 0 1 4.583 4.717c0 2.562-2.04 4.635-4.583 4.716-.051.002-.099.014-.15.014zm-40.455 0c-.051 0-.099-.014-.15-.015a4.724 4.724 0 0 1-4.583-4.717 4.724 4.724 0 0 1 4.583-4.716c.051-.001.099-.016.15-.016v9.465zm37.988 8.83c0 1.459-.17 2.878-.506 4.222-1.963 7.978-9.055 13.55-17.245 13.55-8.201 0-15.3-5.572-17.266-13.554a17.433 17.433 0 0 1-.505-4.218V94.805c.459.054.924.09 1.396.09h32.73c.472 0 .938-.037 1.396-.09v27.812zm-21.19-14.019a1.207 1.207 0 1 0 0-2.413 1.207 1.207 0 0 0 0 2.413zm6.912.121a1.15 1.15 0 1 0 0-2.3 1.15 1.15 0 0 0 0 2.3zM67 24.221a1.216 1.216 0 0 1-1.212-1.213v-6.664c0-.666.545-1.212 1.212-1.212.667 0 1.212.546 1.212 1.212v6.664c0 .667-.545 1.213-1.212 1.213zm9.31 9.309c0-.667.544-1.212 1.212-1.212h6.664c.666 0 1.212.545 1.212 1.212 0 .667-.546 1.212-1.212 1.212h-6.664a1.216 1.216 0 0 1-1.213-1.212zm-26.494 1.21a1.215 1.215 0 0 1-1.213-1.211c0-.667.546-1.213 1.213-1.213h6.664c.666 0 1.212.546 1.212 1.213 0 .666-.546 1.212-1.212 1.212h-6.664zm25.48-7.793a1.216 1.216 0 0 1-1.715 0 1.216 1.216 0 0 1 0-1.714l4.713-4.712a1.216 1.216 0 0 1 1.714 0 1.216 1.216 0 0 1 0 1.714l-4.713 4.712zm-16.591 0l-4.713-4.712a1.215 1.215 0 0 1 0-1.714 1.216 1.216 0 0 1 1.714 0l4.713 4.712a1.216 1.216 0 0 1 0 1.714 1.216 1.216 0 0 1-1.714 0zm4.708 14.64c-1.18-2.46-2.973-4.464-2.879-8.21.084-3.312 3.644-5.864 6.434-5.864l.032.001.032-.001c2.792-.002 6.35 2.552 6.434 5.864.094 3.745-1.699 5.748-2.879 8.21-.403.845-.42 1.593-.462 2.221h-6.25c-.042-.628-.059-1.376-.462-2.22zM67 47.873a2.686 2.686 0 0 1-2.687-2.688h5.376A2.689 2.689 0 0 1 67 47.872zm.688 73.737a.688.688 0 0 1-1.376 0v-2.414h-3.626v3.947A4.328 4.328 0 0 0 67 127.458a4.328 4.328 0 0 0 4.316-4.316v-3.947H67.69v2.414h-.002zm4.142-11.506h-9.66c-2.923 0-5.313 2.39-5.313 5.313v2.886h20.286v-2.886c0-2.922-2.39-5.313-5.313-5.313z"/>
        </g>
    </g>
</svg>
