<svg xmlns="http://www.w3.org/2000/svg" xmlns:xlink="http://www.w3.org/1999/xlink" width="20" height="20" viewBox="0 0 20 20">
    <defs>
        <path id="a" d="M113.167 1H94.833L94 1.833v18.334l.833.833h18.334l.833-.833V1.833L113.167 1zm-13.25 17.083H97V8.5h3v9.583h-.083zm-1.5-10.916c-.917 0-1.75-.75-1.75-1.75 0-.917.75-1.75 1.75-1.75.916 0 1.75.75 1.75 1.75s-.75 1.75-1.75 1.75zm12.666 10.916h-3v-4.666c0-1.084 0-2.5-1.5-2.5-1.583 0-1.75 1.166-1.75 2.416v4.75h-3V8.5h2.834v1.333c.416-.75 1.333-1.5 2.833-1.5 3 0 3.583 2 3.583 4.584v5.166z"/>
    </defs>
    <use fill="#626883" fill-rule="evenodd" transform="translate(-94 -1)" xlink:href="#a"/>
</svg>
