<svg xmlns="http://www.w3.org/2000/svg" width="66" height="66" viewBox="0 0 66 66">
    <path fill="#6E70A6" fill-rule="nonzero" d="M17.122 7.878l1.414-1.414a5.006 5.006 0 0 0-7.071 0 5.006 5.006 0 0 0 0 7.071l1.414-1.414a3.005 3.005 0 0 1 0-4.243 3.005 3.005 0 0 1 4.243 0zM59 28H18V17.411c2.928-1.19 5-4.061 5-7.411 0-4.411-3.589-8-8-8s-8 3.589-8 8c0 3.35 2.072 6.221 5 7.411V28H7c-2.757 0-5 2.243-5 5v26c0 2.757 2.243 5 5 5h52c2.757 0 5-2.243 5-5V33c0-2.757-2.243-5-5-5zM18 43v-4.99A5 5 0 0 1 20 42c0 2.757-2.243 5-5 5s-5-2.243-5-5a5 5 0 0 1 2-3.99V43h6zM9 10c0-3.309 2.691-6 6-6s6 2.691 6 6-2.691 6-6 6-6-2.691-6-6zm6 8c.339 0 .672-.028 1-.069V41h-2V17.931c.328.041.661.069 1 .069zm47 33c0 1.654-1.346 3-3 3h-7v2h7c1.13 0 2.162-.391 3-1.026V59c0 1.654-1.346 3-3 3H7c-1.654 0-3-1.346-3-3v-4.026A4.948 4.948 0 0 0 7 56h39v-2H7c-1.654 0-3-1.346-3-3V33c0-1.654 1.346-3 3-3h5v5.702C9.587 36.853 8 39.29 8 42c0 3.86 3.14 7 7 7s7-3.14 7-7c0-2.71-1.587-5.147-4-6.298V30h41c1.654 0 3 1.346 3 3v18zm-14 3h2v2h-2v-2zm5-22c-2.757 0-5 2.243-5 5s2.243 5 5 5 5-2.243 5-5-2.243-5-5-5zm0 8c-1.654 0-3-1.346-3-3s1.346-3 3-3 3 1.346 3 3-1.346 3-3 3zm-5 7c0-2.757-2.243-5-5-5s-5 2.243-5 5 2.243 5 5 5 5-2.243 5-5zm-5 3c-1.654 0-3-1.346-3-3s1.346-3 3-3 3 1.346 3 3-1.346 3-3 3zM33 32c-2.757 0-5 2.243-5 5s2.243 5 5 5 5-2.243 5-5-2.243-5-5-5zm0 8c-1.654 0-3-1.346-3-3s1.346-3 3-3 3 1.346 3 3-1.346 3-3 3zm17 18h2v2h-2v-2zm-13 0h11v2H37v-2z"/>
</svg>
