<svg xmlns="http://www.w3.org/2000/svg" xmlns:xlink="http://www.w3.org/1999/xlink" width="1439" height="728" viewBox="0 0 1439 728">
    <defs>
        <radialGradient id="b" cy="39.701%" r="100%" fx="50%" fy="39.701%" gradientTransform="matrix(0 1 -.50556 0 .7 -.103)">
            <stop offset="0%" stop-color="#3B4B4C" stop-opacity=".986"/>
            <stop offset="100%" stop-color="#1D2525"/>
        </radialGradient>
        <path id="a" d="M0 0h1440v728H0z"/>
        <linearGradient id="d" x1="50%" x2="50%" y1="0%" y2="100%">
            <stop offset="0%" stop-color="#97ABAD" stop-opacity=".209"/>
            <stop offset="100%" stop-color="#5D7375" stop-opacity=".376"/>
        </linearGradient>
        <linearGradient id="e" x1="49.935%" x2="50%" y1="0%" y2="100%">
            <stop offset="0%" stop-color="#FFF" stop-opacity=".248"/>
            <stop offset="100%" stop-color="#5D7375" stop-opacity=".267"/>
        </linearGradient>
        <linearGradient id="f" x1="49.935%" x2="50%" y1="0%" y2="100%">
            <stop offset="0%" stop-color="#FFF" stop-opacity=".182"/>
            <stop offset="100%" stop-color="#5D7375" stop-opacity=".193"/>
        </linearGradient>
        <linearGradient id="g" x1="49.935%" x2="50%" y1="0%" y2="100%">
            <stop offset="0%" stop-color="#FFF" stop-opacity=".135"/>
            <stop offset="96.703%" stop-color="#5D7375" stop-opacity=".415"/>
        </linearGradient>
        <linearGradient id="h" x1="49.935%" x2="50%" y1="0%" y2="100%">
            <stop offset="0%" stop-color="#FFF" stop-opacity=".142"/>
            <stop offset="100%" stop-color="#5D7375" stop-opacity=".299"/>
        </linearGradient>
        <linearGradient id="i" x1="49.935%" x2="50%" y1="0%" y2="100%">
            <stop offset="3.522%" stop-color="#FFF" stop-opacity=".234"/>
            <stop offset="100%" stop-color="#5D7375" stop-opacity=".288"/>
        </linearGradient>
        <linearGradient id="j" x1="49.935%" x2="50%" y1="0%" y2="100%">
            <stop offset="0%" stop-color="#FFF" stop-opacity=".223"/>
            <stop offset="100%" stop-color="#5D7375" stop-opacity=".517"/>
        </linearGradient>
        <linearGradient id="k" x1="49.935%" x2="50%" y1="0%" y2="100%">
            <stop offset="0%" stop-color="#FFF" stop-opacity=".081"/>
            <stop offset="100%" stop-color="#5D7375" stop-opacity=".336"/>
        </linearGradient>
        <linearGradient id="l" x1="99.967%" x2="-.033%" y1="49.967%" y2="50.033%">
            <stop offset="0%" stop-color="#FFF" stop-opacity=".253"/>
            <stop offset="100%" stop-color="#5D7375" stop-opacity=".378"/>
        </linearGradient>
        <path id="n" d="M64.19 72.567L50.352 85.266a2 2 0 0 1-2.704 0L33.81 72.567H3.846c-1.337 0-1.822-.14-2.311-.4A2.726 2.726 0 0 1 .4 71.031C.139 70.543 0 70.06 0 68.722V3.845c0-1.337.14-1.822.4-2.311A2.726 2.726 0 0 1 1.536.4C2.024.139 2.509 0 3.845 0h90.31c1.336 0 1.821.14 2.31.4.49.262.873.646 1.134 1.135.262.489.401.974.401 2.31v64.876c0 1.338-.14 1.822-.4 2.311a2.726 2.726 0 0 1-1.135 1.134c-.489.262-.974.401-2.31.401H64.19z"/>
        <filter id="m" width="166.3%" height="181.4%" x="-23%" y="-20.3%" filterUnits="objectBoundingBox">
            <feOffset dx="10" dy="20" in="SourceAlpha" result="shadowOffsetOuter1"/>
            <feGaussianBlur in="shadowOffsetOuter1" result="shadowBlurOuter1" stdDeviation="7.5"/>
            <feComposite in="shadowBlurOuter1" in2="SourceAlpha" operator="out" result="shadowBlurOuter1"/>
            <feColorMatrix in="shadowBlurOuter1" values="0 0 0 0 0.120801446 0 0 0 0 0.120801446 0 0 0 0 0.120801446 0 0 0 1 0"/>
        </filter>
        <circle id="p" cx="10" cy="111" r="10"/>
        <filter id="o" width="405%" height="405%" x="-142.5%" y="-122.5%" filterUnits="objectBoundingBox">
            <feMorphology in="SourceAlpha" operator="dilate" radius="2" result="shadowSpreadOuter1"/>
            <feOffset dx="2" dy="6" in="shadowSpreadOuter1" result="shadowOffsetOuter1"/>
            <feGaussianBlur in="shadowOffsetOuter1" result="shadowBlurOuter1" stdDeviation="8.5"/>
            <feComposite in="shadowBlurOuter1" in2="SourceAlpha" operator="out" result="shadowBlurOuter1"/>
            <feColorMatrix in="shadowBlurOuter1" values="0 0 0 0 0 0 0 0 0 0 0 0 0 0 0 0 0 0 1 0"/>
        </filter>
        <path id="r" d="M9.5.5v83"/>
        <filter id="q" width="1066.7%" height="134.5%" x="-283.3%" y="-12.5%" filterUnits="objectBoundingBox">
            <feMorphology in="SourceAlpha" operator="dilate" radius="1" result="shadowSpreadOuter1"/>
            <feOffset dx="6" dy="4" in="shadowSpreadOuter1" result="shadowOffsetOuter1"/>
            <feMorphology in="SourceAlpha" radius="1" result="shadowInner"/>
            <feOffset dx="6" dy="4" in="shadowInner" result="shadowInner"/>
            <feComposite in="shadowOffsetOuter1" in2="shadowInner" operator="out" result="shadowOffsetOuter1"/>
            <feGaussianBlur in="shadowOffsetOuter1" result="shadowBlurOuter1" stdDeviation="3.5"/>
            <feColorMatrix in="shadowBlurOuter1" values="0 0 0 0 0 0 0 0 0 0 0 0 0 0 0 0 0 0 1 0"/>
        </filter>
        <path id="t" d="M64.19 72.567L50.352 85.266a2 2 0 0 1-2.704 0L33.81 72.567H3.846c-1.337 0-1.822-.14-2.311-.4A2.726 2.726 0 0 1 .4 71.031C.139 70.543 0 70.06 0 68.722V3.845c0-1.337.14-1.822.4-2.311A2.726 2.726 0 0 1 1.536.4C2.024.139 2.509 0 3.845 0h90.31c1.336 0 1.821.14 2.31.4.49.262.873.646 1.134 1.135.262.489.401.974.401 2.31v64.876c0 1.338-.14 1.822-.4 2.311a2.726 2.726 0 0 1-1.135 1.134c-.489.262-.974.401-2.31.401H64.19z"/>
        <filter id="s" width="166.3%" height="181.4%" x="-23%" y="-20.3%" filterUnits="objectBoundingBox">
            <feOffset dx="10" dy="20" in="SourceAlpha" result="shadowOffsetOuter1"/>
            <feGaussianBlur in="shadowOffsetOuter1" result="shadowBlurOuter1" stdDeviation="7.5"/>
            <feComposite in="shadowBlurOuter1" in2="SourceAlpha" operator="out" result="shadowBlurOuter1"/>
            <feColorMatrix in="shadowBlurOuter1" values="0 0 0 0 0.120801446 0 0 0 0 0.120801446 0 0 0 0 0.120801446 0 0 0 1 0"/>
        </filter>
        <circle id="v" cx="10" cy="64" r="10"/>
        <filter id="u" width="405%" height="405%" x="-142.5%" y="-122.5%" filterUnits="objectBoundingBox">
            <feMorphology in="SourceAlpha" operator="dilate" radius="2" result="shadowSpreadOuter1"/>
            <feOffset dx="2" dy="6" in="shadowSpreadOuter1" result="shadowOffsetOuter1"/>
            <feGaussianBlur in="shadowOffsetOuter1" result="shadowBlurOuter1" stdDeviation="8.5"/>
            <feComposite in="shadowBlurOuter1" in2="SourceAlpha" operator="out" result="shadowBlurOuter1"/>
            <feColorMatrix in="shadowBlurOuter1" values="0 0 0 0 0 0 0 0 0 0 0 0 0 0 0 0 0 0 1 0"/>
        </filter>
        <path id="x" d="M9.5 0v41.5"/>
        <filter id="w" width="1066.7%" height="169%" x="-283.3%" y="-25%" filterUnits="objectBoundingBox">
            <feMorphology in="SourceAlpha" operator="dilate" radius="1" result="shadowSpreadOuter1"/>
            <feOffset dx="6" dy="4" in="shadowSpreadOuter1" result="shadowOffsetOuter1"/>
            <feMorphology in="SourceAlpha" radius="1" result="shadowInner"/>
            <feOffset dx="6" dy="4" in="shadowInner" result="shadowInner"/>
            <feComposite in="shadowOffsetOuter1" in2="shadowInner" operator="out" result="shadowOffsetOuter1"/>
            <feGaussianBlur in="shadowOffsetOuter1" result="shadowBlurOuter1" stdDeviation="3.5"/>
            <feColorMatrix in="shadowBlurOuter1" values="0 0 0 0 0 0 0 0 0 0 0 0 0 0 0 0 0 0 1 0"/>
        </filter>
        <path id="z" d="M64.05 72.131L50.241 84.754a2 2 0 0 1-2.699 0L33.736 72.13H3.846c-1.337 0-1.822-.139-2.311-.4A2.726 2.726 0 0 1 .4 70.597C.139 70.107 0 69.623 0 68.286V3.846c0-1.337.14-1.822.4-2.311A2.726 2.726 0 0 1 1.536.4C2.024.139 2.509 0 3.845 0H93.94c1.337 0 1.822.14 2.311.4.489.262.873.646 1.134 1.135.262.489.4.974.4 2.31v64.44c0 1.338-.138 1.823-.4 2.312a2.726 2.726 0 0 1-1.134 1.134c-.489.261-.974.4-2.311.4h-29.89z"/>
        <filter id="y" width="166.5%" height="181.9%" x="-23%" y="-20.5%" filterUnits="objectBoundingBox">
            <feOffset dx="10" dy="20" in="SourceAlpha" result="shadowOffsetOuter1"/>
            <feGaussianBlur in="shadowOffsetOuter1" result="shadowBlurOuter1" stdDeviation="7.5"/>
            <feComposite in="shadowBlurOuter1" in2="SourceAlpha" operator="out" result="shadowBlurOuter1"/>
            <feColorMatrix in="shadowBlurOuter1" values="0 0 0 0 0.120801446 0 0 0 0 0.120801446 0 0 0 0 0.120801446 0 0 0 1 0"/>
        </filter>
        <circle id="B" cx="10" cy="38" r="10"/>
        <filter id="A" width="405%" height="405%" x="-142.5%" y="-122.5%" filterUnits="objectBoundingBox">
            <feMorphology in="SourceAlpha" operator="dilate" radius="2" result="shadowSpreadOuter1"/>
            <feOffset dx="2" dy="6" in="shadowSpreadOuter1" result="shadowOffsetOuter1"/>
            <feGaussianBlur in="shadowOffsetOuter1" result="shadowBlurOuter1" stdDeviation="8.5"/>
            <feComposite in="shadowBlurOuter1" in2="SourceAlpha" operator="out" result="shadowBlurOuter1"/>
            <feColorMatrix in="shadowBlurOuter1" values="0 0 0 0 0 0 0 0 0 0 0 0 0 0 0 0 0 0 1 0"/>
        </filter>
        <path id="D" d="M9.5.5v20"/>
        <filter id="C" width="1066.7%" height="238.1%" x="-283.3%" y="-50%" filterUnits="objectBoundingBox">
            <feMorphology in="SourceAlpha" operator="dilate" radius="1" result="shadowSpreadOuter1"/>
            <feOffset dx="6" dy="4" in="shadowSpreadOuter1" result="shadowOffsetOuter1"/>
            <feMorphology in="SourceAlpha" radius="1" result="shadowInner"/>
            <feOffset dx="6" dy="4" in="shadowInner" result="shadowInner"/>
            <feComposite in="shadowOffsetOuter1" in2="shadowInner" operator="out" result="shadowOffsetOuter1"/>
            <feGaussianBlur in="shadowOffsetOuter1" result="shadowBlurOuter1" stdDeviation="3.5"/>
            <feColorMatrix in="shadowBlurOuter1" values="0 0 0 0 0 0 0 0 0 0 0 0 0 0 0 0 0 0 1 0"/>
        </filter>
        <path id="F" d="M64.05 72.131L50.241 84.754a2 2 0 0 1-2.699 0L33.736 72.13H3.846c-1.337 0-1.822-.139-2.311-.4A2.726 2.726 0 0 1 .4 70.597C.139 70.107 0 69.623 0 68.286V3.846c0-1.337.14-1.822.4-2.311A2.726 2.726 0 0 1 1.536.4C2.024.139 2.509 0 3.845 0H93.94c1.337 0 1.822.14 2.311.4.489.262.873.646 1.134 1.135.262.489.4.974.4 2.31v64.44c0 1.338-.138 1.823-.4 2.312a2.726 2.726 0 0 1-1.134 1.134c-.489.261-.974.4-2.311.4h-29.89z"/>
        <filter id="E" width="166.5%" height="181.9%" x="-23%" y="-20.5%" filterUnits="objectBoundingBox">
            <feOffset dx="10" dy="20" in="SourceAlpha" result="shadowOffsetOuter1"/>
            <feGaussianBlur in="shadowOffsetOuter1" result="shadowBlurOuter1" stdDeviation="7.5"/>
            <feComposite in="shadowBlurOuter1" in2="SourceAlpha" operator="out" result="shadowBlurOuter1"/>
            <feColorMatrix in="shadowBlurOuter1" values="0 0 0 0 0.120801446 0 0 0 0 0.120801446 0 0 0 0 0.120801446 0 0 0 1 0"/>
        </filter>
        <circle id="H" cx="10" cy="57" r="10"/>
        <filter id="G" width="405%" height="405%" x="-142.5%" y="-122.5%" filterUnits="objectBoundingBox">
            <feMorphology in="SourceAlpha" operator="dilate" radius="2" result="shadowSpreadOuter1"/>
            <feOffset dx="2" dy="6" in="shadowSpreadOuter1" result="shadowOffsetOuter1"/>
            <feGaussianBlur in="shadowOffsetOuter1" result="shadowBlurOuter1" stdDeviation="8.5"/>
            <feComposite in="shadowBlurOuter1" in2="SourceAlpha" operator="out" result="shadowBlurOuter1"/>
            <feColorMatrix in="shadowBlurOuter1" values="0 0 0 0 0 0 0 0 0 0 0 0 0 0 0 0 0 0 1 0"/>
        </filter>
        <path id="J" d="M10.5 0v38.5"/>
        <filter id="I" width="1066.7%" height="174.4%" x="-283.3%" y="-26.9%" filterUnits="objectBoundingBox">
            <feMorphology in="SourceAlpha" operator="dilate" radius="1" result="shadowSpreadOuter1"/>
            <feOffset dx="6" dy="4" in="shadowSpreadOuter1" result="shadowOffsetOuter1"/>
            <feMorphology in="SourceAlpha" radius="1" result="shadowInner"/>
            <feOffset dx="6" dy="4" in="shadowInner" result="shadowInner"/>
            <feComposite in="shadowOffsetOuter1" in2="shadowInner" operator="out" result="shadowOffsetOuter1"/>
            <feGaussianBlur in="shadowOffsetOuter1" result="shadowBlurOuter1" stdDeviation="3.5"/>
            <feColorMatrix in="shadowBlurOuter1" values="0 0 0 0 0 0 0 0 0 0 0 0 0 0 0 0 0 0 1 0"/>
        </filter>
        <path id="L" d="M64.19 72.567L50.352 85.266a2 2 0 0 1-2.704 0L33.81 72.567H3.846c-1.337 0-1.822-.14-2.311-.4A2.726 2.726 0 0 1 .4 71.031C.139 70.543 0 70.06 0 68.722V3.845c0-1.337.14-1.822.4-2.311A2.726 2.726 0 0 1 1.536.4C2.024.139 2.509 0 3.845 0h90.31c1.336 0 1.821.14 2.31.4.49.262.873.646 1.134 1.135.262.489.401.974.401 2.31v64.876c0 1.338-.14 1.822-.4 2.311a2.726 2.726 0 0 1-1.135 1.134c-.489.262-.974.401-2.31.401H64.19z"/>
        <filter id="K" width="166.3%" height="181.4%" x="-23%" y="-20.3%" filterUnits="objectBoundingBox">
            <feOffset dx="10" dy="20" in="SourceAlpha" result="shadowOffsetOuter1"/>
            <feGaussianBlur in="shadowOffsetOuter1" result="shadowBlurOuter1" stdDeviation="7.5"/>
            <feComposite in="shadowBlurOuter1" in2="SourceAlpha" operator="out" result="shadowBlurOuter1"/>
            <feColorMatrix in="shadowBlurOuter1" values="0 0 0 0 0.120801446 0 0 0 0 0.120801446 0 0 0 0 0.120801446 0 0 0 1 0"/>
        </filter>
        <circle id="N" cx="10" cy="137" r="10"/>
        <filter id="M" width="405%" height="405%" x="-142.5%" y="-122.5%" filterUnits="objectBoundingBox">
            <feMorphology in="SourceAlpha" operator="dilate" radius="2" result="shadowSpreadOuter1"/>
            <feOffset dx="2" dy="6" in="shadowSpreadOuter1" result="shadowOffsetOuter1"/>
            <feGaussianBlur in="shadowOffsetOuter1" result="shadowBlurOuter1" stdDeviation="8.5"/>
            <feComposite in="shadowBlurOuter1" in2="SourceAlpha" operator="out" result="shadowBlurOuter1"/>
            <feColorMatrix in="shadowBlurOuter1" values="0 0 0 0 0 0 0 0 0 0 0 0 0 0 0 0 0 0 1 0"/>
        </filter>
        <path id="P" d="M10.5.5v110"/>
        <filter id="O" width="1066.7%" height="126.1%" x="-283.3%" y="-9.5%" filterUnits="objectBoundingBox">
            <feMorphology in="SourceAlpha" operator="dilate" radius="1" result="shadowSpreadOuter1"/>
            <feOffset dx="6" dy="4" in="shadowSpreadOuter1" result="shadowOffsetOuter1"/>
            <feMorphology in="SourceAlpha" radius="1" result="shadowInner"/>
            <feOffset dx="6" dy="4" in="shadowInner" result="shadowInner"/>
            <feComposite in="shadowOffsetOuter1" in2="shadowInner" operator="out" result="shadowOffsetOuter1"/>
            <feGaussianBlur in="shadowOffsetOuter1" result="shadowBlurOuter1" stdDeviation="3.5"/>
            <feColorMatrix in="shadowBlurOuter1" values="0 0 0 0 0 0 0 0 0 0 0 0 0 0 0 0 0 0 1 0"/>
        </filter>
        <path id="R" d="M64.05 72.131L50.241 84.754a2 2 0 0 1-2.699 0L33.736 72.13H3.846c-1.337 0-1.822-.139-2.311-.4A2.726 2.726 0 0 1 .4 70.597C.139 70.107 0 69.623 0 68.286V3.846c0-1.337.14-1.822.4-2.311A2.726 2.726 0 0 1 1.536.4C2.024.139 2.509 0 3.845 0H93.94c1.337 0 1.822.14 2.311.4.489.262.873.646 1.134 1.135.262.489.4.974.4 2.31v64.44c0 1.338-.138 1.823-.4 2.312a2.726 2.726 0 0 1-1.134 1.134c-.489.261-.974.4-2.311.4h-29.89z"/>
        <filter id="Q" width="166.5%" height="181.9%" x="-23%" y="-20.5%" filterUnits="objectBoundingBox">
            <feOffset dx="10" dy="20" in="SourceAlpha" result="shadowOffsetOuter1"/>
            <feGaussianBlur in="shadowOffsetOuter1" result="shadowBlurOuter1" stdDeviation="7.5"/>
            <feComposite in="shadowBlurOuter1" in2="SourceAlpha" operator="out" result="shadowBlurOuter1"/>
            <feColorMatrix in="shadowBlurOuter1" values="0 0 0 0 0.120801446 0 0 0 0 0.120801446 0 0 0 0 0.120801446 0 0 0 1 0"/>
        </filter>
        <circle id="T" cx="10" cy="145" r="10"/>
        <filter id="S" width="405%" height="405%" x="-142.5%" y="-122.5%" filterUnits="objectBoundingBox">
            <feMorphology in="SourceAlpha" operator="dilate" radius="2" result="shadowSpreadOuter1"/>
            <feOffset dx="2" dy="6" in="shadowSpreadOuter1" result="shadowOffsetOuter1"/>
            <feGaussianBlur in="shadowOffsetOuter1" result="shadowBlurOuter1" stdDeviation="8.5"/>
            <feComposite in="shadowBlurOuter1" in2="SourceAlpha" operator="out" result="shadowBlurOuter1"/>
            <feColorMatrix in="shadowBlurOuter1" values="0 0 0 0 0 0 0 0 0 0 0 0 0 0 0 0 0 0 1 0"/>
        </filter>
        <path id="V" d="M9.5 1v118"/>
        <filter id="U" width="1066.7%" height="124.4%" x="-283.3%" y="-8.8%" filterUnits="objectBoundingBox">
            <feMorphology in="SourceAlpha" operator="dilate" radius="1" result="shadowSpreadOuter1"/>
            <feOffset dx="6" dy="4" in="shadowSpreadOuter1" result="shadowOffsetOuter1"/>
            <feMorphology in="SourceAlpha" radius="1" result="shadowInner"/>
            <feOffset dx="6" dy="4" in="shadowInner" result="shadowInner"/>
            <feComposite in="shadowOffsetOuter1" in2="shadowInner" operator="out" result="shadowOffsetOuter1"/>
            <feGaussianBlur in="shadowOffsetOuter1" result="shadowBlurOuter1" stdDeviation="3.5"/>
            <feColorMatrix in="shadowBlurOuter1" values="0 0 0 0 0 0 0 0 0 0 0 0 0 0 0 0 0 0 1 0"/>
        </filter>
        <path id="X" d="M64.05 72.131L50.241 84.754a2 2 0 0 1-2.699 0L33.736 72.13H3.846c-1.337 0-1.822-.139-2.311-.4A2.726 2.726 0 0 1 .4 70.597C.139 70.107 0 69.623 0 68.286V3.846c0-1.337.14-1.822.4-2.311A2.726 2.726 0 0 1 1.536.4C2.024.139 2.509 0 3.845 0H93.94c1.337 0 1.822.14 2.311.4.489.262.873.646 1.134 1.135.262.489.4.974.4 2.31v64.44c0 1.338-.138 1.823-.4 2.312a2.726 2.726 0 0 1-1.134 1.134c-.489.261-.974.4-2.311.4h-29.89z"/>
        <filter id="W" width="166.5%" height="181.9%" x="-23%" y="-20.5%" filterUnits="objectBoundingBox">
            <feOffset dx="10" dy="20" in="SourceAlpha" result="shadowOffsetOuter1"/>
            <feGaussianBlur in="shadowOffsetOuter1" result="shadowBlurOuter1" stdDeviation="7.5"/>
            <feComposite in="shadowBlurOuter1" in2="SourceAlpha" operator="out" result="shadowBlurOuter1"/>
            <feColorMatrix in="shadowBlurOuter1" values="0 0 0 0 0.120801446 0 0 0 0 0.120801446 0 0 0 0 0.120801446 0 0 0 1 0"/>
        </filter>
        <circle id="Z" cx="10" cy="10" r="10"/>
        <filter id="Y" width="405%" height="405%" x="-142.5%" y="-122.5%" filterUnits="objectBoundingBox">
            <feMorphology in="SourceAlpha" operator="dilate" radius="2" result="shadowSpreadOuter1"/>
            <feOffset dx="2" dy="6" in="shadowSpreadOuter1" result="shadowOffsetOuter1"/>
            <feGaussianBlur in="shadowOffsetOuter1" result="shadowBlurOuter1" stdDeviation="8.5"/>
            <feComposite in="shadowBlurOuter1" in2="SourceAlpha" operator="out" result="shadowBlurOuter1"/>
            <feColorMatrix in="shadowBlurOuter1" values="0 0 0 0 0 0 0 0 0 0 0 0 0 0 0 0 0 0 1 0"/>
        </filter>
    </defs>
    <g fill="rgba(0,0,0,0)" fill-rule="evenodd">
        <g transform="translate(-1)">
            <mask id="c" fill="#fff">
                <use xmlns:xlink="http://www.w3.org/1999/xlink" xlink:href="#a"/>
            </mask>
            <use xmlns:xlink="http://www.w3.org/1999/xlink" fill="rgba(0,0,0,0)" xlink:href="#a"/>
            
            
            
            
            
            
            
            
            
            
            
            
            
            
            
            
            
            
            
            
            
            
            
            
            
            
            
        </g>
        
        <path stroke="#FFF" stroke-dasharray="30,18" stroke-linecap="round" stroke-width="3" d="M-14.572 679.447c27.979-19.8 23.352-14.268 41.67-31.568 35.483-33.509 37.145-109.557 114.399-129.593 26.94-6.987 62.083-3.516 126.154-10.61 25.63-2.837 93.743-31.525 140.067-46.18 30.906-9.777 84.758-19.329 180.455-24.428 239.13-12.743 295.444 108.243 385.491 108.243 90.047 0 136.998-3.585 178.784-38.142C1180.306 484.13 1198.156 432.408 1206 352" style="&#10;    stroke: #fff;&#10;"/>
        
        
        
        
        
        
        
        
        
        
        
        
        
        
    </g>
</svg>