<svg xmlns="http://www.w3.org/2000/svg" width="66" height="64" viewBox="0 0 66 64">
    <path fill="#6E70A6" fill-rule="nonzero" d="M54.29.318l-10.002 9.994c-.368.376-.361 1.053.015 1.421.377.368 1.054.36 1.423-.016l9.282-9.276 9.283 9.276c.368.376 1.045.384 1.422.016.376-.368.384-1.045.015-1.42L55.727.317a1.018 1.018 0 0 0-.716-.315c-.274-.028-.528.169-.722.315zM31.004.038c-3.855 0-7.001 3.143-7.001 6.995 0 3.513 2.614 6.419 6 6.902a1.473 1.473 0 0 0 0 .094v18.99c-.007.527.472 1.013 1 1.013.529 0 1.008-.486 1-1.014V14.03a1.473 1.473 0 0 0 0-.094c3.387-.483 6.002-3.389 6.002-6.902 0-3.852-3.147-6.996-7.001-6.996zM.684 1.238C.297 1.62.21 2.341.625 2.723l5.126 5.122-4.782 4.779C.6 13 .608 13.677.984 14.044c.377.369 1.054.361 1.423-.015l4.782-4.747 4.75 4.747c.368.376 1.046.384 1.422.016.377-.368.384-1.045.016-1.421L8.595 7.845l5.126-5.122c.374-.36.293-.983-.027-1.372-.462-.463-.97-.361-1.411-.033l-5.094 5.09-5.126-5.09c-.5-.425-1.038-.351-1.38-.079zm30.32.766c2.774 0 5.001 2.256 5.001 5.028a4.984 4.984 0 0 1-5 4.997c-2.774 0-5.001-2.225-5.001-4.997s2.227-5.028 5-5.028zm24.004 9.026a3 3 0 1 0 3 2.998 3 3 0 0 0-3-2.998zm0 9.994a3 3 0 1 0 3 2.998 3 3 0 0 0-3-2.998zm0 9.994a3 3 0 1 0 3 2.998 3 3 0 0 0-3-2.998zM6.001 35.017V50.07C2.614 50.554 0 53.46 0 56.973 0 60.825 3.146 64 7.001 64c3.855 0 7.001-3.175 7.001-7.027 0-3.513-2.614-6.419-6-6.902V35.017H6zm48.507 4.997a2.5 2.5 0 1 0-.002 4.999 2.5 2.5 0 0 0 .002-5zm-29.804.53c-.401.374-.496 1.112-.075 1.5l4.938 4.966-4.938 4.935c-.369.376-.361 1.053.015 1.42.377.369 1.054.361 1.422-.015l4.939-4.935 4.938 4.935c.368.376 1.046.383 1.422.016.376-.368.384-1.045.016-1.421l-4.939-4.935 4.939-4.966c.375-.361.292-.987-.03-1.375-.43-.46-.986-.341-1.408-.03l-4.938 4.934-4.939-4.934c-.65-.463-1.02-.34-1.362-.095zm25.803 7.465a2.5 2.5 0 1 0 2.5 2.499 2.5 2.5 0 0 0-2.5-2.499zM6.501 52.007c.169-.017.327 0 .5 0 2.774 0 5 2.194 5 4.966 0 2.772-2.226 5.028-5 5.028s-5-2.256-5-5.028a4.988 4.988 0 0 1 4.5-4.966zm38.506 2.998a2 2 0 1 0-.002 4 2 2 0 0 0 .002-4z"/>
</svg>
