<svg xmlns="http://www.w3.org/2000/svg" width="66" height="66" viewBox="0 0 66 66">
    <path fill="#6E70A6" fill-rule="nonzero" d="M55 3H11v23.446l-8 5V63h10v-3.945l5-2.429v-3.969L19.657 51h26.686L48 52.657v3.969l5 2.429V63h10V31.446l-8-5V3zM13 5h40v18H13V5zm3 50.374L11 57.8V61H5V32.554l6-3.75v22.367l10.379-10.378 2.828 2.828L16 51.829v3.545zM21.657 49l5.378-5.379L24.414 41H27v-4h-4v2.586l-1.621-1.622L19 40.343V37h-4v4h3.343L13 46.343V25h40v21.343l-8.379-8.379-1.763 1.763c.093-.231.14-.478.142-.727a2 2 0 1 0-2 2c.25-.001.496-.05.727-.142l-2.763 2.763L44.343 49H21.657zM61 32.554V61h-6v-3.2l-5-2.429v-3.542l-8.207-8.208 2.828-2.828L55 51.171V28.8l6 3.754zM19 33h4v4h-4v-4zm28 6a2 2 0 1 1 0-4 2 2 0 0 1 0 4zm-16 5a1 1 0 0 1 0 2h-3a1 1 0 0 1 0-2h3zm7 0a1 1 0 0 1 0 2h-3a1 1 0 0 1 0-2h3zm12.02-15a1 1 0 0 1-.01-2h.01a1 1 0 0 1 0 2zm-4 0a1 1 0 0 1-.01-2h.01a1 1 0 0 1 0 2zm-4 0a1 1 0 0 1-.01-2h.01a1 1 0 0 1 0 2zm-4 0a1 1 0 0 1-.01-2h.01a1 1 0 0 1 0 2zM21 9h24v2H21V9zm0 4h24v2H21v-2zm0 4h24v2H21v-2z"/>
</svg>
