<svg xmlns="http://www.w3.org/2000/svg" width="66" height="66" viewBox="0 0 66 66">
    <path fill="#6E70A6" fill-rule="nonzero" d="M53 24.5a.997.997 0 0 1-.707-.293l-5.857-5.857A4.856 4.856 0 0 1 45 14.889c0-1.309.511-2.539 1.437-3.462a4.841 4.841 0 0 1 3.458-1.434c1.146 0 2.231.39 3.105 1.105a4.879 4.879 0 0 1 3.106-1.105c1.312 0 2.541.511 3.462 1.437a4.851 4.851 0 0 1 1.433 3.459c0 1.31-.51 2.539-1.436 3.462l-.353.347-5.506 5.51A.995.995 0 0 1 53 24.5zm-3.105-12.507c-.775 0-1.501.301-2.043.847A2.87 2.87 0 0 0 47 14.889c0 .775.302 1.501.849 2.046L53 22.086l5.158-5.156c.541-.54.843-1.267.843-2.041s-.302-1.501-.848-2.046c-1.093-1.098-3.005-1.096-4.104 0l-.345.343a.998.998 0 0 1-1.41 0l-.344-.342a2.887 2.887 0 0 0-2.055-.851zM64 36.5a1 1 0 0 1-1-1 1 1 0 0 0-1-1 1 1 0 1 1 0-2c1.654 0 3 1.346 3 3a1 1 0 0 1-1 1zm-2 7a1 1 0 1 1 0-2 1 1 0 0 0 1-1 1 1 0 1 1 2 0c0 1.654-1.346 3-3 3zm2-2a1 1 0 0 1-1-1v-5a1 1 0 1 1 2 0v5a1 1 0 0 1-1 1zm-2-7h-2a1 1 0 1 1 0-2h2a1 1 0 1 1 0 2zm0 9h-6a1 1 0 1 1 0-2h6a1 1 0 1 1 0 2zm-2-9a1 1 0 0 1-1-1V30a1 1 0 1 1 2 0v3.5a1 1 0 0 1-1 1zm-3.999 0a1.002 1.002 0 0 1-.963-1.274l1-3.5a1.008 1.008 0 0 1 1.236-.688c.531.152.839.706.688 1.236l-1 3.5a1 1 0 0 1-.961.726zM57 31a1 1 0 0 1-.961-1.275c.174-.608.638-2.225 2.461-2.225 1.379 0 2.5 1.121 2.5 2.5a1 1 0 1 1-2 0c0-.275-.225-.5-.5-.5-.184 0-.316 0-.539.775A.999.999 0 0 1 57 31zm-1 12.5a.997.997 0 0 1-.707-.293l-1-1a.999.999 0 1 1 1.414-1.414l1 1A.999.999 0 0 1 56 43.5zm0-9h-3a1 1 0 1 1 0-2h3a1 1 0 1 1 0 2zm-1 8h-2a1 1 0 1 1 0-2h2a1 1 0 1 1 0 2zm-2 1h-4a1 1 0 0 1-1-1v-10a1 1 0 0 1 1-1h4a1 1 0 0 1 1 1v10a1 1 0 0 1-1 1zm-3-2h2v-8h-2v8zm4 21c-3.859 0-7-3.141-7-7s3.141-7 7-7 7 3.141 7 7-3.141 7-7 7zm0-12c-2.757 0-5 2.243-5 5s2.243 5 5 5 5-2.243 5-5-2.243-5-5-5zm0 8a1 1 0 0 1-1-1v-4a1 1 0 1 1 2 0v4a1 1 0 0 1-1 1zm2-2h-4a1 1 0 1 1 0-2h4a1 1 0 1 1 0 2zm-28-44c-1.654 0-3-1.346-3-3s1.346-3 3-3 3 1.346 3 3-1.346 3-3 3zm0-4a1 1 0 1 0 0 2 1 1 0 0 0 0-2zm9-1c-1.654 0-3-1.346-3-3s1.346-3 3-3 3 1.346 3 3-1.346 3-3 3zm0-4a1 1 0 1 0 0 2 1 1 0 0 0 0-2zm0 14c-1.654 0-3-1.346-3-3s1.346-3 3-3 3 1.346 3 3-1.346 3-3 3zm0-4a1 1 0 1 0 0 2 1 1 0 0 0 0-2zm-1.749 1.029a.985.985 0 0 1-.484-.126l-5.506-3.059a1 1 0 1 1 .97-1.748l5.506 3.059a1 1 0 0 1-.486 1.874zm-5.502-5a1 1 0 0 1-.486-1.874l5.506-3.059a.998.998 0 0 1 1.359.389.998.998 0 0 1-.389 1.359l-5.506 3.059a.985.985 0 0 1-.484.126zM44 28.502a1 1 0 0 1-1-1 4.006 4.006 0 0 0-4.002-4.002 4.006 4.006 0 0 0-4.001 4.002 1 1 0 1 1-2 0 6.008 6.008 0 0 1 6.001-6.002A6.008 6.008 0 0 1 45 27.502a1 1 0 0 1-1 1zM39 53.5c-3.309 0-6-2.691-6-6a1 1 0 1 1 2 0c0 2.206 1.794 4 4 4s4-1.794 4-4a1 1 0 1 1 2 0c0 3.309-2.691 6-6 6zm-5-5a1 1 0 0 1-1-1v-20a1 1 0 1 1 2 0v20a1 1 0 0 1-1 1zm-5.001-19.998a1 1 0 0 1-1-1A6.008 6.008 0 0 1 34 21.5a1 1 0 1 1 0 2 4.006 4.006 0 0 0-4.001 4.002 1 1 0 0 1-1 1zM34.002 53.5c-3.309 0-6-2.691-6-6a1 1 0 1 1 2 0c0 2.206 1.794 4 4 4a1 1 0 1 1 0 2zm-30.064-12H7a1 1 0 1 1 0 2H5.297A8.98 8.98 0 0 0 12 46.501h11.955a.994.994 0 0 1 .096 0h3.951V28.5H12a8.98 8.98 0 0 0-6.703 3H7a1 1 0 1 1 0 2H3.939a8.93 8.93 0 0 0-.884 3H7a1 1 0 1 1 0 2H3.055a8.931 8.931 0 0 0 .883 3zm-1.503 1.428A10.934 10.934 0 0 1 1 37.5c0-1.971.521-3.823 1.433-5.424a.998.998 0 0 1 .087-.15C4.435 28.68 7.968 26.5 12 26.5h17.002a1 1 0 0 1 1 1v20a.999.999 0 0 1-1 1.001h-3.614l.561 1.682a.996.996 0 0 1-.343 1.113.996.996 0 0 1-.606.204h-3.493l1.375 11H23a1 1 0 1 1 0 2h-9a1 1 0 0 1-.995-.903l-1.892-15.131c-3.661-.294-6.823-2.388-8.595-5.395a.998.998 0 0 1-.083-.143zM38 36.5h-4a1 1 0 1 1 0-2h4c1.654 0 3 1.346 3 3s-1.346 3-3 3h-4a1 1 0 1 1 0-2h4a1 1 0 0 0 0-2zm-16.743 13h2.356l-.333-.999h-2.147l.124.999zm-1.877 1.1l-.262-2.099h-5.985l1.75 13.999h5.984l-1.48-11.85a1.004 1.004 0 0 1-.007-.05zM44 48.5a1 1 0 0 1-1-1v-20a1 1 0 1 1 2 0v20a1 1 0 0 1-1 1zm-6 5h-4a1 1 0 1 1 0-2h4a1 1 0 1 1 0 2zm0-30h-4a1 1 0 1 1 0-2h4a1 1 0 1 1 0 2z"/>
</svg>
