<svg xmlns="http://www.w3.org/2000/svg" xmlns:xlink="http://www.w3.org/1999/xlink" width="199" height="224" viewBox="0 0 199 224">
    <defs>
        <rect id="a" width="133" height="158" rx="4"/>
        <filter id="b" width="179.7%" height="167.1%" x="-39.8%" y="-29.1%" filterUnits="objectBoundingBox">
            <feOffset dy="7" in="SourceAlpha" result="shadowOffsetOuter1"/>
            <feGaussianBlur in="shadowOffsetOuter1" result="shadowBlurOuter1" stdDeviation="16.5"/>
            <feColorMatrix in="shadowBlurOuter1" values="0 0 0 0 0.431372549 0 0 0 0 0.439215686 0 0 0 0 0.650980392 0 0 0 0.469684103 0"/>
        </filter>
    </defs>
    <g fill="none" fill-rule="evenodd" transform="translate(33 26)">
        <mask id="c" fill="#fff">
            <use xlink:href="#a"/>
        </mask>
        <use fill="#000" filter="url(#b)" xlink:href="#a"/>
        <use fill="#FFF" xlink:href="#a"/>
        <g fill="#444C63" fill-rule="nonzero" mask="url(#c)">
            <path d="M48.79 54.083V79.9H47V54.083c0-.477.017-.945.059-1.394a15.08 15.08 0 0 1 .27-1.856c1.001-4.847 4.261-9.041 8.721-11.219a2.52 2.52 0 0 1 .329-.156c.057-.027.12-.045.178-.072.014-.089.017-.185.032-.273.015.08.016.168.029.25A15.594 15.594 0 0 1 63.005 38h5.354c1.716 0 3.414.275 5.046.821.239.07.504.168.769.274l.56.249.029.012c.012-.08.015-.166.029-.244.016.088.014.182.028.27l.193.083.311.15a16.118 16.118 0 0 1 8.721 11.236c.18.889.284 1.784.311 2.659.022.19.024.382.024.573v25.816h-1.79V54.081c0-.127.003-.254-.015-.382l-.007-.096a14.106 14.106 0 0 0-.128-1.453c-.67.807-1.495 1.292-2.391 1.292h-1.418c-1.816 0-3.362-1.981-3.84-4.665-.477 2.684-2.023 4.665-3.84 4.665h-1.417c-1.816 0-3.362-1.981-3.84-4.665-.477 2.684-2.024 4.665-3.847 4.665h-1.41c-1.817 0-3.363-1.965-3.84-4.641-.486 2.676-2.032 4.641-3.848 4.641h-1.417c-.894 0-1.72-.486-2.39-1.293-.03.23-.082.467-.1.695-.038.409-.053.819-.053 1.239zM42 67.663C42 65.644 43.64 64 45.654 64v7.328A3.664 3.664 0 0 1 42 67.664zm45 3.665V64a3.664 3.664 0 0 1 0 7.328zM72.496 61c4.017 0 7.285 3.276 7.285 7.305 0 4.028-3.269 7.305-7.285 7.305-3.471 0-6.377-2.448-7.105-5.712-.727 3.264-3.634 5.712-7.105 5.712-4.017 0-7.286-3.277-7.286-7.305C51 64.276 54.269 61 58.286 61c3.471 0 6.378 2.448 7.105 5.712C66.12 63.448 69.025 61 72.496 61zm-14.21 11.234a3.928 3.928 0 0 0 3.919-3.929 3.93 3.93 0 0 0-3.919-3.93 3.93 3.93 0 0 0 0 7.86zm14.21 0a3.93 3.93 0 0 0 0-7.86 3.93 3.93 0 0 0-3.92 3.931 3.93 3.93 0 0 0 3.92 3.93zm38.634 12.914h.001v38.748c0 1.409-.57 2.686-1.487 3.618a2.555 2.555 0 0 1 1.487 2.316v2.605a2.557 2.557 0 0 1-2.551 2.556H24.55a2.556 2.556 0 0 1-2.55-2.556v-2.605c0-1.03.613-1.912 1.488-2.318A5.14 5.14 0 0 1 22 123.895V85.148C22 82.31 24.302 80 27.134 80h78.861c2.831 0 5.135 2.309 5.135 5.148zm-86.63 0v38.747a2.641 2.641 0 0 0 2.634 2.642h78.861a2.642 2.642 0 0 0 2.635-2.642V85.148a2.641 2.641 0 0 0-2.635-2.641H27.134a2.64 2.64 0 0 0-2.634 2.64zm84.13 47.285v-2.604l-84.081-.05-.05 2.654 84.08.05c.025 0 .051-.025.051-.05zm-41.541-22.232a4.1 4.1 0 0 0 4.088-4.1c0-2.26-1.833-4.101-4.088-4.101A4.1 4.1 0 0 0 63 106.1c0 2.26 1.835 4.101 4.089 4.101zm0-5.694a1.593 1.593 0 0 1 0 3.186 1.592 1.592 0 0 1 0-3.186zm23.353-75.098l3.46 1.857-4.939 9.195-3.459-1.857 4.938-9.195zM68.32 24l.139 10.408-3.937.052-.138-10.408L68.32 24zM42.42 30.063l5.167 9.036-3.42 1.955L39 32.018l3.419-1.955z"/>
        </g>
    </g>
</svg>
