<svg xmlns="http://www.w3.org/2000/svg" xmlns:xlink="http://www.w3.org/1999/xlink" width="199" height="224" viewBox="0 0 199 224">
    <defs>
        <rect id="a" width="133" height="158" rx="4"/>
        <filter id="b" width="179.7%" height="167.1%" x="-39.8%" y="-29.1%" filterUnits="objectBoundingBox">
            <feOffset dy="7" in="SourceAlpha" result="shadowOffsetOuter1"/>
            <feGaussianBlur in="shadowOffsetOuter1" result="shadowBlurOuter1" stdDeviation="16.5"/>
            <feColorMatrix in="shadowBlurOuter1" values="0 0 0 0 0.431372549 0 0 0 0 0.439215686 0 0 0 0 0.650980392 0 0 0 0.469684103 0"/>
        </filter>
    </defs>
    <g fill="none" fill-rule="evenodd" transform="translate(33 26)">
        <mask id="c" fill="#fff">
            <use xlink:href="#a"/>
        </mask>
        <use fill="#000" filter="url(#b)" xlink:href="#a"/>
        <use fill="#FFF" xlink:href="#a"/>
        <g fill="#444C63" fill-rule="nonzero" mask="url(#c)">
            <path d="M29.241 64.537v12.872C25.25 77.409 22 74.52 22 70.974c0-3.548 3.25-6.437 7.241-6.437zm75.518 0v12.872c3.991 0 7.241-2.888 7.241-6.435 0-3.55-3.25-6.437-7.241-6.437zm-23.62-29.704H56.138v-.446c0-9.05 7.795-16.387 17.411-16.387h25.003v.445c0 9.05-7.797 16.388-17.413 16.388zm13.885 41.91l-8.751 8.017c-2.293 2.095-5.963 1.615-7.628-1.001C75.489 78.8 72.732 78.627 67 78.627c-5.866 0-8.48.14-11.643 5.127-1.664 2.62-5.337 3.102-7.631 1.006l-8.751-8.017c-1.291-1.19-3.013-1.544-4.561-1.175v38.285c0 14.815 12.264 26.925 27.211 26.925h10.75c14.947 0 27.211-12.11 27.211-26.925V75.568c-1.551-.369-3.271-.015-4.562 1.175zM75.41 92.641H58.587v-4.368c0-3.775 3.203-6.864 7.119-6.864h2.588c3.915 0 7.119 3.089 7.119 6.864v4.368h-.002zm25.21-27.004H84.736c-1.075-3.495-4.465-6.05-8.488-6.05-4.022 0-7.413 2.555-8.488 6.05h-.72c-1.076-3.495-4.465-6.05-8.489-6.05-4.024 0-7.413 2.555-8.488 6.05h-15.65v2.042h15.308c-.004.107-.016.213-.016.323 0 4.648 3.961 8.417 8.848 8.417 4.886 0 8.848-3.769 8.848-8.417 0-.108-.014-.215-.017-.323h.034c-.004.107-.016.213-.016.323 0 4.648 3.961 8.417 8.848 8.417 4.886 0 8.848-3.769 8.848-8.417 0-.108-.014-.215-.018-.323h15.54v-2.042zm-44.513 0h-2.39c-.525-.356-.87-.937-.87-1.597 0-1.084.925-1.964 2.066-1.964 1.14 0 2.065.88 2.065 1.964 0 .661-.346 1.24-.871 1.597zm17.16 0h-2.39c-.524-.356-.87-.937-.87-1.597 0-1.084.926-1.964 2.066-1.964 1.14 0 2.066.88 2.066 1.964 0 .661-.347 1.24-.872 1.597zm-6.267 26.624c-3.138 0-5.69-2.647-5.69-5.9V85.33H63.3v1.032c0 2.115 1.66 3.836 3.7 3.836s3.7-1.72 3.7-3.836V85.33h1.99v1.032c0 3.252-2.553 5.899-5.69 5.899z"/>
        </g>
    </g>
</svg>
